<svg width="116" height="90" viewBox="0 0 116 90" fill="none" xmlns="http://www.w3.org/2000/svg">
<path d="M106.079 45.6382C106.087 51.7272 100.873 56.7178 95.1819 58.7745C89.4908 60.8313 83.3054 60.6912 77.2915 61.2504C71.2775 61.8097 64.219 67.3906 60.0854 71.822C57.3493 74.747 55.9018 78.6191 53.9552 82.1233C52.0085 85.6276 49.1873 89.0505 45.2702 89.8387C40.9778 90.6982 36.6052 88.0122 34.0868 84.4091C31.5684 80.806 30.4587 76.4235 29.2689 72.1711C28.0791 67.9187 27.3498 59.4938 24.3659 56.2698C21.7687 53.4749 18.2494 51.7872 14.8578 50.0607C11.4661 48.3342 8.0269 46.3977 5.79624 43.305C3.56557 40.2123 2.93128 35.6283 5.29581 32.6432C8.2496 28.93 13.8319 29.3993 18.5409 28.9902C22.9836 28.5666 27.262 27.0931 31.0233 24.6913C34.7847 22.2894 37.9213 19.028 40.1746 15.1758C41.8297 12.2983 42.9695 9.1267 44.7848 6.35181C46.6001 3.57693 49.3249 1.1111 52.6165 0.772062C57.2367 0.302908 61.1238 3.97613 64.3153 7.3703C70.4619 13.8984 76.3419 22.0929 84.3914 26.3753C92.327 30.5852 106.049 34.3185 106.079 45.6382Z" fill="#DBDFD3"/>
<path d="M113.972 2.38587C114.026 2.62222 113.984 2.87037 113.856 3.07616C113.728 3.28194 113.523 3.42855 113.287 3.48422L112.004 3.77836L112.298 5.06197C112.348 5.29677 112.303 5.54173 112.174 5.74401C112.045 5.94629 111.841 6.08954 111.607 6.14306C111.373 6.19659 111.128 6.15603 110.923 6.03005C110.719 5.90408 110.572 5.70282 110.515 5.46973L110.221 4.18612L108.938 4.4801C108.701 4.53435 108.453 4.49254 108.247 4.36373C108.042 4.23492 107.896 4.02974 107.842 3.79333C107.787 3.55691 107.829 3.30856 107.958 3.10303C108.087 2.89751 108.292 2.75166 108.528 2.69741L109.812 2.40343L109.518 1.11982C109.464 0.883245 109.506 0.63472 109.635 0.429074C109.764 0.223427 109.969 0.077396 110.205 0.0231457C110.442 -0.0311046 110.69 0.0108982 110.896 0.139823C111.102 0.268748 111.248 0.47411 111.302 0.710688L111.596 1.99429L112.88 1.70031C113.115 1.64781 113.362 1.69031 113.567 1.81867C113.771 1.94702 113.917 2.15083 113.972 2.38587Z" fill="#DBDFD3"/>
<path d="M13.6536 12.4659C13.6023 12.7026 13.4595 12.9094 13.2563 13.0414C13.0531 13.1733 12.8061 13.2197 12.5689 13.1703L11.2816 12.8925L11.0038 14.1799C10.9452 14.4096 10.7999 14.6075 10.5983 14.7323C10.3968 14.857 10.1547 14.8987 9.92301 14.8486C9.69132 14.7986 9.48808 14.6606 9.356 14.4638C9.22392 14.267 9.17329 14.0267 9.21477 13.7934L9.49253 12.5059L8.20515 12.2269C7.96807 12.1756 7.76109 12.0324 7.6297 11.8285C7.49831 11.6246 7.45328 11.3768 7.50455 11.1397C7.55581 10.9026 7.69914 10.6956 7.90303 10.5643C8.10692 10.4329 8.35468 10.3879 8.59176 10.4392L9.8791 10.7168L10.1568 9.42955C10.2154 9.19987 10.3608 9.00174 10.5623 8.87701C10.7639 8.75228 11.006 8.71058 11.2377 8.76064C11.4693 8.8107 11.6726 8.94867 11.8047 9.14549C11.9367 9.34232 11.9874 9.58271 11.9459 9.81608L11.6681 11.1035L12.9555 11.3812C13.1911 11.4339 13.3964 11.5774 13.5271 11.7804C13.6577 11.9834 13.7032 12.2296 13.6536 12.4659Z" fill="#DBDFD3"/>
<path d="M71.6684 81.4664C71.6176 81.7035 71.475 81.9108 71.2716 82.0428C71.0683 82.1748 70.8209 82.2209 70.5837 82.1708L69.2964 81.8931L69.0186 83.1804C68.9601 83.4101 68.8147 83.6082 68.6132 83.733C68.4116 83.8577 68.1695 83.8994 67.9378 83.8493C67.7062 83.7993 67.5029 83.6613 67.3708 83.4645C67.2387 83.2676 67.1881 83.0273 67.2296 82.7939L67.5085 81.5065L66.2212 81.2288C65.9915 81.1702 65.7935 81.0249 65.6688 80.8233C65.544 80.6218 65.5023 80.3797 65.5524 80.148C65.6025 79.9163 65.7404 79.7131 65.9373 79.581C66.1341 79.4489 66.3744 79.3982 66.6078 79.4397L67.8952 79.7175L68.1729 78.4313C68.2314 78.2016 68.3769 78.0037 68.5784 77.8789C68.78 77.7542 69.0221 77.7125 69.2537 77.7625C69.4854 77.8126 69.6886 77.9506 69.8207 78.1474C69.9528 78.3442 70.0035 78.5846 69.962 78.818L69.683 80.104L70.9703 80.3831C71.2061 80.4349 71.4118 80.5779 71.5426 80.7809C71.6734 80.9839 71.7186 81.2303 71.6684 81.4664Z" fill="#DBDFD3"/>
<path d="M75.4312 58.6856V75.2874H68.0248V58.6856C68.0284 57.5224 67.8022 56.3701 67.3592 55.2946C66.9161 54.2191 66.2649 53.2417 65.443 52.4186C64.6211 51.5955 63.6447 50.9431 62.5698 50.4985C61.495 50.0539 60.3429 49.826 59.1797 49.828H66.5736C67.7369 49.8275 68.8889 50.0563 69.9638 50.5012C71.0387 50.9462 72.0154 51.5986 72.838 52.4212C73.6606 53.2438 74.313 54.2205 74.758 55.2954C75.2029 56.3703 75.4316 57.5223 75.4312 58.6856Z" fill="#DBDFD3"/>
<path d="M71.6895 15.0593C71.6895 8.19967 80.0629 2.64615 90.4093 2.64615C93.8636 2.61997 97.2882 3.2848 100.482 4.60156C105.676 6.79595 109.129 10.658 109.129 15.0593C109.129 21.3322 102.092 26.5255 92.9627 27.3412C92.1142 27.4254 91.262 27.4672 90.4093 27.4662C89.2757 27.4668 88.1431 27.3988 87.0177 27.2624C86.7707 27.2349 86.5208 27.2696 86.2907 27.3633C86.0606 27.457 85.8577 27.6068 85.7002 27.799C83.8308 29.9076 81.5071 31.5644 78.9044 32.6445C78.6679 32.7458 78.4552 32.4255 78.6179 32.2153C79.7322 30.7896 80.5491 29.1546 81.02 27.4074C81.1293 27.0274 81.1014 26.621 80.9413 26.2594C80.7812 25.8978 80.4991 25.604 80.1442 25.4294C75.0486 23.2125 71.6895 19.3955 71.6895 15.0593Z" fill="white"/>
<path d="M94.3097 15.0205L97.2052 12.1233C97.6664 11.6735 97.9546 11.0766 98.0195 10.4366C98.0843 9.79665 97.9216 9.15441 97.5599 8.62182C97.3353 8.30672 97.0444 8.04422 96.7074 7.85309C96.3705 7.66196 95.9957 7.54664 95.6093 7.51522C95.2229 7.4838 94.8342 7.5371 94.4706 7.67125C94.1071 7.80541 93.7773 8.0172 93.5046 8.29186L90.5346 11.2532L87.5698 8.29623C87.2974 8.0206 86.9677 7.80787 86.604 7.67292C86.2402 7.53797 85.8512 7.48398 85.4643 7.51501C85.0774 7.54604 84.702 7.66127 84.3646 7.85246C84.0271 8.04365 83.7358 8.30632 83.5111 8.62182C83.1491 9.15417 82.9862 9.79629 83.0511 10.4362C83.1159 11.0761 83.4043 11.673 83.8658 12.1224L86.7596 15.0197L83.8726 17.8984C83.614 18.1389 83.4061 18.4282 83.2606 18.7495C83.1151 19.0709 83.035 19.4176 83.025 19.77C83.015 20.1224 83.0753 20.4734 83.2024 20.8023C83.3294 21.1313 83.5206 21.4318 83.7651 21.6865C84.0096 21.9412 84.3024 22.1451 84.6264 22.2861C84.9505 22.4271 85.2994 22.5026 85.6529 22.5081C86.0064 22.5136 86.3575 22.449 86.6859 22.3182C87.0142 22.1873 87.3132 21.9928 87.5656 21.7458L90.5346 18.7845L93.5046 21.7458C93.7647 22.0025 94.0748 22.2033 94.4158 22.3361C94.7567 22.4688 95.1211 22.5306 95.4869 22.5177C95.8526 22.5048 96.2119 22.4172 96.5425 22.2608C96.8731 22.1043 97.1681 21.882 97.4095 21.6077C97.8492 21.0764 98.0717 20.3995 98.0324 19.7118C97.9931 19.0241 97.695 18.3765 97.1976 17.8984L94.3097 15.0205ZM96.1199 20.4915C96.0324 20.5894 95.9259 20.6685 95.8069 20.7243C95.6879 20.7801 95.5587 20.8113 95.4273 20.8161C95.2959 20.8209 95.1649 20.7992 95.0421 20.7522C94.9194 20.7052 94.8075 20.6338 94.7131 20.5425L91.4585 17.2968C91.2128 17.0533 90.8806 16.9167 90.5342 16.9167C90.1879 16.9167 89.8555 17.0533 89.6099 17.2968L86.357 20.54C86.2629 20.6315 86.1511 20.7031 86.0284 20.7503C85.9057 20.7975 85.7747 20.8195 85.6433 20.8148C85.5119 20.8101 85.3828 20.7787 85.2639 20.7229C85.1449 20.667 85.0386 20.5879 84.9512 20.4899C84.7975 20.2834 84.7258 20.0274 84.75 19.7715C84.7741 19.5155 84.8923 19.2775 85.0819 19.1032L88.2518 15.9417C88.4967 15.6971 88.6342 15.3657 88.6342 15.0201C88.6342 14.6745 88.4967 14.3433 88.2518 14.0987L85.075 10.9218C84.8997 10.7583 84.7863 10.5394 84.7539 10.3022C84.7215 10.065 84.7722 9.82392 84.8973 9.61961C84.977 9.50492 85.0812 9.40915 85.2024 9.33938C85.3236 9.2696 85.4589 9.22749 85.5984 9.216C85.7378 9.20452 85.8781 9.22401 86.0091 9.27301C86.1401 9.322 86.2587 9.39927 86.3562 9.49936L89.6082 12.7428C89.8573 12.9806 90.1889 13.1133 90.5338 13.1133C90.8787 13.1133 91.2103 12.9806 91.4594 12.7428L94.7164 9.49603C94.813 9.39733 94.9303 9.32111 95.0599 9.2728C95.1894 9.22449 95.3282 9.20537 95.466 9.21663C95.6063 9.22759 95.7423 9.26926 95.8644 9.33896C95.9864 9.40866 96.0915 9.50456 96.1719 9.61961C96.297 9.82392 96.3476 10.065 96.3153 10.3022C96.2829 10.5394 96.1695 10.7583 95.9941 10.9218L92.8148 14.0995C92.5709 14.3444 92.434 14.6754 92.434 15.0205C92.434 15.3657 92.5709 15.6969 92.8148 15.9417L95.9856 19.1032C96.176 19.2772 96.2951 19.5154 96.3198 19.7717C96.3446 20.028 96.2734 20.2845 96.1199 20.4915Z" fill="#5F6B4E"/>
<path d="M109.134 15.0531C109.134 21.3347 102.088 26.5266 92.9578 27.3398C92.1099 27.4258 91.2578 27.4652 90.4056 27.4576C89.6549 27.4576 88.9043 27.4313 88.1775 27.3662C88.2738 27.3637 88.3699 27.3548 88.4652 27.3398C97.598 26.5266 104.64 21.3347 104.64 15.0531C104.64 10.6618 101.177 6.79592 95.9891 4.60404C93.4859 3.56666 90.8324 2.93769 88.1299 2.74117C88.8718 2.67611 89.6386 2.64984 90.4056 2.64984C93.8611 2.62592 97.2869 3.29024 100.483 4.60404C105.674 6.79342 109.134 10.6618 109.134 15.0531Z" fill="#DBDFD3"/>
<path d="M88.1768 27.3662C87.5062 27.4313 86.8231 27.4575 86.1162 27.4575C86.3838 27.29 86.7014 27.2204 87.0145 27.261C87.3973 27.2998 87.7827 27.3399 88.1768 27.3662Z" fill="#DBDFD3"/>
<path d="M89.6011 75.2874V58.6806C89.6023 57.5172 89.374 56.3651 88.9293 55.2901C88.4846 54.215 87.8323 53.2383 87.0097 52.4157C86.1871 51.5931 85.2103 50.9407 84.1353 50.496C83.0603 50.0514 81.908 49.8231 80.7447 49.8242H33.7856C32.2825 49.8201 30.8039 50.2044 29.4931 50.9402C28.1098 51.7044 26.9567 52.8257 26.154 54.1871C25.3513 55.5485 24.9283 57.1002 24.9292 58.6806V75.2874H89.6011Z" fill="white"/>
<path d="M63.67 44.1994V49.7854L57.6536 54.1917L51.6484 49.7854V44.1994C53.4726 44.9558 55.4287 45.3428 57.4034 45.3379H57.9288C59.8989 45.3409 61.8502 44.9539 63.67 44.1994Z" fill="white"/>
<path d="M63.67 44.1994V49.7854L57.6536 54.1917L51.6484 49.7854V44.1994C53.4726 44.9558 55.4287 45.3428 57.4034 45.3379H57.9288C59.8989 45.3409 61.8502 44.9539 63.67 44.1994Z" fill="white"/>
<path d="M51.6271 44.8999L44.8613 49.803C45.1339 51.7643 45.8139 53.6468 46.8576 55.3296C47.9013 57.0123 49.2856 58.458 50.9215 59.5738C51.2442 59.7993 51.6102 59.9555 51.9963 60.0323C52.3824 60.109 52.7803 60.1048 53.1647 60.0199C53.5491 59.935 53.9117 59.7712 54.2295 59.539C54.5474 59.3067 54.8136 59.011 55.0113 58.6706L57.6573 54.1943C56.0521 53.1596 54.6846 51.7962 53.6451 50.1941C52.6056 48.592 51.9178 46.7875 51.6271 44.8999Z" fill="white"/>
<path d="M57.656 54.188L55.0088 58.6656C54.8124 59.0056 54.5478 59.3013 54.2314 59.5339C53.9151 59.7666 53.554 59.9311 53.1709 60.0171C52.7877 60.1032 52.391 60.1089 52.0055 60.0339C51.6201 59.9589 51.2544 59.8049 50.9315 59.5814C51.0573 59.4465 51.1676 59.2979 51.2605 59.1385L53.8878 54.6596C51.2463 52.9162 49.274 50.3287 48.293 47.3196L51.6271 44.9013C51.9186 46.7874 52.6066 48.5903 53.6458 50.191C54.685 51.7918 56.0518 53.1541 57.656 54.188Z" fill="#DBDFD3"/>
<path d="M63.6864 44.8999L70.451 49.803C70.1787 51.7642 69.4989 53.6466 68.4554 55.3294C67.4119 57.0122 66.0278 58.458 64.392 59.5738C64.0694 59.7993 63.7034 59.9555 63.3172 60.0323C62.9311 60.109 62.5333 60.1048 62.1489 60.0199C61.7645 59.935 61.4019 59.7712 61.084 59.539C60.7662 59.3067 60.5 59.011 60.3023 58.6706L57.6562 54.1943C59.2611 53.1592 60.6283 51.7957 61.6678 50.1936C62.7072 48.5916 63.3952 46.7873 63.6864 44.8999Z" fill="white"/>
<path d="M70.447 49.8092C70.1771 51.7686 69.499 53.6496 68.4566 55.3305C67.4142 57.0114 66.0307 58.4548 64.3955 59.5675C64.0767 59.7913 63.7152 59.9471 63.3336 60.0252C62.952 60.1033 62.5583 60.1021 62.1772 60.0216C61.7961 59.9411 61.4356 59.7831 61.1182 59.5573C60.8008 59.3315 60.5332 59.043 60.332 58.7094C60.699 58.6371 61.0456 58.4856 61.3479 58.2653C62.9831 57.148 64.3673 55.7017 65.4119 54.0191C66.4565 52.3364 67.1385 50.4543 67.4144 48.4931L63.536 45.6881C63.5936 45.4379 63.6374 45.174 63.6799 44.9013L70.447 49.8092Z" fill="#DBDFD3"/>
<path d="M71.7769 31.2245C71.7769 34.9693 70.2893 38.5606 67.6414 41.2085C64.9934 43.8565 61.402 45.3442 57.6573 45.3442C53.9125 45.3442 50.3211 43.8565 47.6732 41.2085C45.0252 38.5606 43.5376 34.9693 43.5376 31.2245C43.5376 23.3978 49.8455 14.2098 57.6573 14.2098C65.449 14.2048 71.7769 23.3978 71.7769 31.2245Z" fill="white"/>
<path d="M71.7783 31.2231C71.7796 33.0788 71.4153 34.9166 70.7062 36.6314C69.9972 38.3462 68.9572 39.9044 67.6458 41.2172C66.3344 42.5301 64.7772 43.5718 63.0631 44.2826C61.349 44.9935 59.5117 45.3597 57.6561 45.3604C56.8703 45.357 56.0857 45.2951 55.3091 45.1753C58.6069 44.6201 61.601 42.9138 63.7597 40.3596C65.9183 37.8054 67.1016 34.5687 67.0992 31.2245C67.0992 24.1997 62.0061 16.0726 55.3091 14.4837C56.079 14.3066 56.8661 14.2157 57.6561 14.2124C65.4541 14.2174 71.7783 23.3964 71.7783 31.2231Z" fill="#DBDFD3"/>
<path d="M43.8117 33.9843C41.9351 27.0446 41.1356 20.6929 41.8325 15.0931C43.5077 4.37763 61.6295 0.659473 67.6259 9.88491C67.8385 10.2136 68.1728 10.4444 68.5555 10.5266C71.8996 11.2485 74.1565 13.4291 73.6361 19.3379C73.4604 24.2266 72.7438 29.0809 71.4992 33.8117C71.9008 33.6278 69.669 23.8557 66.8703 18.9415C66.6833 18.6195 66.3763 18.3847 66.0165 18.2887C65.6567 18.1928 65.2736 18.2435 64.9511 18.4297C62.2222 19.7906 59.1428 20.2861 56.1248 19.8497C51.2331 19.2454 48.0553 20.504 46.7767 23.8244C45.6933 26.9283 43.8117 33.9843 43.8117 33.9843Z" fill="white"/>
<path d="M73.6384 19.3331C73.4653 24.1466 72.7595 28.926 71.534 33.5841C71.1368 30.7524 70.4562 27.9676 69.5023 25.2719V25.2569C69.675 23.7256 69.7175 22.452 69.8776 20.3201C70.4069 14.4113 68.1462 12.237 64.7983 11.5076C64.4155 11.4233 64.0812 11.1919 63.8675 10.8633C61.035 6.49954 55.4852 5.03949 50.2607 5.84143C56.371 3.50817 64.0964 4.45268 67.6307 9.88986C67.8443 10.2185 68.1787 10.45 68.5615 10.5342C71.8944 11.2498 74.1525 13.4243 73.6384 19.3331Z" fill="#DBDFD3"/>
<path d="M109.295 59.8616C109.531 59.8082 109.737 59.663 109.867 59.458C109.996 59.253 110.039 59.0049 109.986 58.7681L109.692 57.4845L110.976 57.1906C111.205 57.1291 111.401 56.9812 111.523 56.7781C111.646 56.5749 111.684 56.3324 111.631 56.1014C111.578 55.8703 111.438 55.6688 111.239 55.5392C111.041 55.4096 110.8 55.362 110.567 55.4065L109.283 55.7005L108.989 54.4169C108.935 54.1803 108.789 53.9749 108.583 53.846C108.378 53.7171 108.129 53.6751 107.893 53.7293C107.656 53.7836 107.451 53.9296 107.322 54.1353C107.193 54.3409 107.151 54.5894 107.205 54.826L107.499 56.1084L106.217 56.4024C105.98 56.4565 105.775 56.6023 105.646 56.8078C105.517 57.0134 105.475 57.2617 105.529 57.4983C105.583 57.7349 105.729 57.9403 105.934 58.0693C106.14 58.1983 106.388 58.2404 106.625 58.1863L107.908 57.8923L108.202 59.1759C108.256 59.4116 108.402 59.6164 108.607 59.7449C108.811 59.8735 109.059 59.9155 109.295 59.8616Z" fill="#5F6B4E"/>
<path d="M101.754 74.1139L91.245 74.1014V58.6832C91.242 56.0021 90.1756 53.4316 88.2798 51.5358C86.384 49.6399 83.8136 48.5737 81.1325 48.5707H70.8862L65.3289 44.5435C67.3104 43.396 69.0112 41.8213 70.3078 39.934C71.6043 38.0466 72.4639 35.894 72.8241 33.6328C73.6726 30.2731 74.2694 26.855 74.6094 23.4065C76.1106 24.721 77.8107 25.7894 79.6462 26.5718C79.7231 26.6272 79.7808 26.7051 79.8113 26.7948C79.8418 26.8845 79.8436 26.9814 79.8164 27.0721C79.3882 28.6582 78.6458 30.1422 77.6332 31.4359C77.4261 31.7048 77.3138 32.0348 77.3138 32.3742C77.3138 32.7137 77.4261 33.0436 77.6332 33.3125C77.773 33.4944 77.9525 33.6419 78.1581 33.7437C78.3637 33.8454 78.5899 33.8986 78.8193 33.8993C79.018 33.8973 79.2143 33.8548 79.396 33.7742C82.177 32.6229 84.6587 30.8522 86.6522 28.5972C86.6776 28.5626 86.7105 28.5343 86.7484 28.5144C86.7864 28.4944 86.8284 28.4834 86.8712 28.4822C88.9316 28.731 91.0124 28.7607 93.079 28.5709C102.945 27.6952 110.384 21.8739 110.384 15.043C110.384 10.2627 106.866 5.9228 100.976 3.43316C97.6266 2.05246 94.0356 1.35395 90.413 1.37878C81.7806 1.37878 74.433 5.1471 71.6469 10.4004C70.7784 9.86729 69.8231 9.49079 68.8244 9.28811C68.7648 9.27428 68.7128 9.23806 68.6793 9.18686C65.6267 4.49157 59.3375 2.38095 52.6655 3.80717C46.1699 5.19587 41.4334 9.5433 40.5926 14.9192C39.912 20.4026 40.5664 26.7244 42.5944 34.2421C43.0295 36.3818 43.9139 38.4047 45.1891 40.1771C46.4644 41.9495 48.1014 43.431 49.992 44.5235L44.4334 48.5519H34.1871C31.5063 48.5552 28.9362 49.6217 27.0407 51.5174C25.1451 53.4132 24.0789 55.9835 24.0759 58.6644V74.0351L1.7042 74.0176C1.3724 74.0176 1.05416 74.1493 0.819537 74.3839C0.584914 74.6186 0.453125 74.9368 0.453125 75.2686C0.453125 75.6004 0.584914 75.9187 0.819537 76.1533C1.05416 76.388 1.3724 76.5197 1.7042 76.5197L26.3829 76.5385C26.4154 76.5385 26.4417 76.5222 26.4742 76.5197H40.9455C41.2773 76.5197 41.5955 76.388 41.8301 76.1533C42.0647 75.9187 42.1965 75.6004 42.1965 75.2686C42.1965 74.9368 42.0647 74.6186 41.8301 74.3839C41.5955 74.1493 41.2773 74.0176 40.9455 74.0176H26.5731V58.6644C26.5751 56.6468 27.3773 54.7125 28.8039 53.2858C30.2304 51.859 32.1646 51.0564 34.1821 51.0541H43.8016C44.6482 54.9189 46.9282 58.3191 50.1821 60.5697C50.8664 61.0598 51.6875 61.3224 52.5292 61.3203C53.2467 61.3174 53.9512 61.1284 54.5738 60.7716C55.1964 60.4148 55.7157 59.9025 56.081 59.2849L57.6511 56.6288L59.2212 59.2849C59.515 59.7813 59.9091 60.211 60.3782 60.5466C60.8474 60.8823 61.3813 61.1163 61.946 61.234C62.4922 61.349 63.0565 61.3491 63.6027 61.234C64.1489 61.119 64.6652 60.8915 65.1187 60.566C68.3751 58.3166 70.6573 54.916 71.5055 51.0503H81.1238C83.1416 51.0522 85.0761 51.8547 86.5029 53.2815C87.9296 54.7083 88.732 56.6428 88.734 58.6606V74.0137H49.2276C48.8958 74.0137 48.5776 74.1456 48.3429 74.3803C48.1083 74.6149 47.9765 74.933 47.9765 75.2648C47.9765 75.5966 48.1083 75.9149 48.3429 76.1495C48.5776 76.3841 48.8958 76.5159 49.2276 76.5159H59.0498C59.091 76.527 59.1327 76.5358 59.1749 76.5422L101.748 76.5935C102.08 76.5935 102.398 76.4617 102.632 76.2271C102.867 75.9925 102.999 75.6742 102.999 75.3424C102.999 75.0106 102.867 74.6925 102.632 74.4578C102.398 74.2232 102.08 74.0913 101.748 74.0913L101.754 74.1139ZM90.408 3.89728C93.695 3.87178 96.9539 4.503 99.9937 5.75388C104.93 7.83943 107.876 11.3174 107.876 15.0594C107.876 20.5854 101.416 25.3295 92.8376 26.0964C90.9501 26.2695 89.0495 26.2421 87.1677 26.015C86.7177 25.9612 86.2613 26.0207 85.8401 26.188C85.4188 26.3554 85.046 26.6253 84.7556 26.9733C83.7972 28.069 82.697 29.0322 81.4841 29.8371C81.7855 29.1541 82.0339 28.4489 82.2272 27.7277C82.4161 27.0576 82.36 26.3421 82.0687 25.7097C81.7775 25.0773 81.2704 24.5693 80.6384 24.2772C78.3851 23.363 76.3923 21.9067 74.8371 20.0374C74.8521 19.8397 74.8646 19.662 74.8809 19.4468C75.2782 16.9625 74.7997 14.4173 73.5272 12.2469C75.4877 7.45277 82.2998 3.89728 90.4105 3.89728H90.408ZM43.0685 15.282C43.7416 10.9771 47.7125 7.4391 53.186 6.27435C54.3431 6.02943 55.5225 5.90568 56.7052 5.90523C60.3571 5.90523 64.3243 7.10123 66.5775 10.5655C66.7709 10.8667 67.022 11.1265 67.3164 11.3301C67.6108 11.5337 67.9426 11.6769 68.2927 11.7515C70.5997 12.2519 72.8916 13.528 72.3887 19.2379C72.3124 20.1762 72.2636 20.9507 72.2186 21.6538C72.1237 23.6391 71.8917 25.6156 71.5242 27.5689C70.6661 24.3698 69.4713 21.2707 67.9599 18.3234C67.6078 17.7152 67.0295 17.2707 66.3512 17.0867C65.6728 16.9028 64.9493 16.9943 64.3381 17.3413C61.8451 18.58 59.0315 19.0225 56.2786 18.6087C50.6876 17.9194 47.0945 19.5232 45.5969 23.4128C45.1053 24.8165 44.471 26.9834 43.9018 28.9639C42.8866 24.4795 42.6052 19.8603 43.0685 15.2859V15.282ZM45.1015 34.0118C45.4643 32.6582 47.0232 26.9095 47.9465 24.2697C48.3218 23.2839 49.4815 20.2813 56.0096 21.0907C59.2815 21.5656 62.6202 21.0155 65.5666 19.5157C65.6015 19.4939 65.6433 19.4859 65.6838 19.4933C65.7243 19.5007 65.7606 19.523 65.7855 19.5557C67.9488 23.9551 69.4658 28.6436 70.2894 33.4764L70.2782 33.534C70.2546 33.6398 70.2458 33.7485 70.2519 33.8568C69.6524 36.7371 68.0834 39.3247 65.8067 41.188C63.53 43.0513 60.6832 44.0776 57.7413 44.0957C54.7994 44.1139 51.9401 43.1228 49.6406 41.2877C47.3411 39.4526 45.7403 36.8845 45.1053 34.0118H45.1015ZM53.9316 58.0326C53.8224 58.223 53.6751 58.3888 53.4988 58.5196C53.3225 58.6504 53.1211 58.7433 52.9072 58.7927C52.6933 58.842 52.4716 58.8466 52.2558 58.8063C52.0401 58.7659 51.835 58.6813 51.6534 58.5579C48.8413 56.6424 46.8854 53.7075 46.2 50.3748L50.8002 47.0406C51.6958 50.0241 53.5215 52.6432 56.0109 54.5158L53.9316 58.0326ZM57.6561 52.6092C55.419 50.9639 53.8103 48.6044 53.0959 45.9209C56.0657 46.843 59.2452 46.843 62.215 45.9209C61.5014 48.6051 59.8931 50.9655 57.6561 52.6117V52.6092ZM63.6612 58.5579C63.4794 58.6813 63.2741 58.7658 63.0581 58.8061C62.8421 58.8464 62.62 58.8417 62.4059 58.7922C62.1919 58.7428 61.9903 58.6498 61.8139 58.5188C61.6374 58.3879 61.4899 58.2219 61.3805 58.0314L59.3025 54.5158C61.7919 52.6432 63.6176 50.0241 64.5132 47.0406L69.1134 50.3748C68.4285 53.7088 66.472 56.6449 63.6587 58.5605L63.6612 58.5579Z" fill="#5F6B4E"/>
<path d="M114.296 74.1238H109.792C109.46 74.1238 109.142 74.2557 108.907 74.4903C108.673 74.725 108.541 75.0431 108.541 75.3749C108.541 75.7067 108.673 76.025 108.907 76.2596C109.142 76.4942 109.46 76.626 109.792 76.626H114.296C114.628 76.626 114.946 76.4942 115.181 76.2596C115.415 76.025 115.547 75.7067 115.547 75.3749C115.547 75.0431 115.415 74.725 115.181 74.4903C114.946 74.2557 114.628 74.1238 114.296 74.1238Z" fill="#5F6B4E"/>
<path d="M60.3767 65.4802C60.3781 64.9422 60.2201 64.4159 59.9225 63.9678C59.6249 63.5197 59.201 63.17 58.7046 62.9627C58.2082 62.7555 57.6615 62.7001 57.1336 62.8036C56.6057 62.9071 56.1204 63.1648 55.739 63.5441C55.3575 63.9235 55.0972 64.4073 54.9908 64.9347C54.8843 65.462 54.9367 66.009 55.1412 66.5066C55.3457 67.0041 55.6931 67.4298 56.1395 67.7299C56.586 68.03 57.1114 68.191 57.6493 68.1925C58.37 68.1921 59.0612 67.9068 59.5722 67.3986C60.0832 66.8905 60.3724 66.2008 60.3767 65.4802Z" fill="#5F6B4E"/>
</svg>
