<svg width="118" height="90" viewBox="0 0 118 90" fill="none" xmlns="http://www.w3.org/2000/svg">
<path d="M107.995 45.2758C108.005 51.4147 102.747 56.4461 97.0104 58.5197C91.2739 60.5934 85.0353 60.4509 78.9734 61.0147C72.9114 61.5785 65.7951 67.2055 61.6264 71.6731C58.8679 74.6221 57.4085 78.5271 55.4459 82.0588C53.4832 85.5905 50.6376 89.0427 46.6897 89.8374C42.3608 90.7039 37.9525 87.996 35.4147 84.3634C32.8769 80.7308 31.7568 76.3121 30.556 72.0248C29.3552 67.7376 28.6212 59.2438 25.6129 55.9934C22.9944 53.1756 19.4463 51.4742 16.0269 49.7335C12.6074 47.9929 9.13874 46.0405 6.88979 42.9225C4.64084 39.8045 4.00132 35.183 6.38523 32.1747C9.36449 28.4298 14.9913 28.9023 19.739 28.4899C24.2181 28.063 28.5316 26.5781 32.3238 24.1565C36.116 21.735 39.2782 18.4462 41.5498 14.5623C43.2186 11.6613 44.3688 8.46413 46.1978 5.6665C48.0267 2.86888 50.7751 0.382848 54.0937 0.0410279C58.7518 -0.43197 62.6708 3.2712 65.8885 6.69318C72.0854 13.2748 78.0136 21.5364 86.1302 25.8539C94.1308 30.0995 107.965 33.8671 107.995 45.2758Z" fill="#DBDFD3"/>
<path d="M14.2938 16.274C14.2423 16.5129 14.0985 16.7221 13.8936 16.8554C13.6887 16.9886 13.4394 17.0357 13.2001 16.9859L11.9023 16.7057L11.6222 18.0021C11.5966 18.1206 11.548 18.2332 11.479 18.3329C11.4101 18.4325 11.3222 18.5173 11.2204 18.5829C11.1185 18.6486 11.0047 18.6937 10.8855 18.7153C10.7663 18.737 10.6439 18.7348 10.5255 18.7092C10.4071 18.6836 10.2948 18.6353 10.1952 18.5663C10.0956 18.4973 10.0105 18.4095 9.94487 18.3076C9.87922 18.2058 9.83428 18.0918 9.8126 17.9726C9.79093 17.8534 9.79302 17.7307 9.81861 17.6123L10.0985 16.3159L8.80194 16.0344C8.56292 15.9827 8.35424 15.8384 8.22178 15.6328C8.08931 15.4273 8.04384 15.1778 8.09552 14.9387C8.14721 14.6997 8.29183 14.491 8.49739 14.3586C8.70294 14.2261 8.95262 14.1806 9.19164 14.2323L10.4884 14.5119L10.7695 13.2143C10.8212 12.9752 10.9658 12.7666 11.1714 12.6341C11.377 12.5016 11.6266 12.4562 11.8657 12.5078C12.1047 12.5595 12.3133 12.7038 12.4458 12.9094C12.5783 13.115 12.6238 13.3651 12.5721 13.6041L12.292 14.9018L13.59 15.182C13.8274 15.2349 14.0344 15.3791 14.1661 15.5836C14.2979 15.788 14.3437 16.0359 14.2938 16.274Z" fill="#DBDFD3"/>
<path d="M72.7841 85.8341C72.7329 86.0731 72.589 86.2818 72.3841 86.4149C72.1791 86.548 71.9297 86.5947 71.6906 86.5442L70.3926 86.264L70.1127 87.5617C70.061 87.8009 69.9163 88.0099 69.7107 88.1424C69.505 88.275 69.2551 88.3204 69.0159 88.2687C68.7768 88.217 68.5679 88.0728 68.4353 87.8671C68.3027 87.6615 68.2572 87.4116 68.3089 87.1724L68.5902 85.8741L67.2922 85.5939C67.0607 85.5349 66.8611 85.3888 66.7353 85.1856C66.6096 84.9824 66.5675 84.738 66.618 84.5044C66.6685 84.2708 66.8076 84.066 67.006 83.9329C67.2044 83.7997 67.4468 83.7488 67.6821 83.7906L68.9799 84.0702L69.26 82.7738C69.3115 82.5346 69.4558 82.3257 69.6614 82.193C69.8669 82.0603 70.1169 82.0146 70.3561 82.0661C70.5953 82.1177 70.8042 82.2621 70.9369 82.4677C71.0696 82.6733 71.1151 82.9232 71.0636 83.1624L70.7824 84.4601L72.0803 84.7415C72.318 84.7938 72.5255 84.9378 72.6574 85.1425C72.7892 85.3471 72.8347 85.596 72.7841 85.8341Z" fill="#DBDFD3"/>
<path d="M64.7986 76.933C64.81 76.933 64.8099 76.9331 64.8212 76.957C64.8037 76.9597 64.7875 76.9677 64.7746 76.9798C64.7632 76.9571 64.7633 76.9329 64.752 76.9102C64.7609 76.9105 64.7696 76.9125 64.7777 76.9164C64.7857 76.9203 64.7929 76.9261 64.7986 76.933Z" fill="white"/>
<path d="M54.2429 15.6083H86.2112C87.0342 15.6085 87.8482 15.7787 88.6023 16.1084C89.3563 16.4381 90.0341 16.9203 90.5931 17.5243L103.609 31.596C104.113 32.1405 104.396 32.8527 104.402 33.5946C104.409 34.3364 104.139 35.0543 103.645 35.6079L70.3955 72.9082L36.5275 35.6319C36.0215 35.0753 35.7446 34.348 35.7521 33.5958C35.7596 32.8436 36.0509 32.1222 36.5678 31.5757L49.9077 17.4701C50.4658 16.8814 51.1381 16.4125 51.8835 16.0924C52.6289 15.7723 53.4317 15.6076 54.2429 15.6083Z" fill="white"/>
<path d="M103.649 35.6104L70.3953 72.9082L67.2041 69.4051L97.3334 35.6104C97.8239 35.0542 98.0912 34.3361 98.0837 33.5946C98.0763 32.853 97.7947 32.141 97.2931 31.5948L84.2699 17.5305C83.7131 16.9234 83.0358 16.4392 82.2814 16.1084C81.5269 15.7777 80.7118 15.6078 79.8881 15.6096H86.2173C87.0409 15.609 87.8556 15.7796 88.6099 16.1103C89.3642 16.441 90.0416 16.9244 90.5992 17.5305L103.608 31.5948C104.11 32.1409 104.392 32.853 104.4 33.5946C104.407 34.3362 104.14 35.0543 103.649 35.6104Z" fill="#DBDFD3"/>
<path d="M72.909 64.972L97.3132 54.1041C97.9162 53.8352 98.5665 53.6875 99.2266 53.6699C99.8866 53.6523 100.544 53.7655 101.16 54.0019C101.777 54.2382 102.341 54.5933 102.82 55.0476C103.299 55.502 103.684 56.0464 103.953 56.6495C104.491 57.843 104.549 59.1979 104.114 60.4329C103.68 61.6679 102.786 62.6879 101.619 63.2814L76.1556 76.1342C71.6416 78.4139 66.6557 79.6019 61.5987 79.6029C57.7017 79.6024 53.8368 78.8966 50.1912 77.5193L34.0386 71.4184V49.5293H35.5637C39.5027 49.53 43.3728 50.562 46.7894 52.5225C50.2055 54.4841 54.0759 55.5165 58.0152 55.5169H69.9777C70.6569 55.5192 71.3291 55.6551 71.9557 55.9173C72.5823 56.1794 73.1511 56.5623 73.6297 57.0443C74.1083 57.5263 74.4872 58.0978 74.7449 58.7263C75.0026 59.3548 75.134 60.0277 75.1315 60.707C75.1338 61.3861 75.0023 62.0593 74.7446 62.6877C74.4868 63.316 74.1078 63.8872 73.6292 64.369C73.1507 64.8509 72.582 65.234 71.9554 65.4961C71.3289 65.7581 70.6568 65.8941 69.9777 65.8964H52.2724" fill="white"/>
<path d="M34.0371 49.5207V71.4172L50.1948 77.5267C53.8397 78.9012 57.703 79.6064 61.5985 79.6072C62.3969 79.6072 63.2142 79.5703 64.0126 79.5136C60.957 79.2709 57.9503 78.6019 55.0798 77.5267L38.9223 71.4172V49.7806C37.8098 49.6105 36.6862 49.5235 35.5608 49.5207H34.0371Z" fill="#DBDFD3"/>
<path d="M31.9762 43.6138H15.6521C14.518 43.6138 13.5986 44.5331 13.5986 45.6672V74.8392C13.5986 75.9733 14.518 76.8926 15.6521 76.8926H31.9762C33.1103 76.8926 34.0296 75.9733 34.0296 74.8392V45.6672C34.0296 44.5331 33.1103 43.6138 31.9762 43.6138Z" fill="white"/>
<path d="M13.6036 45.6757V74.8341C13.6013 75.3782 13.815 75.9011 14.198 76.2876C14.5809 76.6741 15.1017 76.8922 15.6457 76.8948H19.8799C19.3359 76.8922 18.8152 76.6741 18.4323 76.2876C18.0494 75.9011 17.8355 75.3782 17.8378 74.8341V45.6757C17.8352 45.4059 17.886 45.1387 17.9875 44.8886C18.0889 44.6386 18.239 44.4108 18.4289 44.2192C18.6188 44.0275 18.8448 43.8758 19.0939 43.772C19.343 43.6683 19.6101 43.6148 19.8799 43.615H15.6457C15.3759 43.6146 15.1086 43.6677 14.8594 43.7714C14.6103 43.8751 14.3842 44.0275 14.1943 44.2192C14.0043 44.4109 13.8542 44.6379 13.7528 44.888C13.6514 45.1381 13.6008 45.4059 13.6036 45.6757Z" fill="#DBDFD3"/>
<path d="M99.5873 10.7788L100.881 10.4825L101.178 11.7765C101.233 12.015 101.38 12.2224 101.587 12.3523C101.69 12.4167 101.804 12.4603 101.924 12.4805C102.043 12.5006 102.165 12.4971 102.284 12.47C102.402 12.4429 102.513 12.3924 102.612 12.3222C102.711 12.252 102.795 12.1631 102.859 12.0604C102.923 11.9578 102.967 11.8436 102.987 11.7241C103.007 11.6047 103.004 11.4826 102.977 11.3645L102.68 10.0699L103.974 9.77364C104.213 9.71895 104.419 9.57191 104.549 9.3647C104.679 9.15749 104.721 8.9071 104.667 8.66875C104.612 8.4304 104.465 8.22338 104.258 8.09352C104.051 7.96365 103.8 7.9218 103.562 7.9765L102.268 8.27274L101.971 6.97877C101.944 6.86067 101.894 6.74867 101.824 6.64989C101.754 6.55111 101.665 6.46734 101.562 6.40292C101.46 6.3385 101.346 6.29506 101.226 6.27481C101.107 6.25456 100.984 6.25767 100.866 6.28467C100.748 6.31167 100.637 6.36172 100.538 6.43186C100.439 6.502 100.355 6.59101 100.291 6.69361C100.226 6.79622 100.183 6.91044 100.162 7.02989C100.142 7.14933 100.146 7.27146 100.173 7.38956L100.469 8.68415L99.1749 8.98039C98.9363 9.03508 98.7294 9.182 98.5995 9.38933C98.4695 9.59667 98.4271 9.84738 98.4818 10.0859C98.5365 10.3244 98.6838 10.5312 98.8911 10.6611C99.0984 10.7911 99.3488 10.8335 99.5873 10.7788Z" fill="#5F6B4E"/>
<path d="M111.416 62.9523L111.119 61.6583L112.413 61.3615C112.531 61.3344 112.643 61.2845 112.742 61.2143C112.84 61.1441 112.924 61.0552 112.989 60.9525C113.053 60.8499 113.097 60.7357 113.117 60.6163C113.137 60.4968 113.133 60.3741 113.106 60.256C113.079 60.1379 113.029 60.0264 112.959 59.9277C112.889 59.829 112.8 59.7451 112.697 59.6807C112.594 59.6164 112.48 59.5728 112.361 59.5526C112.241 59.5325 112.119 59.536 112.001 59.5631L110.707 59.8593L110.41 58.5654C110.353 58.3304 110.205 58.1276 109.999 58.0006C109.793 57.8736 109.545 57.8327 109.309 57.8867C109.073 57.9406 108.868 58.0849 108.738 58.2888C108.608 58.4928 108.563 58.74 108.613 58.9768L108.908 60.272L107.615 60.567C107.385 60.6295 107.188 60.7789 107.066 60.9833C106.943 61.1877 106.904 61.4315 106.957 61.6639C107.01 61.8963 107.151 62.099 107.351 62.2299C107.55 62.3607 107.792 62.4096 108.026 62.366L109.32 62.0691L109.617 63.3631C109.671 63.6016 109.818 63.8088 110.026 63.9389C110.233 64.069 110.483 64.1117 110.722 64.0572C110.96 64.0027 111.167 63.8555 111.297 63.6483C111.428 63.441 111.47 63.1908 111.416 62.9523Z" fill="#5F6B4E"/>
<path d="M115.76 78.3459H111.998C111.663 78.3459 111.342 78.4782 111.106 78.7148C110.869 78.9513 110.736 79.2727 110.736 79.6072C110.736 79.9417 110.869 80.2624 111.106 80.499C111.342 80.7355 111.663 80.8685 111.998 80.8685H115.76C116.095 80.8685 116.416 80.7355 116.652 80.499C116.889 80.2624 117.022 79.9417 117.022 79.6072C117.022 79.2727 116.889 78.9513 116.652 78.7148C116.416 78.4782 116.095 78.3459 115.76 78.3459Z" fill="#5F6B4E"/>
<path d="M11.144 78.3459H2.24033C1.90581 78.3459 1.58492 78.4782 1.34838 78.7148C1.11183 78.9513 0.979004 79.2727 0.979004 79.6072C0.979004 79.9417 1.11183 80.2624 1.34838 80.499C1.58492 80.7355 1.90581 80.8685 2.24033 80.8685H11.144C11.4785 80.8685 11.7994 80.7355 12.036 80.499C12.2725 80.2624 12.4053 79.9417 12.4053 79.6072C12.4053 79.2727 12.2725 78.9513 12.036 78.7148C11.7994 78.4782 11.4785 78.3459 11.144 78.3459Z" fill="#5F6B4E"/>
<path d="M105.077 31.4809C105.045 31.4279 105.015 31.3737 104.979 31.3207C104.659 30.8263 105.806 32.1114 91.5185 16.6676C90.8407 15.9369 90.0196 15.3542 89.1064 14.9549C88.1932 14.5556 87.2075 14.3484 86.2108 14.347H54.2413C53.1612 14.3512 52.0957 14.5977 51.1232 15.0676C50.3222 15.4432 49.5987 15.9652 48.9902 16.6073C47.6179 18.0578 53.9398 11.3768 35.6303 30.7344C34.9143 31.519 34.5142 32.541 34.5074 33.6032C34.5007 34.6654 34.8877 35.6925 35.5937 36.4861L50.4774 52.8693C49.4202 52.4725 48.3962 51.9923 47.415 51.4336C43.8057 49.365 39.7185 48.2756 35.5584 48.2729H35.2859V45.672C35.2849 44.7932 34.9355 43.9506 34.3141 43.3292C33.6926 42.7078 32.8501 42.3584 31.9712 42.3574H15.6483C14.7694 42.358 13.9267 42.7077 13.3052 43.3292C12.6837 43.9507 12.3342 44.7931 12.3335 45.672V74.8427C12.3342 75.7218 12.6836 76.5651 13.3051 77.1868C13.9265 77.8085 14.7693 78.1583 15.6483 78.1593H31.9712C32.8502 78.1579 33.6927 77.8078 34.3141 77.1862C34.9354 76.5645 35.2849 75.7217 35.2859 74.8427V73.2451L48.8049 78.3508H19.5421C19.2076 78.3508 18.8867 78.4838 18.6501 78.7203C18.4136 78.9569 18.2808 79.2776 18.2808 79.6121C18.2808 79.9466 18.4136 80.2674 18.6501 80.5039C18.8867 80.7405 19.2076 80.8735 19.5421 80.8735H104.051C104.386 80.8735 104.706 80.7405 104.943 80.5039C105.179 80.2674 105.312 79.9466 105.312 79.6121C105.312 79.2776 105.179 78.9569 104.943 78.7203C104.706 78.4838 104.386 78.3508 104.051 78.3508H74.3001C75.1174 78.0178 75.9246 77.6635 76.713 77.2662L102.177 64.4115C103.656 63.673 104.787 62.3853 105.33 60.8234C105.872 59.2615 105.781 57.5494 105.077 56.0534C104.374 54.5573 103.113 53.3961 101.564 52.8175C100.015 52.239 98.3017 52.289 96.7895 52.9573L85.3027 58.0735L104.576 36.4504C105.171 35.78 105.54 34.9388 105.63 34.0466C105.72 33.1544 105.526 32.2566 105.077 31.4809ZM32.7683 74.8378C32.7685 74.9419 32.7482 75.0452 32.7084 75.1414C32.6687 75.2377 32.6103 75.3252 32.5368 75.3989C32.4632 75.4726 32.3758 75.5308 32.2796 75.5707C32.1835 75.6106 32.0803 75.6311 31.9762 75.6311H15.6534C15.5493 75.6311 15.4461 75.6106 15.3499 75.5707C15.2538 75.5308 15.1664 75.4726 15.0928 75.3989C15.0192 75.3252 14.9609 75.2377 14.9211 75.1414C14.8814 75.0452 14.8611 74.9419 14.8612 74.8378V45.6671C14.8612 45.457 14.9447 45.2558 15.0933 45.1073C15.2418 44.9587 15.4433 44.8751 15.6534 44.8751H31.9762C32.1862 44.8751 32.3878 44.9587 32.5363 45.1073C32.6849 45.2558 32.7683 45.457 32.7683 45.6671V74.8378ZM69.9775 54.2568H64.2549L57.0451 35.8413H83.0903L75.0418 56.7918C74.4502 56.0074 73.6852 55.3704 72.8067 54.9306C71.9282 54.4908 70.96 54.2604 69.9775 54.2568ZM37.072 33.3187C37.081 33.255 37.0933 33.192 37.1086 33.1296C37.1266 33.0611 37.1485 32.9935 37.1742 32.9276C37.2484 32.7484 37.3534 32.5839 37.4845 32.441L50.8305 18.3342C51.2699 17.8729 51.7983 17.5054 52.3836 17.254C52.9689 17.0025 53.5991 16.872 54.2362 16.8709H60.254L53.6345 33.1068C53.6145 33.1762 53.6003 33.247 53.5917 33.3187H37.072ZM56.2771 33.3187L62.9809 16.8709H77.2894L83.8483 33.3187H56.2771ZM86.5198 33.3187C86.5131 33.2503 86.5 33.1826 86.4807 33.1167L80.0038 16.8709H86.2096C86.8596 16.8728 87.5022 17.0084 88.0977 17.2687C88.6933 17.5291 89.2291 17.9089 89.6719 18.3847L102.682 32.4484C102.814 32.5977 102.92 32.7682 102.995 32.9528C103.017 33.0045 103.029 33.0587 103.046 33.1117C103.065 33.1813 103.078 33.2521 103.087 33.3236L86.5198 33.3187ZM38.4241 35.8413H54.3346L61.5442 54.2568H58.0126C56.9846 54.2543 55.958 54.1766 54.9412 54.0247L38.4241 35.8413ZM97.8327 55.2558C98.7455 54.85 99.7821 54.8232 100.715 55.1813C101.647 55.5394 102.399 56.2532 102.806 57.1657C103.214 58.0622 103.26 59.082 102.934 60.0116C102.608 60.9413 101.936 61.7085 101.057 62.1537L75.5918 75.0084C71.7463 76.9279 67.5472 78.0365 63.2553 78.2652C58.9634 78.4939 54.6704 77.8375 50.6427 76.3375L35.3049 70.5457V50.7894H35.5685C39.2862 50.792 42.9387 51.7667 46.1636 53.6163C49.773 55.685 53.86 56.7748 58.0202 56.7783H69.9826C70.8111 56.7865 71.6159 57.056 72.282 57.5487C72.9482 58.0415 73.4416 58.7322 73.6921 59.522C73.9425 60.3118 73.9372 61.1608 73.6767 61.9474C73.4162 62.7339 72.914 63.418 72.2417 63.9022C72.2076 63.9249 72.1736 63.9478 72.142 63.973C71.5046 64.4045 70.7523 64.6347 69.9826 64.6339H52.2774C51.9428 64.6339 51.6219 64.7668 51.3854 65.0034C51.1489 65.2399 51.016 65.5607 51.016 65.8952C51.016 66.2297 51.1489 66.5504 51.3854 66.787C51.6219 67.0235 51.9428 67.1565 52.2774 67.1565H69.9826C71.2484 67.1581 72.4858 66.7813 73.5358 66.0744L97.8327 55.2558ZM76.2451 62.1063C76.3466 61.6465 76.3978 61.1766 76.3976 60.7057C76.3976 60.5985 76.3713 60.4988 76.3662 60.3929L85.7983 35.8413H101.752L79.7162 60.5635L76.2451 62.1063Z" fill="#5F6B4E"/>
<path d="M23.8201 48.9592C23.1255 48.9522 22.4445 49.1519 21.8634 49.5326C21.2824 49.9132 20.8275 50.458 20.5564 51.0975C20.2853 51.7371 20.2102 52.4428 20.3408 53.125C20.4714 53.8073 20.8017 54.4353 21.2897 54.9295C21.7778 55.4238 22.4017 55.7616 23.0823 55.9008C23.7628 56.04 24.4693 55.9741 25.1122 55.7111C25.7552 55.4481 26.3056 55.0001 26.6935 54.4239C27.0814 53.8477 27.2894 53.1693 27.2912 52.4746C27.2939 51.5491 26.9305 50.6604 26.2802 50.0019C25.6299 49.3433 24.7456 48.9682 23.8201 48.9592Z" fill="#5F6B4E"/>
</svg>
