<svg width="194" height="151" viewBox="0 0 194 151" fill="none" xmlns="http://www.w3.org/2000/svg">
<path d="M182.077 75.9595C182.094 86.1908 173.332 94.5764 163.769 98.0324C154.206 101.488 143.811 101.251 133.708 102.191C123.605 103.13 111.744 112.507 104.797 119.953C100.199 124.868 97.7669 131.377 94.4959 137.264C91.2249 143.15 86.4824 148.903 79.9026 150.23C72.69 151.672 65.3429 147.158 61.1112 141.104C56.8795 135.049 55.0148 127.686 53.0156 120.541C51.0165 113.395 49.7909 99.2392 44.7751 93.8219C40.411 89.1256 34.4975 86.2911 28.7985 83.3879C23.0995 80.4848 17.3206 77.233 13.5724 72.0364C9.82422 66.8398 8.75843 59.1374 12.7316 54.1237C17.6948 47.8844 27.0747 48.673 34.9874 47.9834C42.4524 47.2727 49.6414 44.7972 55.9614 40.7613C62.2814 36.7253 67.5513 31.2446 71.3362 24.7712C74.1195 19.9362 76.0346 14.6067 79.0827 9.94401C82.1309 5.28138 86.7136 1.13806 92.2445 0.568369C100.008 -0.219949 106.539 5.95292 111.902 11.6561C122.23 22.6253 132.108 36.3944 145.636 43.5902C158.972 50.6556 182.027 56.9284 182.077 75.9595Z" fill="#DBDFD3"/>
<path d="M186.587 23.3066C186.574 23.7139 186.399 24.0987 186.103 24.3782C185.807 24.6578 185.412 24.8093 185.004 24.7991L182.793 24.7272L182.721 26.9382C182.708 27.3458 182.533 27.7322 182.236 28.0109C181.938 28.2896 181.542 28.4379 181.134 28.4245C180.727 28.4112 180.341 28.2367 180.062 27.939C179.784 27.6414 179.635 27.2452 179.648 26.8376L179.722 24.6266L177.51 24.5548C177.102 24.5417 176.717 24.3678 176.438 24.0703C176.159 23.7729 176.01 23.3765 176.023 22.9689C176.036 22.5614 176.21 22.1752 176.508 21.8963C176.805 21.6174 177.201 21.4685 177.609 21.4816L179.82 21.5534L179.894 19.3414C179.914 18.9389 180.091 18.5602 180.388 18.2873C180.684 18.0143 181.076 17.8686 181.479 17.8818C181.882 17.895 182.263 18.0663 182.541 18.3581C182.819 18.6499 182.972 19.039 182.965 19.442L182.894 21.654L185.105 21.7249C185.511 21.7402 185.894 21.9154 186.171 22.2114C186.449 22.5074 186.598 22.9011 186.587 23.3066Z" fill="#DBDFD3"/>
<path d="M11.9813 81.8626C12.1342 82.2399 12.1316 82.6615 11.974 83.0369C11.8165 83.4122 11.5168 83.7101 11.1404 83.8652L9.08867 84.6915L9.91484 86.7434C10.0568 87.1199 10.0456 87.537 9.88379 87.9054C9.72195 88.2737 9.4223 88.5641 9.04903 88.7142C8.67575 88.8643 8.25852 88.8618 7.88676 88.708C7.515 88.5543 7.21825 88.2609 7.06008 87.891L6.23602 85.837L4.18221 86.6633C3.80393 86.8153 3.38075 86.8111 3.00583 86.651C2.63091 86.491 2.33493 86.1886 2.183 85.8104C2.03107 85.4321 2.03564 85.009 2.1957 84.634C2.35576 84.2591 2.65821 83.9627 3.0365 83.8108L5.08825 82.9845L4.2642 80.9326C4.112 80.5544 4.11627 80.1314 4.27614 79.7563C4.436 79.3812 4.73832 79.0853 5.11661 78.9331C5.4949 78.7809 5.91813 78.7845 6.29325 78.9444C6.66836 79.1043 6.96464 79.4068 7.11685 79.7851L7.9409 81.8369L9.99471 81.0127C10.3711 80.8655 10.7902 80.8723 11.1618 81.0312C11.5334 81.19 11.8277 81.4888 11.9813 81.8626Z" fill="#DBDFD3"/>
<path d="M94.5522 126.918C94.571 126.918 94.571 126.918 94.5898 126.956C94.5611 126.96 94.5349 126.974 94.5147 126.995C94.4939 126.956 94.4939 126.918 94.4751 126.878C94.4901 126.879 94.5047 126.883 94.518 126.889C94.5314 126.896 94.5431 126.906 94.5522 126.918Z" fill="white"/>
<path d="M131.929 93.3409V131.457H32.5986V93.3512C32.5971 90.924 33.2465 88.5412 34.4792 86.4503C35.7119 84.3595 37.4828 82.6365 39.6073 81.4628C41.6208 80.332 43.8926 79.7413 46.2019 79.7476H118.326C120.112 79.7462 121.882 80.0971 123.533 80.7802C125.184 81.4633 126.684 82.4657 127.948 83.7292C129.211 84.9927 130.213 86.4929 130.896 88.144C131.579 89.795 131.93 91.5644 131.929 93.3512V93.3409Z" fill="white"/>
<g opacity="0.3">
<g opacity="0.3">
<g opacity="0.3">
<path opacity="0.3" d="M131.928 93.3409V131.457H103.622C103.129 130.266 102.876 128.989 102.876 127.7L102.832 95.2203C102.827 93.857 103.093 92.5059 103.614 91.2459C104.135 89.9859 104.9 88.8417 105.865 87.8791C107.802 85.941 110.42 84.8374 113.16 84.8039L128.894 84.7802C130.859 87.2006 131.93 90.2238 131.928 93.3409Z" fill="#CEDBF0"/>
</g>
</g>
</g>
<g opacity="0.3">
<path opacity="0.3" d="M62.8364 109.493C62.8351 113.687 61.9089 117.829 60.1237 121.624C58.3385 125.418 55.7383 128.772 52.5084 131.447H32.5986V93.3409C32.5971 90.9137 33.2465 88.5298 34.4792 86.439C35.7119 84.3481 37.4828 82.6262 39.6073 81.4525C46.1337 82.7003 52.022 86.1823 56.2609 91.2992C60.4998 96.4162 62.8247 102.849 62.8364 109.493Z" fill="#CEDBF0"/>
</g>
<path d="M91.499 71.0996V79.6787L82.26 86.4472L73.0293 79.6787V71.0996C75.828 72.2598 78.8288 72.8544 81.8584 72.8487H82.6657C85.6968 72.8551 88.6991 72.2606 91.499 71.0996Z" fill="white"/>
<path d="M91.499 71.0996V79.6787L82.26 86.4472L73.0293 79.6787V71.0996C75.828 72.2598 78.8288 72.8544 81.8584 72.8487H82.6657C85.6968 72.8551 88.6991 72.2606 91.499 71.0996Z" fill="white"/>
<path d="M85.6567 102.937C85.6584 103.609 85.4609 104.266 85.0894 104.825C84.7178 105.384 84.1888 105.82 83.5692 106.078C82.9496 106.337 82.2672 106.406 81.6084 106.277C80.9496 106.148 80.3438 105.826 79.8678 105.352C79.3917 104.879 79.0667 104.276 78.9338 103.618C78.801 102.96 78.8663 102.276 79.1214 101.655C79.3765 101.034 79.8099 100.502 80.367 100.128C80.9241 99.7531 81.5798 99.552 82.2512 99.5499C83.1511 99.5499 84.0145 99.9069 84.6526 100.541C85.2907 101.176 85.6517 102.037 85.6567 102.937Z" fill="#DBDFD3"/>
<path d="M85.6567 112.958C85.6588 113.63 85.4617 114.287 85.0904 114.846C84.719 115.406 84.1902 115.843 83.5706 116.101C82.9511 116.36 82.2687 116.43 81.6097 116.301C80.9507 116.172 80.3448 115.85 79.8685 115.377C79.3923 114.903 79.067 114.299 78.934 113.641C78.801 112.983 78.8661 112.301 79.1211 111.68C79.3762 111.058 79.8097 110.526 80.3668 110.151C80.924 109.776 81.5797 109.575 82.2512 109.573C83.1509 109.573 84.0143 109.928 84.6524 110.563C85.2906 111.197 85.6517 112.059 85.6567 112.958Z" fill="#DBDFD3"/>
<path d="M85.6567 122.99C85.6567 123.89 85.299 124.753 84.6623 125.39C84.0256 126.027 83.1621 126.385 82.2617 126.385C81.3613 126.385 80.4978 126.027 79.8611 125.39C79.2244 124.753 78.8667 123.89 78.8667 122.99C78.8667 122.09 79.2244 121.226 79.8611 120.589C80.4978 119.952 81.3613 119.595 82.2617 119.595C83.1621 119.595 84.0256 119.952 84.6623 120.589C85.299 121.226 85.6567 122.09 85.6567 122.99Z" fill="#DBDFD3"/>
<path d="M72.9998 72.1754L62.6108 79.7075C63.0285 82.72 64.0724 85.6126 65.6752 88.1973C67.278 90.782 69.4043 93.002 71.9172 94.7153C72.4129 95.0615 72.9749 95.3006 73.5679 95.4184C74.1609 95.5362 74.7719 95.5303 75.3622 95.3999C75.9526 95.2695 76.5094 95.0175 76.9976 94.6609C77.4858 94.3043 77.8947 93.8503 78.1985 93.3275L82.262 86.4534C79.7965 84.8635 77.6961 82.7691 76.0996 80.308C74.503 77.8468 73.4465 75.0748 72.9998 72.1754Z" fill="white"/>
<path d="M82.2631 86.4411L78.1974 93.3193C77.8956 93.8414 77.489 94.2956 77.0031 94.6527C76.5172 95.0098 75.9626 95.2617 75.3742 95.3938C74.7859 95.5259 74.1766 95.5355 73.5847 95.4205C72.9927 95.3055 72.4311 95.0684 71.935 94.7256C72.1275 94.5176 72.2968 94.2898 72.4396 94.045L76.4841 87.1668C72.4278 84.4884 69.3992 80.5136 67.8926 75.8922L73.0114 72.1774C73.4587 75.0734 74.5145 77.8423 76.1091 80.3008C77.7037 82.7593 79.8011 84.8518 82.2631 86.4411Z" fill="#DBDFD3"/>
<path d="M91.5249 72.1754L101.916 79.7075C101.498 82.7199 100.454 85.6116 98.8509 88.1963C97.2481 90.7809 95.1221 93.0016 92.6096 94.7153C92.1138 95.0615 91.5515 95.3016 90.9584 95.4194C90.3652 95.5373 89.7541 95.5303 89.1636 95.3999C88.573 95.2696 88.016 95.0186 87.5276 94.6619C87.0392 94.3053 86.6301 93.8503 86.3262 93.3275L82.2627 86.4534C84.7285 84.8638 86.829 82.7692 88.4256 80.308C90.0222 77.8467 91.0786 75.0749 91.5249 72.1754Z" fill="white"/>
<path d="M101.908 79.7167C101.493 82.7258 100.451 85.6139 98.8495 88.1953C97.2483 90.7766 95.1236 92.9937 92.6125 94.703C92.1228 95.047 91.5677 95.286 90.9815 95.4061C90.3953 95.5263 89.7906 95.5246 89.2051 95.401C88.6197 95.2773 88.0659 95.0345 87.5783 94.6876C87.0908 94.3407 86.6798 93.8976 86.3711 93.385C86.9344 93.2743 87.4668 93.0414 87.9309 92.7035C90.443 90.9877 92.5694 88.7669 94.1741 86.1824C95.7787 83.5979 96.8264 80.7061 97.2499 77.6936L91.2944 73.3866C91.3827 72.9914 91.4479 72.5958 91.5047 72.1774L101.908 79.7167Z" fill="#DBDFD3"/>
<path d="M103.95 51.171C103.95 56.9225 101.665 62.4383 97.5981 66.5052C93.5312 70.5721 88.0153 72.8569 82.2638 72.8569C76.5122 72.8569 70.9963 70.5721 66.9293 66.5052C62.8624 62.4383 60.5776 56.9225 60.5776 51.171C60.5776 39.1507 70.2666 25.0302 82.2638 25.0302C94.2609 25.0302 103.95 39.1507 103.95 51.171Z" fill="white"/>
<path d="M103.952 51.1689C103.954 54.019 103.394 56.8413 102.305 59.475C101.216 62.1088 99.6187 64.5022 97.6045 66.5186C95.5902 68.5349 93.1985 70.135 90.5659 71.2269C87.9333 72.3188 85.1114 72.8815 82.2614 72.8826C81.0549 72.8767 79.8505 72.7807 78.6582 72.5962C83.7229 71.7426 88.3212 69.1215 91.6365 65.1985C94.9517 61.2756 96.7692 56.3051 96.7664 51.1689C96.7664 40.3784 88.9421 27.8979 78.6582 25.4573C79.84 25.1842 81.0485 25.0427 82.2614 25.0364C94.2459 25.0406 103.952 39.1487 103.952 51.1689Z" fill="#DBDFD3"/>
<path d="M60.9982 55.419C58.1396 46.0272 57.1077 36.1742 57.9584 26.3939C60.5315 9.93591 88.3644 4.22607 97.5761 18.3927C97.7374 18.6431 97.9465 18.8595 98.1914 19.0291C98.4363 19.1986 98.7123 19.3184 99.0035 19.3811C104.139 20.489 107.606 23.8399 106.807 32.9129C106.536 40.4216 105.435 47.8776 103.523 55.1439C104.141 54.8622 100.715 39.8521 96.4178 32.3032C96.1298 31.8109 95.6589 31.4523 95.1077 31.3055C94.5565 31.1586 93.9696 31.2352 93.4747 31.519C89.2835 33.608 84.5547 34.3688 79.9199 33.6992C72.4067 32.7721 67.517 34.7038 65.562 39.7953C63.8887 44.5715 60.9982 55.419 60.9982 55.419Z" fill="white"/>
<path d="M106.809 32.9077C106.545 40.3006 105.462 47.6416 103.58 54.7959C102.969 50.4467 101.923 46.1692 100.459 42.0288V42.0062C100.723 39.6539 100.789 37.698 101.03 34.4228C101.844 25.3477 98.371 22.0074 93.2291 20.8869C92.641 20.7575 92.1275 20.4025 91.7996 19.8974C87.4481 13.1957 78.9217 10.9548 70.9019 12.1846C80.2839 8.61091 92.1528 10.053 97.5806 18.4049C97.9084 18.9087 98.421 19.263 99.008 19.3924C104.127 20.4918 107.602 23.8263 106.809 32.9077Z" fill="#DBDFD3"/>
<path d="M174.846 95.3127L176.999 131.569L115.386 131.655C111.182 131.655 109.479 129.957 109.477 127.856L109.433 95.403C109.432 94.9037 109.529 94.4091 109.72 93.9475C109.91 93.4859 110.19 93.0662 110.542 92.7127C110.895 92.3591 111.313 92.078 111.775 91.8864C112.236 91.6947 112.73 91.5964 113.229 91.5959L171.039 91.5138C171.539 91.5132 172.033 91.6106 172.495 91.8012C172.956 91.9918 173.376 92.2717 173.729 92.6244C174.083 92.9771 174.364 93.396 174.555 93.8572C174.747 94.3183 174.846 94.8133 174.846 95.3127Z" fill="white"/>
<path d="M56.258 109.233C56.2571 113.577 54.9685 117.822 52.5549 121.433C50.1413 125.044 46.7112 127.858 42.6984 129.519C38.6855 131.181 34.27 131.615 30.0102 130.767C25.7504 129.92 21.8376 127.829 18.7666 124.758C15.6956 121.686 13.6042 117.773 12.7569 113.513C11.9096 109.253 12.3445 104.837 14.0065 100.825C15.6685 96.812 18.483 93.382 22.0942 90.9687C25.7054 88.5555 29.9511 87.2677 34.2944 87.2673C37.1789 87.2671 40.0353 87.8346 42.7003 88.9384C45.3653 90.0422 47.7867 91.6603 49.8263 93.7001C51.8659 95.7399 53.4837 98.1617 54.5872 100.827C55.6908 103.492 56.2585 106.349 56.258 109.233Z" fill="white"/>
<path d="M56.2644 109.236C56.263 112.12 55.6936 114.975 54.5885 117.639C53.4835 120.303 51.8645 122.724 49.824 124.763C47.7835 126.801 45.3615 128.418 42.6962 129.52C40.0309 130.623 37.1746 131.19 34.2903 131.188C33.2012 131.186 32.1136 131.105 31.0361 130.946C36.2417 130.169 40.9951 127.549 44.4311 123.562C47.867 119.575 49.757 114.486 49.757 109.223C49.757 103.96 47.867 98.8726 44.4311 94.8857C40.9951 90.8988 36.2417 88.2774 31.0361 87.5003C32.1137 87.3422 33.2012 87.2619 34.2903 87.2591C40.1179 87.2614 45.7061 89.5772 49.8266 93.6981C53.9471 97.819 56.2628 103.408 56.2644 109.236Z" fill="#DBDFD3"/>
<path d="M7.31111 22.3348L9.3628 21.5095L10.189 23.5624C10.2643 23.7497 10.3759 23.9212 10.5172 24.0654C10.6585 24.2096 10.8268 24.3239 11.0125 24.4031C11.1982 24.4823 11.3978 24.5242 11.5997 24.5263C11.8016 24.5283 12.0019 24.4908 12.1892 24.4154C12.3765 24.3401 12.5471 24.2283 12.6913 24.087C12.8356 23.9456 12.9505 23.7779 13.0297 23.5922C13.1088 23.4065 13.1506 23.207 13.1527 23.0051C13.1547 22.8032 13.117 22.6022 13.0416 22.4149L12.2155 20.3609L14.2693 19.5367C14.6476 19.3845 14.9499 19.0886 15.1098 18.7135C15.2697 18.3383 15.2739 17.9154 15.1217 17.5371C14.9695 17.1589 14.6733 16.8563 14.2982 16.6965C13.9231 16.5366 13.4998 16.532 13.1215 16.6842L11.0698 17.5084L10.2436 15.4565C10.0917 15.0782 9.79572 14.7759 9.4208 14.6159C9.04588 14.4558 8.62277 14.4516 8.24448 14.6035C7.86619 14.7555 7.56374 15.0508 7.40368 15.4257C7.24362 15.8006 7.23905 16.2238 7.39098 16.602L8.21715 18.656L6.16328 19.4802C5.79336 19.6384 5.50013 19.9358 5.34635 20.3075C5.19256 20.6793 5.19049 21.0962 5.34057 21.4695C5.49065 21.8428 5.7809 22.1422 6.14923 22.304C6.51755 22.4658 6.93466 22.4767 7.31111 22.3348Z" fill="#778463"/>
<path d="M143.806 140.304L141.592 140.356L141.542 138.145C141.532 137.737 141.361 137.35 141.067 137.068C140.772 136.787 140.377 136.634 139.97 136.643C139.562 136.653 139.175 136.825 138.893 137.12C138.612 137.414 138.459 137.808 138.469 138.216L138.519 140.428L136.308 140.48C136.106 140.485 135.907 140.529 135.722 140.611C135.538 140.692 135.371 140.809 135.231 140.955C134.95 141.25 134.797 141.645 134.807 142.053C134.816 142.46 134.987 142.847 135.282 143.128C135.577 143.41 135.971 143.563 136.379 143.553L138.59 143.501L138.643 145.715C138.653 146.123 138.823 146.509 139.118 146.791C139.413 147.072 139.808 147.225 140.215 147.216C140.623 147.206 141.01 147.035 141.292 146.741C141.573 146.446 141.726 146.051 141.716 145.643L141.666 143.429L143.877 143.379C144.277 143.358 144.653 143.183 144.926 142.889C145.198 142.596 145.345 142.207 145.336 141.806C145.327 141.406 145.162 141.026 144.876 140.745C144.59 140.464 144.206 140.306 143.806 140.304Z" fill="#778463"/>
<path d="M191.598 129.355H176.997L176.95 95.1186C176.946 93.5539 176.321 92.0554 175.214 90.9502C174.106 89.845 172.606 89.2238 171.041 89.2227L133.475 89.275C132.577 85.9407 130.607 82.9946 127.868 80.892C125.129 78.7893 121.774 77.6467 118.32 77.6412H102.64L94.3724 71.6477C97.3803 69.8611 99.958 67.4344 101.922 64.5395C103.887 61.6446 105.19 58.3531 105.739 54.898C107.296 48.9509 108.271 42.8664 108.65 36.7308C108.72 35.6797 108.793 34.5043 108.905 33.1063C109.704 24.0396 106.611 18.8808 99.342 17.2558C94.6163 9.98437 84.8958 6.71155 74.5594 8.92304C64.5068 11.0715 57.1786 17.8045 55.8773 26.1439C54.8262 34.5905 55.8352 44.3243 58.9506 55.8926C59.6171 59.1555 60.9591 62.242 62.8902 64.9552C64.8214 67.6684 67.299 69.9474 70.1637 71.6456L61.8938 77.6412H46.2136C43.4589 77.6474 40.7545 78.38 38.3727 79.7639C35.9908 81.1478 34.0156 83.1343 32.6461 85.5244C27.6589 85.8591 22.9004 87.7409 19.0327 90.9071C15.165 94.0732 12.3808 98.3669 11.0676 103.19C9.75451 108.012 9.97779 113.124 11.7064 117.814C13.4351 122.503 16.583 126.538 20.712 129.355H2.40199C1.84445 129.355 1.30979 129.577 0.91555 129.971C0.521314 130.365 0.299805 130.9 0.299805 131.457C0.299805 132.015 0.521314 132.549 0.91555 132.944C1.30979 133.338 1.84445 133.559 2.40199 133.559C73.9539 133.559 42.4191 133.559 63.4472 133.559H63.4788H64.0884C64.6459 133.559 65.1806 133.338 65.5749 132.944C65.9691 132.549 66.1906 132.015 66.1906 131.457C66.1906 130.9 65.9691 130.365 65.5749 129.971C65.1806 129.577 64.6459 129.355 64.0884 129.355H47.8532C51.861 126.622 54.9478 122.74 56.7077 118.22C58.4676 113.7 58.8182 108.752 57.7134 104.028C56.6086 99.3049 54.1 95.0268 50.5177 91.756C46.9354 88.4851 42.4471 86.3748 37.643 85.703C38.7171 84.4911 40.036 83.5205 41.5126 82.8556C42.9892 82.1907 44.59 81.8466 46.2094 81.8455H60.8216C62.1638 87.7688 65.6809 92.9725 70.6766 96.4263C71.757 97.2029 73.0544 97.6197 74.3849 97.6181C75.5186 97.6138 76.6319 97.3162 77.6157 96.7528C78.5996 96.1894 79.4203 95.3799 79.9977 94.4042L82.2534 90.5889L84.509 94.4042C85.0866 95.3798 85.9073 96.1883 86.8912 96.7517C87.875 97.3151 88.9881 97.6136 90.1218 97.6181C91.4524 97.62 92.7498 97.2032 93.8301 96.4263C98.8248 92.9711 102.342 87.7682 103.687 81.8455H118.308C120.638 81.8508 122.912 82.5653 124.827 83.8933C126.742 85.2214 128.207 87.1004 129.029 89.2812L113.229 89.3017C111.664 89.3056 110.164 89.9304 109.058 91.0385C107.952 92.1466 107.331 93.6476 107.33 95.2131L107.379 129.355H79.1548C78.5972 129.355 78.0625 129.577 77.6683 129.971C77.274 130.365 77.0526 130.9 77.0526 131.457C77.0526 132.015 77.274 132.549 77.6683 132.944C78.0625 133.338 78.5972 133.559 79.1548 133.559H79.7854H79.8148C100.458 133.559 102.584 133.559 147.621 133.559C147.682 133.55 147.743 133.537 147.804 133.521H148.033C148.59 133.521 149.125 133.3 149.519 132.906C149.913 132.511 150.135 131.977 150.135 131.419C150.135 130.862 149.913 130.327 149.519 129.933C149.125 129.539 148.59 129.317 148.033 129.317L111.587 129.355L111.537 95.209C111.537 94.7581 111.716 94.3262 112.034 94.007C112.352 93.6878 112.784 93.5072 113.235 93.5061L171.045 93.427C171.496 93.427 171.928 93.6049 172.247 93.9228C172.566 94.2408 172.746 94.6722 172.748 95.1227L172.794 129.279L159.725 129.299C159.181 129.352 158.679 129.612 158.321 130.025C157.964 130.438 157.778 130.973 157.802 131.519C157.826 132.065 158.059 132.58 158.452 132.96C158.844 133.34 159.368 133.554 159.914 133.559H191.598C192.156 133.559 192.691 133.338 193.085 132.944C193.479 132.549 193.7 132.015 193.7 131.457C193.7 130.9 193.479 130.365 193.085 129.971C192.691 129.577 192.156 129.355 191.598 129.355ZM54.1409 109.506C54.1332 114.75 52.0543 119.777 48.3567 123.495C44.6592 127.213 39.6425 129.319 34.3993 129.355H34.1555C30.2339 129.329 26.4077 128.143 23.1596 125.945C19.9115 123.748 17.3869 120.637 15.9043 117.007C14.4217 113.376 14.0474 109.387 14.8287 105.544C15.61 101.701 17.5118 98.1757 20.2943 95.4122C23.0769 92.6487 26.6155 90.771 30.4638 90.0161C34.3121 89.2612 38.2978 89.6634 41.9182 91.1709C45.5385 92.6784 48.6314 95.2244 50.8066 98.4875C52.9819 101.751 54.142 105.585 54.1409 109.506ZM60.027 26.7269C61.0487 20.1912 67.0945 14.8156 75.4255 13.033C77.1914 12.659 78.9915 12.4701 80.7966 12.4694C86.3526 12.4694 92.3838 14.2862 95.804 19.5458C96.115 20.0264 96.5178 20.4406 96.9893 20.7653C97.4608 21.0899 97.9917 21.3185 98.5516 21.4376C102.195 22.2238 105.461 24.1366 104.703 32.745C104.589 34.185 104.511 35.3731 104.442 36.4536C104.308 39.2462 103.996 42.0273 103.509 44.7802C102.224 40.104 100.457 35.5736 98.2363 31.2628C97.6721 30.2873 96.7453 29.574 95.6578 29.2787C94.5703 28.9834 93.4101 29.13 92.43 29.6862C88.6268 31.5455 84.3517 32.2165 80.1617 31.6118C69.3418 30.2622 65.1731 34.9204 63.5544 39.1101C62.8586 41.1029 61.9652 44.0885 61.1517 46.9306C59.716 40.2942 59.3393 33.4719 60.0354 26.7177L60.027 26.7269ZM63.1571 55.4656C63.7436 53.2815 66.1002 44.5744 67.5087 40.5676C68.0762 39.0961 69.821 34.5804 79.7013 35.8018C84.7918 36.5226 89.9809 35.6686 94.5721 33.3547C97.8694 40.0835 100.192 47.2476 101.469 54.6311L101.455 54.6917C101.421 54.8576 101.407 55.0275 101.415 55.1967C100.501 59.5755 98.1155 63.5092 94.6546 66.343C91.1936 69.1767 86.8664 70.7397 82.3935 70.7711C77.9205 70.8026 73.5718 69.3002 70.0713 66.5154C66.5709 63.7306 64.1299 59.8312 63.155 55.4656H63.1571ZM76.382 92.2538C76.2267 92.5248 76.0173 92.7603 75.7666 92.9467C75.516 93.133 75.2296 93.2661 74.9253 93.3367C74.6211 93.4073 74.3055 93.4141 73.9984 93.3572C73.6912 93.3004 73.3991 93.1811 73.1404 93.0062C68.8931 90.1124 65.9263 85.6912 64.8578 80.6641L71.6247 75.7597C73.0208 80.2272 75.7703 84.1512 79.4932 86.9881L76.382 92.2538ZM82.2555 83.7886C78.9952 81.3519 76.6258 77.9111 75.5117 73.9962C79.9093 75.3156 84.5974 75.3156 88.9951 73.9962C87.8853 77.9104 85.5203 81.3519 82.2639 83.7907L82.2555 83.7886ZM91.3663 93.0062C91.1078 93.1814 90.8159 93.3012 90.5088 93.3583C90.2018 93.4153 89.8863 93.4084 89.5821 93.3377C89.278 93.2671 88.9917 93.1342 88.7413 92.9477C88.4908 92.7611 88.2817 92.525 88.1269 92.2538L85.0156 86.9984C88.7379 84.16 91.4873 80.2356 92.8841 75.7679L99.651 80.6723C98.5825 85.696 95.6181 90.1146 91.3747 93.0082L91.3663 93.0062Z" fill="#778463"/>
<path d="M40.2847 109.826L45.15 104.958C45.925 104.202 46.4093 103.199 46.5183 102.124C46.6272 101.049 46.3539 99.9694 45.7461 99.0745C45.3688 98.545 44.8799 98.1039 44.3137 97.7828C43.7474 97.4616 43.1177 97.2679 42.4684 97.2151C41.8192 97.1623 41.1661 97.2518 40.5552 97.4773C39.9443 97.7027 39.3902 98.0586 38.9319 98.5201L33.9415 103.496L28.9598 98.5274C28.502 98.0643 27.9481 97.7068 27.3368 97.4801C26.7256 97.2533 26.0719 97.1626 25.4218 97.2147C24.7718 97.2669 24.141 97.4605 23.574 97.7817C23.0069 98.103 22.5175 98.5444 22.1398 99.0745C21.5316 99.969 21.258 101.048 21.3669 102.123C21.4758 103.198 21.9605 104.201 22.7358 104.957L27.5984 109.825L22.7472 114.662C22.3129 115.066 21.9634 115.552 21.7189 116.092C21.4744 116.632 21.3399 117.215 21.3231 117.807C21.3063 118.399 21.4076 118.989 21.6211 119.541C21.8346 120.094 22.1559 120.599 22.5667 121.027C22.9775 121.455 23.4695 121.798 24.014 122.035C24.5585 122.272 25.1447 122.398 25.7388 122.408C26.3328 122.417 26.9228 122.308 27.4744 122.088C28.0261 121.869 28.5286 121.542 28.9526 121.127L33.9415 116.151L38.9319 121.127C39.3691 121.558 39.8901 121.896 40.463 122.119C41.0358 122.342 41.6482 122.445 42.2628 122.424C42.8774 122.402 43.481 122.255 44.0365 121.992C44.5921 121.729 45.0878 121.356 45.4933 120.895C46.2321 120.002 46.606 118.864 46.54 117.709C46.474 116.553 45.973 115.465 45.1372 114.662L40.2847 109.826ZM43.3264 119.019C43.1793 119.184 43.0004 119.317 42.8004 119.41C42.6005 119.504 42.3835 119.556 42.1627 119.564C41.9419 119.573 41.7217 119.536 41.5155 119.457C41.3092 119.378 41.1212 119.258 40.9626 119.105L35.4938 113.651C35.0811 113.242 34.5228 113.012 33.9408 113.012C33.3588 113.012 32.8004 113.242 32.3877 113.651L26.9219 119.101C26.7637 119.254 26.5758 119.375 26.3697 119.454C26.1636 119.533 25.9435 119.57 25.7226 119.562C25.5018 119.554 25.285 119.502 25.0851 119.408C24.8852 119.314 24.7065 119.181 24.5597 119.016C24.3014 118.669 24.181 118.239 24.2215 117.809C24.2621 117.379 24.4607 116.979 24.7793 116.686L30.1057 111.374C30.5171 110.963 30.7482 110.406 30.7482 109.826C30.7482 109.245 30.5171 108.688 30.1057 108.277L24.7678 102.939C24.4732 102.664 24.2826 102.297 24.2282 101.898C24.1738 101.5 24.2588 101.094 24.4691 100.751C24.603 100.558 24.7782 100.397 24.9818 100.28C25.1855 100.163 25.4127 100.092 25.6471 100.073C25.8815 100.054 26.1171 100.086 26.3373 100.169C26.5574 100.251 26.7566 100.381 26.9205 100.549L32.3848 105.999C32.8034 106.399 33.3606 106.622 33.9401 106.622C34.5197 106.622 35.0768 106.399 35.4954 105.999L40.9682 100.543C41.1305 100.378 41.3276 100.25 41.5453 100.168C41.763 100.087 41.9961 100.055 42.2277 100.074C42.4634 100.092 42.6919 100.162 42.897 100.28C43.1022 100.397 43.2786 100.558 43.4138 100.751C43.6241 101.094 43.7091 101.5 43.6547 101.898C43.6003 102.297 43.4097 102.664 43.1151 102.939L37.7729 108.279C37.3631 108.69 37.1331 109.246 37.1331 109.826C37.1331 110.406 37.3631 110.963 37.7729 111.374L43.1007 116.686C43.4207 116.979 43.6208 117.379 43.6624 117.81C43.704 118.24 43.5844 118.671 43.3264 119.019Z" fill="#778463"/>
<path d="M150.176 122.122C149.586 122.122 149.291 121.806 149.291 121.175V104.948C149.291 104.316 149.586 104 150.176 104H154.902C157.935 104 160.037 104.493 161.208 105.479C162.388 106.464 162.978 107.863 162.978 109.674C162.978 111.486 162.388 112.884 161.208 113.87C160.037 114.856 157.935 115.349 154.902 115.349H152.981V121.175C152.981 121.806 152.686 122.122 152.097 122.122H150.176ZM152.981 112.265H154.889C156.574 112.265 157.72 112.067 158.327 111.671C158.934 111.267 159.237 110.601 159.237 109.674C159.237 108.748 158.934 108.086 158.327 107.69C157.72 107.286 156.574 107.084 154.889 107.084H152.981V112.265Z" fill="#778463"/>
<path d="M142.442 122.122C141.852 122.122 141.557 121.806 141.557 121.175V104.948C141.557 104.316 141.852 104 142.442 104H144.363C144.952 104 145.247 104.316 145.247 104.948V121.175C145.247 121.806 144.952 122.122 144.363 122.122H142.442Z" fill="#778463"/>
<path d="M123.081 104.834C122.871 104.278 123.069 104 123.675 104H125.685C126.249 104 126.637 104.291 126.847 104.872L130.715 115.424C130.908 115.964 131.022 116.326 131.056 116.511C131.089 116.688 131.127 116.987 131.17 117.409H131.22C131.262 116.987 131.3 116.688 131.334 116.511C131.367 116.326 131.481 115.964 131.675 115.424L135.542 104.872C135.753 104.291 136.14 104 136.705 104H138.714C139.321 104 139.519 104.278 139.308 104.834L133.267 121.099C133.015 121.781 132.619 122.122 132.079 122.122H130.31C129.771 122.122 129.375 121.781 129.122 121.099L123.081 104.834Z" fill="#778463"/>
</svg>
