<svg width="118" height="90" viewBox="0 0 118 90" fill="none" xmlns="http://www.w3.org/2000/svg">
<path d="M105.006 30.6346C99.576 34.3071 93.1908 36.4335 87.91 40.3137C82.6291 44.1939 78.469 50.8718 80.4205 57.1367C81.7427 61.3854 85.5469 64.3978 87.411 68.4414C88.5496 71.1534 88.871 74.1388 88.3358 77.031C87.8005 79.9231 86.432 82.5959 84.3983 84.7208C82.3113 86.7907 79.7542 88.3244 76.9454 89.1909C74.1367 90.0574 71.1599 90.2311 68.2695 89.6967C62.4526 88.5259 57.3118 85.155 53.9188 80.2872C51.6393 77.1124 50.1045 73.4701 47.8933 70.2396C45.6822 67.009 42.539 64.1166 38.669 63.5632C31.1365 62.4906 24.7298 70.5105 17.1403 69.9799C12.3065 69.6443 8.18822 65.5476 7.14724 60.8214C6.71511 58.43 6.83626 55.9717 7.50139 53.6343C8.16651 51.2969 9.35795 49.1426 10.9844 47.337C14.2854 43.7513 18.542 41.1835 23.2532 39.9353C26.4407 38.9918 29.7358 38.4822 32.8461 37.3438C36.0494 36.3603 38.7777 34.2308 40.509 31.3618C44.3247 24.0775 37.5609 14.8096 40.509 7.1353C41.4674 4.96199 43.0512 3.12329 45.0584 1.85331C47.0656 0.583342 49.4055 -0.0602196 51.7799 0.00443461C54.1511 0.126178 56.4685 0.755127 58.5758 1.84899C60.6832 2.94284 62.5313 4.47594 63.9955 6.34504C65.7684 8.48017 68.0821 17.4111 70.2173 18.0721C72.7108 18.8421 81.0018 10.6155 83.3218 9.10846C88.4596 5.78166 94.4104 3.22344 100.512 3.67808C106.613 4.13271 112.727 8.31694 113.854 14.3336C115.054 20.7719 110.425 26.9608 105.006 30.6346Z" fill="#EDEFE9"/>
<path d="M47.1216 86.0454C47.1189 85.8352 47.1994 85.6325 47.3455 85.4814C47.4917 85.3303 47.6916 85.2434 47.9017 85.239L49.0415 85.2236L49.0276 84.0839C49.0249 83.8737 49.1058 83.6712 49.2526 83.5206C49.3994 83.37 49.5999 83.284 49.8102 83.2813C50.0204 83.2786 50.2232 83.3596 50.3737 83.5064C50.5243 83.6532 50.6104 83.8533 50.6131 84.0635L50.6283 85.2032L51.768 85.1883C51.9734 85.1932 52.1689 85.2773 52.3134 85.4233C52.4579 85.5693 52.5401 85.7657 52.5429 85.9712C52.5457 86.1766 52.4688 86.3753 52.3283 86.5252C52.1878 86.6751 51.9947 86.7645 51.7896 86.775L50.6498 86.7892L50.665 87.9289C50.6677 88.1391 50.5867 88.3416 50.44 88.4922C50.2932 88.6428 50.0926 88.7288 49.8824 88.7315C49.6721 88.7342 49.4694 88.6532 49.3189 88.5064C49.1683 88.3596 49.0822 88.1595 49.0795 87.9493L49.0643 86.809L47.9245 86.8245C47.7151 86.8265 47.5134 86.7458 47.363 86.6C47.2127 86.4542 47.126 86.2547 47.1216 86.0454Z" fill="#EDEFE9"/>
<path d="M6.84872 10.4757C6.84566 10.2656 6.92585 10.0629 7.07177 9.91172C7.21769 9.76058 7.41749 9.67304 7.62753 9.66871L8.7673 9.65387L8.75209 8.51424C8.7494 8.30399 8.83036 8.10088 8.97713 7.95031C9.1239 7.79973 9.32448 7.71369 9.53473 7.711C9.74498 7.70832 9.94769 7.78931 10.0983 7.93608C10.2488 8.08285 10.3349 8.28359 10.3376 8.49384L10.3528 9.63347L11.4926 9.61801C11.6979 9.62294 11.8934 9.70759 12.0379 9.8536C12.1824 9.99961 12.2647 10.1961 12.2675 10.4015C12.2703 10.6069 12.1933 10.805 12.0528 10.9549C11.9124 11.1048 11.7192 11.1948 11.5141 11.2053L10.3743 11.2202L10.3883 12.3598C10.391 12.57 10.31 12.7732 10.1633 12.9237C10.0165 13.0743 9.8159 13.1603 9.60565 13.163C9.3954 13.1657 9.19269 13.0847 9.04212 12.938C8.89154 12.7912 8.80544 12.5904 8.80276 12.3802L8.78755 11.2406L7.6478 11.256C7.43883 11.2571 7.23785 11.1757 7.08831 11.0297C6.93877 10.8837 6.85271 10.6846 6.84872 10.4757Z" fill="#EDEFE9"/>
<path d="M86.3869 11.6191L86.3616 27.2338L86.3236 50.4592L86.2729 79.5101H28.0444L28.0697 44.4314V41.2525L28.095 26.8665V17.6344L22.8901 5.3125H80.402C82.0311 5.35759 83.5759 6.04661 84.6978 7.22878C85.8197 8.41095 86.4271 9.98982 86.3869 11.6191Z" fill="white"/>
<path d="M86.3885 11.6191L86.3631 27.2338L86.2745 79.5107H81.9308L82.0194 27.2338L82.0447 11.6191C82.088 9.99026 81.4826 8.41141 80.3617 7.22878C79.2409 6.04615 77.6962 5.35658 76.0674 5.3125H80.3985C82.0285 5.35628 83.5746 6.04522 84.6976 7.22754C85.8205 8.40986 86.4286 9.98897 86.3885 11.6191Z" fill="#EDEFE9"/>
<g opacity="0.3">
<g opacity="0.3">
<g opacity="0.3">
<g opacity="0.3">
<path opacity="0.3" d="M86.3239 50.4609L86.2732 79.5118H77.1299C76.6697 79.1257 76.2301 78.716 75.8128 78.2838C73.6501 76.0413 72.1684 73.2311 71.5402 70.1796C70.9119 67.1281 71.1629 63.961 72.264 61.0465C73.365 58.1321 75.2708 55.5898 77.7598 53.716C80.2488 51.8421 83.2186 50.7132 86.3239 50.4609Z" fill="#EDEFE9"/>
</g>
</g>
</g>
</g>
<path d="M78.7838 73.1656H35.6404C35.3045 73.1656 34.9824 73.0321 34.7449 72.7946C34.5074 72.5571 34.374 72.2351 34.374 71.8992C34.374 71.5633 34.5074 71.2413 34.7449 71.0038C34.9824 70.7663 35.3045 70.6328 35.6404 70.6328H78.7838C79.1196 70.6328 79.4417 70.7663 79.6792 71.0038C79.9167 71.2413 80.0502 71.5633 80.0502 71.8992C80.0502 72.2351 79.9167 72.5571 79.6792 72.7946C79.4417 73.0321 79.1196 73.1656 78.7838 73.1656Z" fill="#EDEFE9"/>
<path d="M78.7838 64.8609H35.6404C35.3045 64.8609 34.9824 64.728 34.7449 64.4905C34.5074 64.253 34.374 63.9304 34.374 63.5945C34.374 63.2586 34.5074 62.9366 34.7449 62.6991C34.9824 62.4616 35.3045 62.3281 35.6404 62.3281H78.7838C79.1196 62.3281 79.4417 62.4616 79.6792 62.6991C79.9167 62.9366 80.0502 63.2586 80.0502 63.5945C80.0502 63.9304 79.9167 64.253 79.6792 64.4905C79.4417 64.728 79.1196 64.8609 78.7838 64.8609Z" fill="#EDEFE9"/>
<path d="M78.7838 23.3375H35.6404C35.3045 23.3375 34.9824 23.2039 34.7449 22.9665C34.5074 22.729 34.374 22.4069 34.374 22.0711C34.374 21.7352 34.5074 21.4126 34.7449 21.1751C34.9824 20.9376 35.3045 20.8047 35.6404 20.8047H78.7838C79.1196 20.8047 79.4417 20.9376 79.6792 21.1751C79.9167 21.4126 80.0502 21.7352 80.0502 22.0711C80.0502 22.4069 79.9167 22.729 79.6792 22.9665C79.4417 23.2039 79.1196 23.3375 78.7838 23.3375Z" fill="#EDEFE9"/>
<path d="M78.7838 15.0328H35.6404C35.3045 15.0328 34.9824 14.8993 34.7449 14.6618C34.5074 14.4243 34.374 14.1023 34.374 13.7664C34.374 13.4305 34.5074 13.1085 34.7449 12.871C34.9824 12.6335 35.3045 12.5 35.6404 12.5H78.7838C79.1196 12.5 79.4417 12.6335 79.6792 12.871C79.9167 13.1085 80.0502 13.4305 80.0502 13.7664C80.0502 14.1023 79.9167 14.4243 79.6792 14.6618C79.4417 14.8993 79.1196 15.0328 78.7838 15.0328Z" fill="#EDEFE9"/>
<path d="M28.1 10.4886V24.9964H20.2408C19.5691 24.9964 18.9248 24.73 18.4498 24.255C17.9749 23.78 17.708 23.1354 17.708 22.4636V10.4886C17.708 9.11153 18.255 7.79114 19.2288 6.81741C20.2025 5.84369 21.5232 5.29688 22.9002 5.29688C23.5827 5.29588 24.2587 5.42905 24.8895 5.68954C25.5203 5.95002 26.0936 6.3327 26.5766 6.81494C27.0595 7.29718 27.4426 7.86951 27.704 8.49996C27.9654 9.1304 28.1 9.80609 28.1 10.4886Z" fill="white"/>
<path d="M28.1005 10.4969V24.9929H22.8931V10.4969C22.895 9.81278 22.7618 9.1351 22.501 8.50267C22.2402 7.87024 21.857 7.29534 21.3734 6.81147C21.0539 6.49798 20.6981 6.22374 20.3135 5.99463C21.0959 5.53338 21.9874 5.28967 22.8956 5.28908C23.58 5.28708 24.2581 5.42075 24.8908 5.68174C25.5235 5.94273 26.0983 6.32629 26.5823 6.81024C27.0662 7.29419 27.4497 7.86874 27.7107 8.50144C27.9717 9.13413 28.105 9.81246 28.103 10.4969H28.1005Z" fill="#EDEFE9"/>
<path d="M43.0551 46.1731L44.4405 40.8682C44.4554 40.8115 44.486 40.7604 44.5289 40.7204C44.5718 40.6805 44.6252 40.6533 44.6828 40.6425C44.7405 40.6317 44.7999 40.6374 44.8544 40.6592C44.9088 40.681 44.9559 40.718 44.9902 40.7656L48.1739 45.1701C48.2052 45.2131 48.2248 45.2632 48.231 45.316C48.2371 45.3689 48.2295 45.4228 48.2088 45.4718C48.1882 45.5209 48.1553 45.5636 48.1132 45.5961C48.0711 45.6287 48.0214 45.6497 47.9687 45.6574L47.0709 45.7841C47.0253 45.7908 46.9817 45.8076 46.9433 45.833C46.9048 45.8583 46.8724 45.8914 46.8482 45.9307C46.8241 45.9699 46.8088 46.0141 46.8035 46.0599C46.7982 46.1057 46.803 46.1522 46.8176 46.1959C47.4275 48.2328 48.6258 50.0437 50.2617 51.4019C51.8977 52.76 53.8985 53.6047 56.0128 53.8295V33.1406H58.367V54.0552C60.4071 53.682 62.3203 52.8006 63.9298 51.4928C65.5394 50.1849 66.7935 48.4924 67.5762 46.5719C67.5937 46.532 67.6027 46.4893 67.6028 46.4458C67.6028 46.4022 67.5939 46.3589 67.5765 46.319C67.5592 46.2791 67.5338 46.2429 67.5019 46.2133C67.4701 46.1836 67.4324 46.1609 67.3913 46.1465L66.3466 45.7891C66.2993 45.7727 66.2567 45.7451 66.2224 45.7087C66.1882 45.6723 66.1632 45.6282 66.1496 45.5801C66.1361 45.5319 66.1343 45.4812 66.1446 45.4323C66.1549 45.3833 66.1768 45.338 66.2085 45.2993L69.743 41.011C69.7802 40.9658 69.8295 40.9323 69.8852 40.914C69.9409 40.8956 70.0006 40.8934 70.0574 40.9078C70.1142 40.9221 70.1658 40.9524 70.2061 40.995C70.2464 41.0375 70.2738 41.0908 70.285 41.1483L71.3741 46.6226C71.384 46.6725 71.3814 46.7242 71.3667 46.7729C71.3519 46.8215 71.3254 46.8655 71.2895 46.9015C71.2536 46.9375 71.2094 46.9645 71.1608 46.9794C71.1122 46.9943 71.0606 46.9971 71.0107 46.9874L69.9482 46.7747C69.8726 46.7607 69.7945 46.775 69.7292 46.8155C69.6638 46.856 69.6159 46.9197 69.5949 46.9936C68.174 51.7768 65.222 54.0971 61.1708 55.6345C59.6143 56.2305 58.2104 57.1658 57.0614 58.3732C55.7405 57.0196 54.142 55.9689 52.3758 55.2925C51.6333 55.0194 50.9232 54.6652 50.2584 54.2364C47.4869 52.4998 45.4882 49.765 44.6748 46.5972C44.6553 46.5227 44.6083 46.458 44.5432 46.4167C44.4782 46.3753 44.3999 46.3606 44.324 46.3746L43.4085 46.5503C43.3579 46.5591 43.306 46.5554 43.2573 46.5391C43.2087 46.5229 43.1649 46.4949 43.1298 46.4575C43.0948 46.4201 43.0696 46.3742 43.0565 46.3246C43.0435 46.2749 43.043 46.2229 43.0551 46.1731Z" fill="#EDEFE9"/>
<path d="M63.1363 39.6386H51.212C50.9097 39.6386 50.6198 39.5185 50.4061 39.3047C50.1924 39.091 50.0723 38.8013 50.0723 38.499C50.0723 38.1967 50.1924 37.907 50.4061 37.6933C50.6198 37.4795 50.9097 37.3594 51.212 37.3594H63.1363C63.4386 37.3594 63.7285 37.4795 63.9423 37.6933C64.156 37.907 64.2761 38.1967 64.2761 38.499C64.2761 38.8013 64.156 39.091 63.9423 39.3047C63.7285 39.5185 63.4386 39.6386 63.1363 39.6386Z" fill="#EDEFE9"/>
<path d="M57.1842 32.5851C56.787 32.5899 56.3973 32.4765 56.0647 32.2592C55.7321 32.042 55.4716 31.7307 55.3162 31.3651C55.1609 30.9995 55.1178 30.5959 55.1923 30.2057C55.2669 29.8155 55.4558 29.4562 55.735 29.1736C56.0142 28.8911 56.3711 28.6976 56.7604 28.6184C57.1496 28.5391 57.5537 28.5775 57.9212 28.7284C58.2887 28.8793 58.603 29.1362 58.8242 29.4661C59.0454 29.7961 59.1636 30.1844 59.1636 30.5816C59.163 31.1086 58.955 31.6141 58.5846 31.989C58.2142 32.3639 57.7112 32.5781 57.1842 32.5851Z" fill="white"/>
<path d="M100.301 67.0768C100.257 69.5786 99.4722 72.0115 98.0456 74.0673C96.6191 76.123 94.615 77.7096 92.2867 78.6264C89.9585 79.5431 87.4107 79.7488 84.9655 79.2175C82.5203 78.6862 80.2876 77.4418 78.5497 75.6416C76.8118 73.8413 75.6468 71.5661 75.202 69.1037C74.7572 66.6414 75.0526 64.1023 76.0507 61.8078C77.0489 59.5133 78.7051 57.5661 80.8099 56.2129C82.9146 54.8597 85.3734 54.1609 87.8752 54.2051C91.2296 54.265 94.4228 55.6549 96.753 58.0686C99.0831 60.4823 100.359 63.7224 100.301 67.0768Z" fill="white"/>
<path d="M100.3 67.0849C100.24 70.4395 98.8505 73.6328 96.4368 75.9632C94.023 78.2936 90.7826 79.5702 87.428 79.5119C86.8137 79.5017 86.2009 79.4474 85.5942 79.3505C88.6069 78.9613 91.3791 77.5016 93.4048 75.2379C95.4305 72.9741 96.5744 70.0578 96.6279 67.0206C96.6814 63.9833 95.6407 61.028 93.696 58.6944C91.7512 56.3608 89.0321 54.8041 86.0349 54.3091C86.6448 54.2335 87.2593 54.2018 87.8737 54.2132C91.2282 54.2728 94.4217 55.6623 96.7519 58.0761C99.0821 60.4899 100.358 63.7304 100.3 67.0849Z" fill="#EDEFE9"/>
<path d="M108.301 13.2611C108.307 13.0168 108.217 12.7796 108.05 12.6014C107.883 12.4231 107.652 12.3175 107.408 12.3083L106.077 12.2656L106.12 10.933C106.128 10.6875 106.038 10.4489 105.87 10.2695C105.702 10.0902 105.47 9.98512 105.225 9.97706C104.979 9.969 104.74 10.059 104.561 10.2269C104.382 10.3948 104.277 10.6269 104.268 10.8724L104.225 12.205L102.893 12.1617C102.772 12.1577 102.65 12.1776 102.537 12.2205C102.423 12.2633 102.318 12.3284 102.23 12.4115C102.141 12.4947 102.069 12.5945 102.019 12.7052C101.969 12.816 101.941 12.9355 101.937 13.0571C101.933 13.1787 101.953 13.2994 101.996 13.4133C102.039 13.5271 102.104 13.6318 102.187 13.7206C102.27 13.8094 102.37 13.8806 102.48 13.9308C102.591 13.981 102.711 14.0091 102.832 14.0131L104.165 14.0563L104.122 15.3833C104.118 15.6261 104.209 15.8605 104.377 16.0363C104.544 16.2121 104.774 16.3153 105.017 16.3232C105.259 16.3312 105.495 16.2434 105.674 16.079C105.853 15.9145 105.96 15.6864 105.972 15.4439L106.016 14.112L107.348 14.1547C107.593 14.1608 107.83 14.071 108.008 13.9036C108.186 13.7363 108.291 13.5055 108.301 13.2611Z" fill="#5F6B4E"/>
<path d="M2.57731 43.5665L3.90955 43.611L3.86522 44.943C3.85716 45.1885 3.94695 45.4272 4.11486 45.6065C4.28277 45.7858 4.51504 45.8915 4.76056 45.8996C5.00608 45.9076 5.24475 45.8177 5.42405 45.6497C5.60336 45.4818 5.70863 45.2497 5.71669 45.0042L5.75974 43.6704L7.09199 43.7149C7.33751 43.723 7.57617 43.633 7.75548 43.4651C7.93479 43.2972 8.04004 43.0651 8.0481 42.8195C8.05616 42.574 7.96637 42.3354 7.79846 42.156C7.63055 41.9767 7.39828 41.8716 7.15276 41.8636L5.82054 41.8203L5.86484 40.4877C5.87291 40.2422 5.78311 40.0035 5.6152 39.8242C5.44729 39.6449 5.21503 39.5398 4.96951 39.5317C4.72399 39.5237 4.48532 39.6137 4.30601 39.7816C4.1267 39.9495 4.02146 40.1816 4.0134 40.4271L3.96907 41.7597L2.63682 41.7164C2.39426 41.713 2.16006 41.8049 1.98462 41.9724C1.80918 42.1399 1.70652 42.3699 1.69872 42.6124C1.69092 42.8549 1.77861 43.0906 1.94291 43.2691C2.10722 43.4476 2.33503 43.5543 2.57731 43.5665Z" fill="#5F6B4E"/>
<path d="M115.987 78.2422H108.15C107.814 78.2422 107.492 78.3751 107.254 78.6126C107.017 78.8501 106.883 79.1727 106.883 79.5086C106.883 79.8444 107.017 80.1665 107.254 80.404C107.492 80.6414 107.814 80.775 108.15 80.775H115.987C116.323 80.775 116.645 80.6414 116.883 80.404C117.12 80.1665 117.254 79.8444 117.254 79.5086C117.254 79.1727 117.12 78.8501 116.883 78.6126C116.645 78.3751 116.323 78.2422 115.987 78.2422Z" fill="#5F6B4E"/>
<path d="M100.606 78.2457H95.6227C98.0329 76.5638 99.8481 74.1612 100.808 71.3832C101.767 68.6053 101.822 65.5947 100.964 62.7838C100.106 59.9729 98.3789 57.5059 96.0314 55.7376C93.6838 53.9694 90.8364 52.9904 87.8978 52.9414C87.8142 52.9414 87.7331 52.9507 87.6445 52.9507V11.6218C87.6887 9.65395 86.9506 7.74937 85.5922 6.32495C84.2338 4.90053 82.3659 4.07257 80.3982 4.02344H22.8813C21.1713 4.02913 19.5331 4.71205 18.3252 5.9224C17.1172 7.13275 16.4377 8.77213 16.4354 10.4821V22.4572C16.4354 23.4648 16.8356 24.4308 17.5481 25.1433C18.2606 25.8558 19.2269 26.2564 20.2346 26.2564H26.8198L26.7729 78.2377H2.01248C1.67662 78.2377 1.3545 78.3712 1.11701 78.6087C0.879516 78.8462 0.746094 79.1682 0.746094 79.5041C0.746094 79.84 0.879516 80.162 1.11701 80.3995C1.3545 80.637 1.67662 80.7705 2.01248 80.7705H38.6808C38.6985 80.7705 38.7125 80.7618 38.7302 80.7606H38.9189C39.2547 80.7606 39.5768 80.6271 39.8143 80.3896C40.0518 80.1521 40.1852 79.8301 40.1852 79.4942C40.1852 79.1583 40.0518 78.8363 39.8143 78.5988C39.5768 78.3613 39.2547 78.2278 38.9189 78.2278H29.2943L29.3513 10.476C29.3454 9.05133 28.8636 7.6694 27.9823 6.55003H80.402C81.6979 6.5992 82.9216 7.16011 83.805 8.10952C84.6884 9.05894 85.1596 10.3195 85.1155 11.6156V53.1783C82.422 53.6751 79.9353 54.9567 77.9675 56.8618C75.9997 58.7669 74.6384 61.211 74.0546 63.8869C73.4707 66.5629 73.6903 69.3517 74.6857 71.9033C75.6811 74.4549 77.4081 76.6554 79.6498 78.229H46.9959C46.66 78.229 46.3379 78.3626 46.1004 78.6001C45.8629 78.8375 45.7295 79.1596 45.7295 79.4954C45.7295 79.8313 45.8629 80.1533 46.1004 80.3908C46.3379 80.6283 46.66 80.7618 46.9959 80.7618H47.5797C47.5962 80.7618 47.6114 80.7717 47.6291 80.7717H100.606C100.942 80.7717 101.264 80.6382 101.501 80.4007C101.739 80.1632 101.872 79.8412 101.872 79.5053C101.872 79.1695 101.739 78.8474 101.501 78.6099C101.264 78.3725 100.942 78.2389 100.606 78.2389V78.2457ZM20.2346 23.731C19.8987 23.731 19.5766 23.5975 19.3391 23.36C19.1016 23.1225 18.9682 22.8005 18.9682 22.4646V10.4896C18.9682 9.44737 19.3822 8.44825 20.1191 7.7113C20.8561 6.97436 21.8556 6.55993 22.8978 6.55993C23.94 6.55993 24.9395 6.97436 25.6764 7.7113C26.4134 8.44825 26.8274 9.44737 26.8274 10.4896C26.816 28.585 26.8198 22.4038 26.8198 23.731H20.2346ZM76.2698 66.6621C76.3254 63.6794 77.5484 60.8371 79.676 58.7459C81.8036 56.6548 84.6663 55.4814 87.6495 55.4773H87.8521C90.1032 55.517 92.292 56.2232 94.1416 57.5068C95.9913 58.7903 97.4188 60.5937 98.2437 62.6886C99.0685 64.7834 99.2536 67.0758 98.7757 69.2759C98.2977 71.476 97.178 73.4845 95.5583 75.0482C93.9385 76.612 91.8915 77.6605 89.6759 78.0608C87.4604 78.4612 85.1759 78.1958 83.1113 77.2978C81.0467 76.3998 79.2948 74.91 78.077 73.0163C76.8592 71.1227 76.2303 68.9101 76.2698 66.659V66.6621Z" fill="#5F6B4E"/>
<path d="M51.0127 36.1953C50.5587 36.1953 50.1148 36.3301 49.7372 36.5824C49.3596 36.8347 49.0653 37.193 48.8916 37.6126C48.7178 38.0321 48.6723 38.4936 48.7609 38.939C48.8495 39.3843 49.0682 39.7933 49.3893 40.1144C49.7104 40.4355 50.1195 40.6547 50.5648 40.7433C51.0102 40.8319 51.4718 40.786 51.8914 40.6122C52.3109 40.4384 52.6695 40.1445 52.9218 39.7669C53.1741 39.3894 53.3087 38.9454 53.3087 38.4913C53.3074 37.8827 53.0651 37.2996 52.6348 36.8693C52.2045 36.439 51.6213 36.1967 51.0127 36.1953Z" fill="#5F6B4E"/>
<path d="M63.4107 40.7872C64.6787 40.7872 65.7067 39.7593 65.7067 38.4913C65.7067 37.2233 64.6787 36.1953 63.4107 36.1953C62.1427 36.1953 61.1147 37.2233 61.1147 38.4913C61.1147 39.7593 62.1427 40.7872 63.4107 40.7872Z" fill="#5F6B4E"/>
<path d="M57.1766 26.4375C56.3572 26.4355 55.5555 26.6769 54.8732 27.1307C54.1909 27.5845 53.6585 28.2305 53.3435 28.987C53.0286 29.7435 52.9451 30.5761 53.1037 31.38C53.2624 32.184 53.656 32.9233 54.2347 33.5034C54.8134 34.0836 55.5513 34.4788 56.3549 34.6394C57.1584 34.8 57.9916 34.7188 58.7489 34.4056C59.5061 34.0925 60.1535 33.5614 60.609 32.8801C61.0644 32.1989 61.3076 31.3981 61.3076 30.5786C61.3069 29.4823 60.8718 28.4306 60.0975 27.6544C59.3233 26.8783 58.2729 26.4409 57.1766 26.4375Z" fill="#5F6B4E"/>
<path d="M91.9527 67.1295L94.8836 64.1967C95.3505 63.7415 95.6423 63.1373 95.7079 62.4895C95.7735 61.8417 95.6089 61.1916 95.2427 60.6525C95.0154 60.3335 94.7209 60.0678 94.3798 59.8743C94.0387 59.6808 93.6593 59.5641 93.2682 59.5323C92.8771 59.5005 92.4837 59.5545 92.1156 59.6903C91.7476 59.8261 91.4138 60.0404 91.1377 60.3185L88.1315 63.316L85.1304 60.3229C84.8546 60.0439 84.5209 59.8285 84.1527 59.6919C83.7845 59.5553 83.3907 59.5007 82.999 59.5321C82.6074 59.5635 82.2274 59.6802 81.8859 59.8737C81.5443 60.0672 81.2494 60.3331 81.0219 60.6525C80.6555 61.1913 80.4907 61.8413 80.5563 62.489C80.6219 63.1368 80.9139 63.741 81.381 64.1959L84.3102 67.1286L81.3878 70.0426C81.1262 70.2861 80.9156 70.5789 80.7683 70.9041C80.6211 71.2294 80.54 71.5804 80.5299 71.9371C80.5198 72.2938 80.5808 72.6491 80.7094 72.9821C80.838 73.3151 81.0316 73.6193 81.2791 73.8771C81.5265 74.1349 81.8229 74.3413 82.1509 74.484C82.479 74.6268 82.8321 74.7031 83.19 74.7087C83.5478 74.7143 83.9032 74.6489 84.2356 74.5165C84.5679 74.384 84.8706 74.1871 85.126 73.9371L88.1315 70.9395L91.1377 73.9371C91.4011 74.1969 91.715 74.4002 92.0601 74.5346C92.4052 74.6689 92.7741 74.7315 93.1443 74.7184C93.5145 74.7053 93.8782 74.6167 94.2128 74.4583C94.5475 74.2999 94.8462 74.075 95.0904 73.7973C95.5355 73.2595 95.7608 72.5743 95.721 71.8781C95.6812 71.182 95.3794 70.5265 94.8759 70.0426L91.9527 67.1295ZM93.785 72.6674C93.6965 72.7665 93.5887 72.8466 93.4682 72.9031C93.3478 72.9596 93.217 72.9911 93.084 72.996C92.951 73.0008 92.8184 72.9789 92.6941 72.9313C92.5699 72.8837 92.4566 72.8114 92.3611 72.719L89.0666 69.4336C88.8179 69.1871 88.4816 69.0488 88.131 69.0488C87.7804 69.0488 87.444 69.1871 87.1954 69.4336L83.9027 72.7165C83.8074 72.8091 83.6942 72.8816 83.5701 72.9294C83.4459 72.9772 83.3133 72.9995 83.1803 72.9947C83.0472 72.9899 82.9166 72.9582 82.7962 72.9016C82.6758 72.8451 82.5681 72.765 82.4797 72.6658C82.3241 72.4568 82.2515 72.1977 82.276 71.9386C82.3004 71.6795 82.4201 71.4385 82.612 71.2622L85.8207 68.062C86.0685 67.8144 86.2078 67.4788 86.2078 67.129C86.2078 66.7793 86.0685 66.4439 85.8207 66.1963L82.605 62.9806C82.4276 62.815 82.3128 62.5935 82.28 62.3534C82.2472 62.1133 82.2984 61.8693 82.4251 61.6625C82.5058 61.5464 82.6113 61.4494 82.734 61.3788C82.8567 61.3082 82.9936 61.2655 83.1347 61.2539C83.2759 61.2423 83.4179 61.262 83.5505 61.3116C83.6832 61.3612 83.8032 61.4394 83.9019 61.5407L87.1937 64.8239C87.4459 65.0646 87.7815 65.199 88.1306 65.199C88.4797 65.199 88.8154 65.0646 89.0675 64.8239L92.3644 61.5374C92.4622 61.4375 92.5809 61.3603 92.7121 61.3114C92.8432 61.2625 92.9837 61.2431 93.1232 61.2545C93.2652 61.2656 93.4028 61.3078 93.5264 61.3784C93.65 61.4489 93.7563 61.546 93.8377 61.6625C93.9644 61.8693 94.0156 62.1133 93.9828 62.3534C93.9501 62.5935 93.8353 62.815 93.6578 62.9806L90.4396 66.1972C90.1926 66.4451 90.0541 66.7801 90.0541 67.1295C90.0541 67.4788 90.1926 67.8141 90.4396 68.062L93.6491 71.2622C93.8419 71.4383 93.9624 71.6793 93.9875 71.9388C94.0126 72.1983 93.9405 72.4579 93.785 72.6674Z" fill="#5F6B4E"/>
</svg>
