<svg width="118" height="90" viewBox="0 0 118 90" fill="none" xmlns="http://www.w3.org/2000/svg">
<path d="M103.909 30.6359C98.4786 34.3084 92.0947 36.4346 86.8126 40.3148C81.5305 44.195 77.3717 50.8714 79.3232 57.1362C80.6453 61.385 84.4496 64.399 86.3137 68.4413C87.4522 71.1535 87.7736 74.1393 87.2384 77.0316C86.7031 79.924 85.3347 82.5969 83.301 84.7221C81.2139 86.7917 78.6566 88.3251 75.8479 89.1914C73.0392 90.0577 70.0625 90.231 67.1722 89.6964C61.3549 88.5273 56.2137 85.1569 52.8215 80.2885C50.542 77.1124 49.0071 73.4714 46.796 70.2409C44.5849 67.0103 41.4404 64.1166 37.5716 63.5645C30.0379 62.4906 23.6325 70.5119 16.043 69.9813C11.2092 69.6444 7.08961 65.5489 6.0499 60.8215C5.618 58.4303 5.73918 55.972 6.40407 53.6349C7.06896 51.2978 8.25991 49.144 9.88579 47.3382C13.1878 43.7529 17.4446 41.1846 22.1559 39.935C25.3421 38.9928 28.6373 38.4824 31.7488 37.3452C34.9524 36.3616 37.6808 34.2311 39.4117 31.3615C43.2273 24.0785 36.4635 14.811 39.4117 7.1367C40.3698 4.96305 41.9534 3.12386 43.9607 1.85363C45.968 0.583403 48.308 -0.0602761 50.6826 0.00444228C53.0538 0.126185 55.3712 0.755135 57.4785 1.84899C59.5858 2.94285 61.434 4.47611 62.8982 6.3452C64.6711 8.48034 66.9848 17.4122 69.1199 18.0732C71.6122 18.8432 79.9045 10.6167 82.2245 9.10971C87.361 5.78164 93.3118 3.22358 99.4146 3.67948C105.517 4.13538 111.63 8.31822 112.757 14.3336C113.956 20.7719 109.329 26.9608 103.909 30.6359Z" fill="#DBDFD3"/>
<path d="M46.025 86.0481C46.0223 85.838 46.1028 85.6354 46.249 85.4845C46.3951 85.3336 46.5951 85.2467 46.8051 85.2427L47.9449 85.2274L47.9297 84.0878C47.9346 83.8824 48.0189 83.6869 48.1649 83.5424C48.311 83.3979 48.5072 83.3156 48.7126 83.3128C48.9181 83.31 49.1166 83.3869 49.2665 83.5274C49.4163 83.6679 49.5059 83.861 49.5164 84.0661L49.5317 85.2059L50.6714 85.1908C50.8816 85.1881 51.0843 85.2689 51.2349 85.4157C51.3855 85.5625 51.4716 85.763 51.4743 85.9733C51.477 86.1835 51.396 86.3863 51.2492 86.5369C51.1024 86.6875 50.9019 86.7735 50.6917 86.7762L49.5519 86.7915L49.5671 87.9312C49.5622 88.1365 49.4779 88.332 49.3319 88.4765C49.1858 88.621 48.9895 88.7033 48.7841 88.7061C48.5787 88.7089 48.3802 88.632 48.2303 88.4915C48.0805 88.3511 47.9908 88.158 47.9803 87.9528L47.9664 86.813L46.8267 86.8282C46.6172 86.8302 46.4153 86.7494 46.2651 86.6032C46.115 86.4571 46.0286 86.2576 46.025 86.0481Z" fill="#DBDFD3"/>
<path d="M11.4037 8.22833C11.3961 8.47366 11.2916 8.70601 11.1131 8.87451C10.9347 9.04301 10.6967 9.13405 10.4513 9.12757L9.1191 9.08444L9.07474 10.4167C9.06667 10.6622 8.96148 10.8945 8.78218 11.0624C8.60287 11.2303 8.3642 11.3201 8.11868 11.3121C7.87316 11.304 7.64087 11.1987 7.47297 11.0194C7.30506 10.8401 7.21524 10.6015 7.2233 10.3559L7.26767 9.02369L5.93543 8.98056C5.68991 8.9725 5.45762 8.86723 5.28971 8.68792C5.1218 8.50862 5.03199 8.26995 5.04005 8.02443C5.04811 7.77891 5.15338 7.54678 5.33269 7.37887C5.51199 7.21096 5.75066 7.12115 5.99618 7.12921L7.32719 7.17218L7.37148 5.83994C7.37547 5.71837 7.40335 5.59888 7.45356 5.48809C7.50377 5.37731 7.57533 5.27736 7.66411 5.19422C7.7529 5.11108 7.85721 5.04629 7.97105 5.00346C8.08489 4.96062 8.20604 4.94072 8.32761 4.94471C8.44918 4.94871 8.56874 4.97659 8.67953 5.0268C8.79032 5.07701 8.89019 5.14857 8.97333 5.23735C9.05647 5.32614 9.12125 5.43037 9.16409 5.54421C9.20692 5.65805 9.2269 5.77928 9.22291 5.90085L9.17862 7.23294L10.5109 7.27607C10.7551 7.28531 10.9858 7.39057 11.1529 7.56886C11.3201 7.74715 11.4102 7.98403 11.4037 8.22833Z" fill="#EDEFE9"/>
<path d="M117.02 39.3853C117.113 39.6131 117.111 39.8684 117.017 40.0953C116.922 40.3223 116.741 40.5023 116.513 40.596L115.281 41.1026L115.787 42.3347C115.881 42.5619 115.88 42.817 115.786 43.0436C115.691 43.2703 115.51 43.4502 115.283 43.5436C115.056 43.637 114.801 43.6362 114.574 43.5416C114.347 43.4469 114.167 43.2661 114.074 43.0389L113.567 41.8054L112.334 42.312C112.108 42.3966 111.859 42.39 111.638 42.2936C111.417 42.1972 111.242 42.0187 111.151 41.7957C111.059 41.5726 111.058 41.3228 111.148 41.0991C111.238 40.8754 111.411 40.6954 111.631 40.5973L112.863 40.0907L112.357 38.8572C112.264 38.63 112.264 38.3752 112.359 38.1486C112.454 37.922 112.635 37.7423 112.862 37.6491C113.089 37.5559 113.344 37.5568 113.571 37.6516C113.797 37.7464 113.977 37.9273 114.07 38.1545L114.577 39.3879L115.81 38.8813C116.038 38.7883 116.292 38.789 116.519 38.8835C116.746 38.978 116.926 39.1584 117.02 39.3853Z" fill="#DBDFD3"/>
<path d="M75.9092 11.987V74.4201C75.9106 75.7419 75.4094 77.0149 74.5071 77.9809C73.6048 78.9469 72.369 79.5338 71.0501 79.6225C70.9322 79.633 70.8138 79.6372 70.6955 79.6351H30.7941C29.4128 79.6331 28.0888 79.0826 27.1133 78.1047C26.1377 77.1268 25.5905 75.8014 25.5918 74.4201V11.987C25.5928 10.6076 26.1412 9.28489 27.1166 8.30949C28.092 7.33408 29.4147 6.78578 30.7941 6.78478H70.6955C71.3797 6.78295 72.0576 6.91616 72.6902 7.17681C73.3229 7.43747 73.8979 7.82031 74.3822 8.30361C74.8666 8.78691 75.2508 9.36104 75.5129 9.99311C75.7749 10.6252 75.9096 11.3028 75.9092 11.987Z" fill="white"/>
<g opacity="0.3">
<path opacity="0.3" d="M75.9088 53.8576V74.4201C75.9102 75.7419 75.409 77.0148 74.5067 77.9809C73.6044 78.9469 72.3686 79.5337 71.0497 79.6224C69.0371 77.8891 67.5156 75.6568 66.638 73.1498C65.7605 70.6428 65.5577 67.9491 66.05 65.3389C66.5423 62.7287 67.7123 60.2939 69.4427 58.2787C71.1731 56.2635 73.4031 54.7388 75.9088 53.8576Z" fill="#EDEFE9"/>
</g>
<path d="M74.9681 11.9921V74.4174C74.9709 75.1029 74.838 75.7822 74.577 76.4161C74.316 77.0499 73.932 77.6258 73.4473 78.1105C72.9626 78.5952 72.3868 78.9791 71.753 79.2401C71.1191 79.5011 70.4398 79.6341 69.7544 79.6312H64.1392C64.8242 79.6324 65.5027 79.4983 66.1357 79.2367C66.7688 78.9751 67.344 78.5912 67.8284 78.1068C68.3128 77.6225 68.6968 77.0472 68.9584 76.4141C69.22 75.781 69.3541 75.1024 69.3529 74.4174V11.9921C69.3529 11.3074 69.218 10.6296 68.956 9.99709C68.694 9.36461 68.3099 8.78993 67.8258 8.30589C67.3416 7.82186 66.7668 7.43788 66.1343 7.17601C65.5017 6.91413 64.8238 6.77947 64.1392 6.77964H69.7544C70.4393 6.77847 71.1176 6.91247 71.7506 7.174C72.3836 7.43552 72.9588 7.81934 73.4432 8.30357C73.9275 8.78781 74.3115 9.36292 74.5732 9.99586C74.8349 10.6288 74.9691 11.3072 74.9681 11.9921Z" fill="#DBDFD3"/>
<path d="M53.0693 35.0227C53.0696 36.2405 52.7087 37.431 52.0323 38.4437C51.3558 39.4565 50.3943 40.2458 49.2692 40.712C48.1442 41.1782 46.9061 41.3004 45.7117 41.0629C44.5172 40.8255 43.42 40.2393 42.5588 39.3782C41.6975 38.5172 41.111 37.42 40.8733 36.2256C40.6356 35.0311 40.7575 33.7932 41.2235 32.668C41.6895 31.5429 42.4787 30.581 43.4912 29.9044C44.5038 29.2278 45.6943 28.8667 46.9121 28.8667C48.5448 28.867 50.1104 29.5157 51.265 30.6701C52.4196 31.8244 53.0686 33.39 53.0693 35.0227Z" fill="#DBDFD3"/>
<path d="M49.6905 35.8991L46.2333 38.2027C46.0705 38.3114 45.8814 38.374 45.6859 38.3835C45.4904 38.3931 45.296 38.3494 45.1234 38.2571C44.9508 38.1648 44.8066 38.0273 44.7061 37.8593C44.6056 37.6914 44.5525 37.4993 44.5527 37.3036V32.6951C44.5525 32.4994 44.6056 32.3073 44.7061 32.1394C44.8066 31.9715 44.9508 31.834 45.1234 31.7416C45.296 31.6493 45.4904 31.6056 45.6859 31.6152C45.8814 31.6248 46.0705 31.6873 46.2333 31.7961L49.6905 34.0996C49.8386 34.1983 49.96 34.3322 50.044 34.4891C50.128 34.6461 50.172 34.8213 50.172 34.9993C50.172 35.1773 50.128 35.3526 50.044 35.5096C49.96 35.6665 49.8386 35.8004 49.6905 35.8991Z" fill="white"/>
<path d="M64.9477 28.15C64.9477 29.238 64.6251 30.3015 64.0206 31.2062C63.4161 32.1109 62.557 32.816 61.5517 33.2324C60.5465 33.6488 59.4404 33.7577 58.3732 33.5454C57.3061 33.3332 56.3259 32.8093 55.5566 32.0399C54.7872 31.2706 54.2633 30.2903 54.051 29.2231C53.8388 28.156 53.9477 27.05 54.3641 26.0448C54.7804 25.0396 55.4855 24.1804 56.3902 23.5759C57.2948 22.9714 58.3584 22.6488 59.4465 22.6488C60.9053 22.6495 62.3042 23.2292 63.3357 24.2607C64.3672 25.2922 64.9471 26.6912 64.9477 28.15Z" fill="#DBDFD3"/>
<path d="M62.8051 26.1048V30.1953C62.8055 30.2481 62.7944 30.3003 62.7726 30.3485C62.7507 30.3966 62.7185 30.4394 62.6784 30.4738C62.645 30.5067 62.6055 30.5325 62.562 30.5499C62.5185 30.5673 62.472 30.5758 62.4252 30.5751H56.4605C56.4137 30.5758 56.3671 30.5673 56.3237 30.5499C56.2802 30.5325 56.2406 30.5067 56.2072 30.4738C56.1671 30.4394 56.135 30.3966 56.1131 30.3485C56.0912 30.3003 56.0802 30.2481 56.0806 30.1953V26.1048C56.0802 26.052 56.0912 25.9996 56.1131 25.9515C56.135 25.9034 56.1671 25.8606 56.2072 25.8261C56.2406 25.7933 56.2802 25.7675 56.3237 25.7501C56.3671 25.7327 56.4137 25.7241 56.4605 25.7249H62.4252C62.472 25.7241 62.5185 25.7327 62.562 25.7501C62.6055 25.7675 62.645 25.7933 62.6784 25.8261C62.7185 25.8606 62.7507 25.9034 62.7726 25.9515C62.7944 25.9996 62.8055 26.052 62.8051 26.1048Z" fill="#5F6B4E"/>
<path d="M56.2075 30.4738L59.1962 27.8776C59.2658 27.8153 59.356 27.781 59.4495 27.781C59.5429 27.781 59.6331 27.8153 59.7028 27.8776L62.6788 30.4738C62.6454 30.5066 62.6058 30.5325 62.5623 30.5498C62.5189 30.5672 62.4724 30.5758 62.4255 30.575H56.4608C56.3664 30.5756 56.2755 30.5393 56.2075 30.4738Z" fill="white"/>
<path d="M56.4241 25.7261H62.4255C62.4724 25.7253 62.5189 25.7339 62.5623 25.7513C62.6058 25.7687 62.6454 25.7947 62.6788 25.8275L59.7028 28.4235C59.6331 28.4858 59.5429 28.5203 59.4495 28.5203C59.356 28.5203 59.2658 28.4858 59.1962 28.4235L56.2075 25.8275C56.2653 25.769 56.3421 25.7329 56.4241 25.7261Z" fill="#EDEFE9"/>
<path d="M92.4114 68.2818C92.3857 70.5517 91.6875 72.7629 90.405 74.636C89.1225 76.5091 87.3134 77.9598 85.2065 78.8046C83.0995 79.6495 80.7893 79.8506 78.5681 79.3825C76.3468 78.9144 74.3143 77.7981 72.7275 76.1748C71.1406 74.5515 70.0708 72.4942 69.6533 70.2628C69.2358 68.0315 69.4894 65.7266 70.3819 63.6393C71.2744 61.5521 72.7659 59.7764 74.6676 58.5368C76.5693 57.2973 78.7959 56.6495 81.0658 56.6754C84.1092 56.7108 87.0139 57.9533 89.1415 60.1297C91.269 62.3062 92.4452 65.2384 92.4114 68.2818Z" fill="white"/>
<path d="M92.4053 68.2857C92.3702 71.3293 91.1279 74.2344 88.9514 76.3622C86.7749 78.49 83.8424 79.6663 80.7988 79.6325C80.2416 79.6265 79.6855 79.5808 79.1348 79.4957C81.8657 79.1252 84.3722 77.785 86.1968 75.7196C88.0213 73.6541 89.0422 71.0014 89.0729 68.2457C89.1036 65.4899 88.1422 62.8151 86.3641 60.7095C84.586 58.6039 82.11 57.208 79.3881 56.7767C79.9411 56.7054 80.4984 56.6728 81.0559 56.6792C82.5632 56.6961 84.0524 57.0097 85.4385 57.6021C86.8246 58.1945 88.0805 59.0542 89.1344 60.1319C90.1883 61.2097 91.0196 62.4845 91.5808 63.8835C92.142 65.2825 92.4222 66.7784 92.4053 68.2857Z" fill="#DBDFD3"/>
<path d="M101.13 14.3705L101.087 15.7027C101.079 15.9482 101.169 16.1867 101.337 16.3659C101.505 16.5451 101.738 16.6502 101.983 16.6581C102.229 16.666 102.467 16.5761 102.646 16.4081C102.826 16.2401 102.931 16.0077 102.939 15.7622L102.982 14.4312L104.314 14.4742C104.436 14.4781 104.557 14.458 104.671 14.4151C104.784 14.3722 104.889 14.3074 104.977 14.2242C105.066 14.141 105.137 14.041 105.188 13.9302C105.238 13.8194 105.266 13.6999 105.269 13.5783C105.273 13.4568 105.253 13.3355 105.21 13.2217C105.167 13.1079 105.103 13.0037 105.019 12.915C104.936 12.8263 104.836 12.7547 104.725 12.7046C104.615 12.6545 104.495 12.6267 104.373 12.6228L103.043 12.5797L103.086 11.2475C103.09 11.1259 103.07 11.0048 103.027 10.891C102.984 10.7771 102.919 10.6728 102.836 10.584C102.753 10.4952 102.653 10.4236 102.542 10.3734C102.431 10.3232 102.312 10.2953 102.19 10.2913C102.069 10.2873 101.947 10.3074 101.834 10.3502C101.72 10.3931 101.615 10.4579 101.527 10.541C101.438 10.6241 101.366 10.7239 101.316 10.8347C101.266 10.9455 101.238 11.0651 101.234 11.1867L101.191 12.519L99.8588 12.4758C99.616 12.472 99.3815 12.5638 99.2057 12.7312C99.0299 12.8987 98.9269 13.1284 98.919 13.371C98.911 13.6137 98.9986 13.8499 99.1631 14.0285C99.3275 14.2071 99.5555 14.314 99.798 14.3261L101.13 14.3705Z" fill="#5F6B4E"/>
<path d="M9.39425 78.2838L2.01248 78.2775C1.67662 78.2775 1.35452 78.4109 1.11703 78.6484C0.879535 78.8858 0.746094 79.208 0.746094 79.5439C0.746094 79.8798 0.879535 80.2018 1.11703 80.4393C1.35452 80.6768 1.67662 80.8103 2.01248 80.8103L9.39425 80.8166C9.73011 80.8166 10.0523 80.6831 10.2898 80.4456C10.5273 80.2081 10.6606 79.8861 10.6606 79.5502C10.6606 79.2144 10.5273 78.8922 10.2898 78.6547C10.0523 78.4172 9.73011 78.2838 9.39425 78.2838Z" fill="#5F6B4E"/>
<path d="M93.5661 78.3483H88.5563C90.6886 76.7541 92.2677 74.5317 93.0716 71.9936C93.8755 69.4555 93.8637 66.7293 93.0381 64.1982C92.2124 61.6671 90.6143 59.4585 88.4684 57.8826C86.3225 56.3068 83.7366 55.443 81.0744 55.4128C79.7507 55.41 78.4343 55.6085 77.1702 56.0016V11.9921C77.1682 10.2774 76.4862 8.63348 75.2737 7.42103C74.0613 6.20858 72.4174 5.52655 70.7027 5.52454H30.7925C29.0777 5.52655 27.4337 6.20862 26.2211 7.42103C25.0084 8.63344 24.3261 10.2773 24.3237 11.9921V74.434C24.3283 75.831 24.7895 77.1883 25.637 78.299H19.2088C18.8729 78.299 18.5508 78.4324 18.3133 78.6698C18.0758 78.9073 17.9424 79.2295 17.9424 79.5654C17.9424 79.9012 18.0758 80.2234 18.3133 80.4609C18.5508 80.6984 18.8729 80.8318 19.2088 80.8318L93.5661 80.89C93.902 80.89 94.2241 80.7565 94.4616 80.519C94.6991 80.2815 94.8325 79.9595 94.8325 79.6237C94.8325 79.2878 94.6991 78.9656 94.4616 78.7281C94.2241 78.4906 93.902 78.3573 93.5661 78.3573V78.3483ZM81.0454 57.9418C83.7529 57.9729 86.3371 59.0781 88.2299 61.0143C90.1226 62.9505 91.1689 65.5591 91.1385 68.2666C91.1111 70.8626 90.0943 73.3503 88.2954 75.2222C86.4964 77.0941 84.0511 78.209 81.4582 78.3395H80.4603C77.7952 78.2207 75.2826 77.0629 73.4609 75.114C71.6391 73.1651 70.6531 70.5803 70.7141 67.9133C70.775 65.2462 71.8781 62.7091 73.7869 60.8455C75.6958 58.9818 78.2586 57.94 80.9263 57.9431L81.0454 57.9418ZM26.8565 11.9882C26.8578 10.9448 27.273 9.94463 28.0109 9.20699C28.7488 8.46935 29.7491 8.05461 30.7925 8.05361H70.7027C71.7459 8.05461 72.7462 8.46947 73.4838 9.20715C74.2215 9.94482 74.6364 10.945 74.6375 11.9882V15.6608H26.8565V11.9882ZM26.8565 18.1935H74.6375V57.0945C72.6944 58.1818 71.074 59.7644 69.9411 61.6812C68.8082 63.5979 68.2032 65.7806 68.1877 68.0071C68.1877 68.0805 68.1966 68.1527 68.1966 68.2261H26.8565V18.1935ZM26.8565 74.4301V70.7577H68.4638C69.0419 73.5104 70.5138 75.9947 72.6504 77.8241C72.1635 78.1078 71.6199 78.2807 71.0586 78.3307L30.1314 78.299C29.217 78.1437 28.3869 77.6703 27.7877 76.9624C27.1884 76.2545 26.8586 75.3576 26.8565 74.4301Z" fill="#5F6B4E"/>
<path d="M115.988 78.3661L100.811 78.3546C100.475 78.3546 100.153 78.4882 99.9159 78.7257C99.6784 78.9632 99.5449 79.2852 99.5449 79.621C99.5449 79.9569 99.6784 80.2791 99.9159 80.5166C100.153 80.7541 100.475 80.8874 100.811 80.8874L115.988 80.8989C116.324 80.8989 116.646 80.7655 116.883 80.528C117.121 80.2905 117.254 79.9683 117.254 79.6325C117.254 79.2966 117.121 78.9746 116.883 78.7371C116.646 78.4996 116.324 78.3661 115.988 78.3661Z" fill="#5F6B4E"/>
<path d="M58.8581 10.5586H51.3016C50.9567 10.5586 50.6259 10.6956 50.382 10.9395C50.1381 11.1834 50.001 11.5142 50.001 11.8591C50.001 12.2041 50.1381 12.5349 50.382 12.7788C50.6259 13.0227 50.9567 13.1597 51.3016 13.1597H58.8581C59.2031 13.1597 59.5339 13.0227 59.7778 12.7788C60.0217 12.5349 60.1587 12.2041 60.1587 11.8591C60.1587 11.5142 60.0217 11.1834 59.7778 10.9395C59.5339 10.6956 59.2031 10.5586 58.8581 10.5586Z" fill="#5F6B4E"/>
<path d="M47.0223 10.5586H45.5393C45.1944 10.5586 44.8636 10.6956 44.6197 10.9395C44.3758 11.1834 44.2388 11.5142 44.2388 11.8591C44.2388 12.2041 44.3758 12.5349 44.6197 12.7788C44.8636 13.0227 45.1944 13.1597 45.5393 13.1597H47.0223C47.3672 13.1597 47.698 13.0227 47.9419 12.7788C48.1858 12.5349 48.3228 12.2041 48.3228 11.8591C48.3228 11.5142 48.1858 11.1834 47.9419 10.9395C47.698 10.6956 47.3672 10.5586 47.0223 10.5586Z" fill="#5F6B4E"/>
<path d="M50.7394 72.3546C50.3038 72.3561 49.8783 72.4865 49.5167 72.7295C49.1551 72.9725 48.8735 73.3172 48.7075 73.72C48.5414 74.1227 48.4984 74.5656 48.5838 74.9928C48.6692 75.4201 48.8791 75.8125 49.1871 76.1206C49.4952 76.4286 49.8876 76.6386 50.3148 76.7239C50.742 76.8093 51.185 76.7663 51.5878 76.6002C51.9905 76.4342 52.3351 76.1526 52.5781 75.791C52.8211 75.4294 52.9516 75.0038 52.9531 74.5682C52.9539 74.2772 52.8972 73.9891 52.7863 73.7201C52.6753 73.4512 52.5123 73.2068 52.3066 73.0011C52.1009 72.7954 51.8565 72.6324 51.5876 72.5214C51.3187 72.4105 51.0304 72.3538 50.7394 72.3546Z" fill="#5F6B4E"/>
<path d="M68.2625 59.1233C68.5984 59.1233 68.9205 58.9898 69.158 58.7523C69.3955 58.5148 69.5289 58.1928 69.5289 57.857C69.5289 57.5211 69.3955 57.1989 69.158 56.9614C68.9205 56.7239 68.5984 56.5906 68.2625 56.5906H39.4217L40.7692 53.5942H65.9159C66.5459 53.5973 67.1546 53.3656 67.6229 52.9441C68.0912 52.5226 68.3856 51.9417 68.4486 51.3148L69.9392 37.1603C69.9765 36.8055 69.9387 36.4468 69.8284 36.1076C69.7181 35.7683 69.5376 35.456 69.2988 35.191C69.0599 34.926 68.768 34.7143 68.442 34.5694C68.116 34.4246 67.7631 34.3499 67.4064 34.3502H38.3693L36.9345 31.0474C36.6526 30.3994 36.1876 29.848 35.5966 29.4606C35.0056 29.0732 34.3143 28.8667 33.6077 28.8666H32.8098C32.474 28.8666 32.1519 29.0002 31.9144 29.2377C31.6769 29.4751 31.5435 29.7972 31.5435 30.133C31.5435 30.4689 31.6769 30.7911 31.9144 31.0286C32.1519 31.2661 32.474 31.3994 32.8098 31.3994H33.6077C33.8208 31.3995 34.0294 31.4619 34.2077 31.5786C34.3861 31.6953 34.5266 31.8614 34.612 32.0567L36.3013 35.9471C36.5546 37.6643 35.5555 30.7928 38.6442 52.1429L37.1168 55.5381C36.8899 55.8619 36.752 56.2395 36.7167 56.6332C36.6814 57.027 36.7501 57.4231 36.9159 57.782C37.0816 58.1409 37.3386 58.4501 37.6612 58.6786C37.9838 58.9071 38.3607 59.0469 38.7543 59.0841C38.4846 59.7107 38.3745 60.3943 38.4336 61.0739C38.4928 61.7536 38.7194 62.408 39.0933 62.9786C39.4671 63.5493 39.9766 64.0184 40.5761 64.344C41.1756 64.6696 41.8464 64.8414 42.5286 64.8444C43.2108 64.8473 43.8831 64.6812 44.4854 64.3608C45.0877 64.0404 45.6011 63.5758 45.9799 63.0085C46.3588 62.4411 46.5911 61.7887 46.6561 61.1097C46.7212 60.4306 46.6169 59.746 46.3527 59.117H59.7764C59.513 59.7447 59.4088 60.4278 59.4732 61.1055C59.5376 61.7832 59.7685 62.4345 60.1454 63.0014C60.5223 63.5682 61.0335 64.033 61.6335 64.3546C62.2335 64.6762 62.9037 64.8445 63.5844 64.8445C64.2652 64.8445 64.9353 64.6762 65.5353 64.3546C66.1353 64.033 66.6465 63.5682 67.0234 63.0014C67.4003 62.4345 67.6312 61.7832 67.6956 61.1055C67.76 60.4278 67.6559 59.7447 67.3925 59.117L68.2625 59.1233ZM45.9512 42.6413L39.8384 42.6957L39 36.8842H45.6992L45.9512 42.6413ZM48.2307 36.8893H58.1352L57.9566 42.531L48.4802 42.6147L48.2307 36.8893ZM41.0427 51.0614C41.0237 50.9348 40.1448 44.8562 40.1993 45.226L46.0563 45.174L46.3096 51.0614H41.0427ZM48.8487 51.0614L48.5954 45.1512L57.8806 45.0677L57.6907 51.0614H48.8487ZM65.9108 51.0614H60.2196L60.4096 45.0448L66.5617 44.9904L65.9285 51.0513C65.9279 51.0542 65.9264 51.0568 65.924 51.0586C65.9217 51.0605 65.9188 51.0615 65.9159 51.0614H65.9108ZM67.414 36.8981L66.8289 42.4551L60.4906 42.5108L60.668 36.8944L67.414 36.8981ZM44.1441 60.7202C44.1441 61.0361 44.0504 61.3448 43.8749 61.6074C43.6994 61.87 43.45 62.0748 43.1582 62.1956C42.8664 62.3165 42.5454 62.348 42.2356 62.2864C41.9258 62.2248 41.6413 62.0727 41.418 61.8494C41.1946 61.626 41.0426 61.3415 40.9809 61.0317C40.9193 60.722 40.9509 60.401 41.0718 60.1092C41.1926 59.8174 41.3974 59.568 41.66 59.3925C41.9226 59.217 42.2313 59.1233 42.5472 59.1233C42.9706 59.1237 43.3766 59.292 43.676 59.5914C43.9754 59.8908 44.1437 60.2968 44.1441 60.7202ZM65.1788 60.7202C65.1788 61.0361 65.0852 61.3448 64.9097 61.6074C64.7342 61.87 64.4848 62.0748 64.193 62.1956C63.9012 62.3165 63.5802 62.348 63.2704 62.2864C62.9606 62.2248 62.676 62.0727 62.4527 61.8494C62.2293 61.626 62.0773 61.3415 62.0157 61.0317C61.954 60.722 61.9857 60.401 62.1066 60.1092C62.2274 59.8174 62.4321 59.568 62.6947 59.3925C62.9573 59.217 63.266 59.1233 63.5819 59.1233C63.7919 59.123 64 59.164 64.1942 59.2441C64.3884 59.3242 64.5649 59.4418 64.7136 59.59C64.8624 59.7383 64.9804 59.9145 65.0611 60.1084C65.1418 60.3023 65.1835 60.5102 65.1839 60.7202H65.1788Z" fill="#5F6B4E"/>
<path d="M77.4743 72.1431C77.3694 72.0982 77.2565 72.0749 77.1425 72.0746C77.0449 72.0733 76.9481 72.0917 76.8578 72.1287C76.7675 72.1657 76.6856 72.2206 76.6169 72.2899C76.5506 72.3575 76.4984 72.4377 76.4636 72.5258C76.4288 72.6139 76.412 72.7082 76.4143 72.8029C76.4126 72.9541 76.4632 73.1012 76.5574 73.2195C76.6481 73.34 76.7697 73.4337 76.9094 73.4905C78.0638 73.9746 79.2947 74.2511 80.5453 74.3073V75.604C80.5432 75.6582 80.5523 75.7122 80.5719 75.7628C80.5915 75.8133 80.6212 75.8593 80.6592 75.8979C80.6971 75.935 80.7425 75.9637 80.7922 75.9823C80.8419 76.0008 80.895 76.0087 80.948 76.0055C81.0584 76.0085 81.1658 75.9692 81.2481 75.8954C81.2878 75.858 81.3189 75.8125 81.3395 75.762C81.36 75.7115 81.3694 75.6572 81.3671 75.6028V74.3073C82.0927 74.2585 82.8036 74.0792 83.4655 73.778C84.0288 73.5141 84.513 73.1071 84.87 72.5977C85.2014 72.1073 85.3742 71.5267 85.3651 70.9348C85.395 70.2808 85.1912 69.6376 84.7902 69.1201C84.4148 68.6745 83.9367 68.327 83.3972 68.1071C82.8292 67.8816 82.2455 67.6978 81.6508 67.5574L81.3481 67.4827L81.3368 63.4657L81.7635 63.4948C82.4773 63.543 83.1813 63.6888 83.8556 63.9279C83.9717 63.977 84.0957 64.0045 84.2216 64.0089C84.3074 64.0058 84.3914 63.983 84.4669 63.9422C84.5425 63.9013 84.6076 63.8436 84.6572 63.7735C84.7826 63.6348 84.8509 63.4538 84.8485 63.2669C84.8583 63.1102 84.8143 62.9549 84.7238 62.8266C84.6333 62.6984 84.5017 62.6048 84.3508 62.5615C83.4984 62.2578 82.6072 62.0766 81.704 62.0232L81.3317 61.9993V60.7202C81.3299 60.6384 81.3045 60.5588 81.2585 60.4911C81.2124 60.4235 81.1478 60.3706 81.0723 60.339C80.9969 60.3074 80.9138 60.2983 80.8333 60.3129C80.7528 60.3275 80.6782 60.3651 80.6187 60.4212C80.5444 60.5037 80.5049 60.6118 80.5085 60.7227V62.0169L80.1527 62.0562C79.5217 62.1147 78.9076 62.2927 78.343 62.5805C77.7784 62.8649 77.3036 63.3002 76.9715 63.8381C76.6651 64.3535 76.5061 64.9431 76.5118 65.5426C76.4865 66.17 76.6909 66.785 77.0867 67.2725C77.4661 67.7137 77.9431 68.0606 78.4798 68.2856C79.1477 68.5518 79.8321 68.7743 80.5288 68.9517L80.5402 72.8141L80.1109 72.7826C79.2018 72.722 78.31 72.5057 77.4743 72.1431ZM83.1616 69.8218C83.3478 69.917 83.5038 70.0622 83.6121 70.2412C83.7203 70.4201 83.7766 70.6257 83.7745 70.8348C83.7745 71.8846 83.1211 72.5191 81.8205 72.7205L81.3621 72.7927L81.352 69.1201C81.9804 69.2878 82.5889 69.5231 83.1667 69.8218H83.1616ZM78.7217 66.5836C78.5243 66.4609 78.3629 66.288 78.2539 66.0827C78.145 65.8774 78.0922 65.647 78.1011 65.4148C78.0941 65.1594 78.1515 64.9062 78.2682 64.6789C78.3848 64.4516 78.5569 64.2573 78.7685 64.1141C79.1462 63.8454 79.5787 63.6639 80.0349 63.5823L80.5123 63.486L80.5225 67.2966C79.8945 67.1358 79.2894 66.8963 78.7217 66.5836Z" fill="#5F6B4E"/>
</svg>
