<svg width="18" height="18" viewBox="0 0 18 18" fill="none" xmlns="http://www.w3.org/2000/svg">
<path fill-rule="evenodd" clip-rule="evenodd" d="M5.25 9.375H6.75673V10.875H5.25V9.375ZM8.24662 9.375H9.75338V10.875H8.24662V9.375ZM11.2432 9.375H12.75V10.875H11.2432V9.375ZM5.25 12.375H6.75673V13.875H5.25V12.375ZM8.24662 12.375H9.75338V13.875H8.24662V12.375Z" fill="#6B7280"/>
<path fill-rule="evenodd" clip-rule="evenodd" d="M4.3125 4.5V1.5H5.4375V4.5H4.3125ZM12.5625 4.5V1.5H13.6875V4.5H12.5625Z" fill="#6B7280"/>
<path fill-rule="evenodd" clip-rule="evenodd" d="M1.6875 3C1.6875 2.68934 1.93934 2.4375 2.25 2.4375H15.75C16.0607 2.4375 16.3125 2.68934 16.3125 3V16.5C16.3125 16.8107 16.0607 17.0625 15.75 17.0625H2.25C1.93934 17.0625 1.6875 16.8107 1.6875 16.5V3ZM2.8125 3.5625V15.9375H15.1875V3.5625H2.8125Z" fill="#6B7280"/>
<path fill-rule="evenodd" clip-rule="evenodd" d="M1.6875 6.75C1.6875 6.43934 1.93934 6.1875 2.25 6.1875H15.75C16.0607 6.1875 16.3125 6.43934 16.3125 6.75C16.3125 7.06066 16.0607 7.3125 15.75 7.3125H2.25C1.93934 7.3125 1.6875 7.06066 1.6875 6.75Z" fill="#6B7280"/>
</svg>
