<svg width="21" height="20" viewBox="0 0 21 20" fill="none" xmlns="http://www.w3.org/2000/svg">
<path d="M19.3901 3.44995H15.8311C14.9301 3.44995 14.8921 3.33595 14.6451 2.59595L14.4431 1.98895C14.1361 1.06895 13.2791 0.449951 12.3091 0.449951H8.47113C7.50113 0.449951 6.64314 1.06795 6.33714 1.98895L6.13514 2.59595C5.88814 3.33695 5.85013 3.44995 4.94913 3.44995H1.39014C0.976137 3.44995 0.640137 3.78595 0.640137 4.19995C0.640137 4.61395 0.976137 4.94995 1.39014 4.94995H2.68813L3.45514 16.4489C3.60314 18.6739 4.96714 19.95 7.19714 19.95H13.5841C15.8131 19.95 17.1771 18.6739 17.3261 16.4489L18.0931 4.94995H19.3901C19.8041 4.94995 20.1401 4.61395 20.1401 4.19995C20.1401 3.78595 19.8041 3.44995 19.3901 3.44995ZM7.76013 2.46295C7.86313 2.15595 8.14813 1.94995 8.47113 1.94995H12.3091C12.6321 1.94995 12.9181 2.15595 13.0201 2.46295L13.2221 3.06995C13.2661 3.20095 13.3101 3.32795 13.3581 3.44995H7.42014C7.46814 3.32695 7.51314 3.19995 7.55714 3.06995L7.76013 2.46295ZM15.8281 16.349C15.7331 17.782 15.0191 18.45 13.5831 18.45H7.19614C5.76014 18.45 5.04713 17.783 4.95113 16.349L4.19114 4.94995H4.94814C5.07314 4.94995 5.17714 4.93695 5.28914 4.92896C5.32314 4.93396 5.35414 4.94995 5.38914 4.94995H15.3891C15.4251 4.94995 15.4551 4.93396 15.4891 4.92896C15.6011 4.93695 15.7051 4.94995 15.8301 4.94995H16.5871L15.8281 16.349ZM13.1401 9.19995V14.2C13.1401 14.614 12.8041 14.95 12.3901 14.95C11.9761 14.95 11.6401 14.614 11.6401 14.2V9.19995C11.6401 8.78595 11.9761 8.44995 12.3901 8.44995C12.8041 8.44995 13.1401 8.78595 13.1401 9.19995ZM9.14014 9.19995V14.2C9.14014 14.614 8.80414 14.95 8.39014 14.95C7.97614 14.95 7.64014 14.614 7.64014 14.2V9.19995C7.64014 8.78595 7.97614 8.44995 8.39014 8.44995C8.80414 8.44995 9.14014 8.78595 9.14014 9.19995Z" fill="#25314C"/>
</svg>
