<svg width="18" height="18" viewBox="0 0 18 18" fill="none" xmlns="http://www.w3.org/2000/svg">
<g clip-path="url(#clip0_5195_900)">
<path fill-rule="evenodd" clip-rule="evenodd" d="M8.24707 6H9.75832V7.5H8.24707V6ZM8.24984 10.5H9.7611V12H8.24984V10.5Z" fill="#6B7280"/>
<path fill-rule="evenodd" clip-rule="evenodd" d="M12 9.5625H6V8.4375H12V9.5625Z" fill="#6B7280"/>
<path fill-rule="evenodd" clip-rule="evenodd" d="M13.125 5.43768C12.8143 5.43768 12.5625 5.18584 12.5625 4.87518C12.5625 4.56452 12.8143 4.31268 13.125 4.31268C13.4357 4.31268 13.6875 4.56452 13.6875 4.87518C13.6875 5.18584 13.4357 5.43768 13.125 5.43768ZM11.4375 4.87518C11.4375 5.80716 12.193 6.56268 13.125 6.56268C14.057 6.56268 14.8125 5.80716 14.8125 4.87518C14.8125 3.9432 14.057 3.18768 13.125 3.18768C12.193 3.18768 11.4375 3.9432 11.4375 4.87518Z" fill="#6B7280"/>
<path fill-rule="evenodd" clip-rule="evenodd" d="M8.60225 1.10225C8.70774 0.996763 8.85082 0.9375 9 0.9375H16.5C16.8107 0.9375 17.0625 1.18934 17.0625 1.5V8.99999C17.0625 9.14918 17.0032 9.29225 16.8977 9.39774L9.39775 16.8977C9.17808 17.1174 8.82192 17.1174 8.60225 16.8977L1.10225 9.39774C0.996763 9.29225 0.9375 9.14918 0.9375 8.99999C0.9375 8.85081 0.996763 8.70773 1.10225 8.60224L8.60225 1.10225ZM9.23299 2.0625L2.2955 8.99999L9 15.7045L15.9375 8.767V2.0625H9.23299Z" fill="#6B7280"/>
</g>
<defs>
<clipPath id="clip0_5195_900">
<rect width="18" height="18" fill="white"/>
</clipPath>
</defs>
</svg>
