<?xml version="1.0" standalone="no"?>
<!DOCTYPE svg PUBLIC "-//W3C//DTD SVG 1.1//EN" "http://www.w3.org/Graphics/SVG/1.1/DTD/svg11.dtd" >
<svg xmlns="http://www.w3.org/2000/svg">
<metadata>Generated by IcoMoon</metadata>
<defs>
<font id="fo" horiz-adv-x="1024">
<font-face units-per-em="1024" ascent="960" descent="-64" />
<missing-glyph horiz-adv-x="1024" />
<glyph unicode="&#x20;" horiz-adv-x="512" d="" />
<glyph unicode="&#xe900;" glyph-name="account" d="M390.4 668.8c0 68.925 55.875 124.8 124.8 124.8s124.8-55.875 124.8-124.8c0-68.925-55.875-124.8-124.8-124.8s-124.8 55.875-124.8 124.8zM515.2 832c-90.134 0-163.2-73.067-163.2-163.2s73.066-163.2 163.2-163.2 163.2 73.066 163.2 163.2c0 90.133-73.066 163.2-163.2 163.2zM870.4 416h-710.4v-339.2h38.4v300.8h633.6v-300.8h38.4v339.2z" />
<glyph unicode="&#xe901;" glyph-name="arrow_backward" d="M904.531 462.627h-708.847l296.229 296.23-27.155 27.153-329.004-329.005c-7.498-7.498-7.498-19.654 0-27.152l329.004-329.005 27.155 27.152-296.229 296.227h708.847v38.4z" />
<glyph unicode="&#xe902;" glyph-name="arrow_bottom" d="M114.422 610.422l27.153 27.155 370.422-370.426 370.426 370.426 27.152-27.155-397.578-397.574-397.575 397.574z" />
<glyph unicode="&#xe903;" glyph-name="arrow_calendar_next_end" d="M516.845 448l-338.423 338.424 27.153 27.153 365.577-365.576-365.577-365.578-27.153 27.155 338.423 338.422zM836.845 448l-338.422 338.424 27.152 27.153 365.578-365.576-365.578-365.578-27.152 27.155 338.422 338.422z" />
<glyph unicode="&#xe904;" glyph-name="arrow_calendar_pre_end" d="M507.155 448l338.422 338.424-27.152 27.153-365.578-365.576 365.578-365.578 27.152 27.155-338.422 338.422zM187.155 448l338.423 338.424-27.152 27.153-365.577-365.576 365.577-365.578 27.152 27.155-338.423 338.422z" />
<glyph unicode="&#xe905;" glyph-name="arrow_forward" d="M130.133 462.627h708.846l-296.227 296.23 27.152 27.153 329.005-329.005c7.498-7.498 7.498-19.654 0-27.152l-329.005-329.005-27.152 27.152 296.227 296.227h-708.846v38.4z" />
<glyph unicode="&#xe906;" glyph-name="arrow_next" d="M676.845 448l-338.422 338.424 27.152 27.153 365.578-365.576-365.578-365.578-27.152 27.155 338.422 338.422z" />
<glyph unicode="&#xe907;" glyph-name="arrow_pre" d="M347.014 448l338.422 338.424-27.152 27.153-365.577-365.577 365.577-365.578 27.152 27.155-338.422 338.422z" />
<glyph unicode="&#xe908;" glyph-name="arrow_top" d="M511.997 667.153l397.578-397.575-27.152-27.155-370.426 370.426-370.422-370.426-27.153 27.155 397.575 397.575z" />
<glyph unicode="&#xe909;" glyph-name="attach" d="M776.394 777.996c-46.406 46.405-121.642 46.405-168.048 0l-374.132-374.134c-73.356-73.354-73.356-192.288 0-265.645s192.292-73.357 265.645 0l290.112 290.109 27.152-27.152-290.109-290.109c-88.352-88.355-231.601-88.355-319.953 0-88.352 88.352-88.352 231.6 0 319.952l374.132 374.132c61.402 61.401 160.95 61.401 222.352 0s61.402-160.951 0-222.352l-374.131-374.131c-34.451-34.451-90.304-34.451-124.753 0-34.45 34.448-34.45 90.301 0 124.752l290.11 290.109 27.152-27.152-290.109-290.112c-19.454-19.453-19.454-50.992 0-70.445s50.992-19.453 70.448 0l374.131 374.131c46.403 46.406 46.403 121.643 0 168.048z" />
<glyph unicode="&#xe90a;" glyph-name="calendar" d="M326.4 736h377.6v96h38.4v-96h121.6v-672h-704v672h128v96h38.4v-96zM827.27 576v123.346h-630.54v-123.346h630.54zM196.731 537.6v-436.944h630.54v436.944h-630.54z" />
<glyph unicode="&#xe90b;" glyph-name="close" d="M512.115 422.989l322.678-322.678 24.893 24.89-322.682 322.682 322.682 322.678-24.893 24.89-322.678-322.678-322.678 322.678-24.89-24.89 322.679-322.678-322.679-322.682 24.89-24.89 322.678 322.678z" />
<glyph unicode="&#xe90c;" glyph-name="detail" d="M857.901 102.096h-681.079v35.2h620.989l-633.436 633.435 24.89 24.89 633.436-633.436v620.99h35.2v-681.080z" />
<glyph unicode="&#xe90d;" glyph-name="download" d="M531.194 797.867v-484.846l194.134 194.131 27.152-27.152-226.909-226.909c-7.498-7.498-19.654-7.498-27.152 0l-226.911 226.909 27.153 27.152 194.133-194.131v484.846h38.4zM279.461 157.866h465.067v-38.4h-465.067v38.4z" />
<glyph unicode="&#xe90e;" glyph-name="facebook" d="M697.203 399.533l22.694 149.437h-141.968v96.933c0 40.893 19.795 80.777 83.379 80.777h64.586v127.223c0 0-58.586 10.097-114.573 10.097-116.97 0-193.354-71.588-193.354-201.134v-113.896h-129.968v-149.437h129.968v-361.274c26.096-4.138 52.787-6.259 79.981-6.259s53.888 2.122 79.981 6.259v361.274h119.274z" />
<glyph unicode="&#xe90f;" glyph-name="fixed" d="M351.197 777.333c0 27.026 22.934 50.133 52.8 50.133h216c29.866 0 52.8-23.107 52.8-50.133v-15.467h-321.6v15.467zM382.141 723.467l-31.014-238.932h-1.13c-69.494 0-127.2-54.547-127.2-123.2v-53.869h270v-275.466h38.4v275.466h270v53.869c0 68.653-57.706 123.2-127.2 123.2h-1.133l-31.018 238.932h69.35v53.867c0 49.587-41.504 88.533-91.2 88.533h-216c-49.693 0-91.2-38.946-91.2-88.533v-53.867h69.344zM673.997 446.134h0.077c49.629-0.042 88.723-38.733 88.723-84.8v-15.469h-501.6v15.469c0 46.067 39.094 84.758 88.723 84.8h324.077zM603.126 723.467l31.014-238.932h-244.294l31.018 238.932h182.262z" />
<glyph unicode="&#xe910;" glyph-name="guide" d="M311.794 162.349l-6.786 14.432-15.014 5.379c-128.069 45.882-219.594 168.333-219.594 312.061 0 183.016 148.363 331.379 331.379 331.379h220.442c183.018 0 331.379-148.363 331.379-331.379 0-183.014-148.362-331.376-331.379-331.376h-226.374l4.72-42.627c1.597-14.422 4.518-27.917 8.387-40.365-16.752 5.008-30.816 11.696-42.643 19.315-25.837 16.64-43.219 39.149-54.516 63.181zM480 32c-8.941 8.608-18.877 22.026-26.886 39.581-2.074 4.547-4.016 9.373-5.782 14.464-3.981 11.491-7.043 24.336-8.598 38.4h183.488c204.224 0 369.779 165.555 369.779 369.776 0 204.224-165.555 369.779-369.779 369.779h-220.442c-204.224 0-369.779-165.555-369.779-369.779 0-160.451 102.194-297.034 245.043-348.211 23.283-49.52 68.931-96.243 151.462-109.968 15.782-2.624 32.912-4.042 51.494-4.042zM528 448c26.509 0 48 21.491 48 48s-21.491 48-48 48c-26.509 0-48-21.491-48-48s21.491-48 48-48zM384 496c0-26.509-21.491-48-48-48s-48 21.491-48 48c0 26.509 21.49 48 48 48s48-21.491 48-48zM720 448c26.509 0 48 21.491 48 48s-21.491 48-48 48c-26.509 0-48-21.491-48-48s21.491-48 48-48z" />
<glyph unicode="&#xe911;" glyph-name="home" d="M832 72.083v432.858l-332.8 247.223-332.8-247.223v-432.858h-38.4v452.17l371.2 275.747 371.2-275.747v-452.17h-38.4zM614.403 315.283h-230.4v-243.2h38.4v204.8h153.6v-204.8h38.4v243.2z" />
<glyph unicode="&#xe912;" glyph-name="info" d="M512 70.4c-208.543 0-377.6 169.056-377.6 377.6s169.057 377.6 377.6 377.6c208.544 0 377.6-169.057 377.6-377.6s-169.056-377.6-377.6-377.6zM512 32c229.75 0 416 186.25 416 416s-186.25 416-416 416c-229.75 0-416-186.25-416-416s186.25-416 416-416zM531.197 672h-38.4v-320h38.4v320zM531.197 224h-38.4v64h38.4v-64z" />
<glyph unicode="&#xe913;" glyph-name="kakaotalk" d="M393.28 530.56l27.84-66.88h-56.64l28.8 66.88zM964.16 508.48c0-195.2-200.96-355.84-449.6-355.84-27.2 0-54.4 1.92-81.28 5.76l-182.4-122.88c-2.24-1.92-4.8-2.88-7.68-3.2-3.52 0-6.72 1.28-9.28 3.52-1.92 1.92-2.88 4.16-3.52 6.4-0.64 2.56-0.32 5.12 0.32 7.36l42.56 158.4c-125.76 63.040-209.28 173.76-209.28 300.48 0 194.88 200.64 355.52 449.6 355.52s450.24-160.32 450.24-355.52h0.32zM323.2 563.52c13.12 0 24 10.88 24 24s-10.88 24-24 24h-153.6c-13.12 0-24-10.88-24-24s10.88-24 24-24h52.8v-169.92c0-13.12 10.88-24 24-24s24 10.88 24 24v169.92h52.8zM502.080 393.28l-23.040 55.36-63.36 152.64c-3.84 8.96-12.48 14.72-22.080 14.72s-18.24-5.76-22.080-14.4l-65.6-152.64-24-55.36c-5.12-12.16 0.32-26.24 12.48-31.68 12.16-5.12 26.24 0.32 31.68 12.48l17.6 40.96h97.28l16.96-40.64c5.12-12.16 19.2-17.92 31.36-12.8s17.92 19.2 12.8 31.36zM667.2 400c0 13.12-10.88 24-24 24h-91.2v163.52c0 13.12-10.88 24-24 24s-24-10.88-24-24v-187.52c0-13.12 10.88-24 24-24h115.2c13.12 0 24 10.88 24 24zM783.36 508.48l65.28 61.44c9.6 8.96 9.92 24.32 0.96 33.92s-24.32 9.92-33.92 0.96l-90.88-85.76v68.16c0 13.12-10.88 24-24 24s-24-10.88-24-24v-193.92c0-13.12 10.88-24 24-24s24 10.88 24 24v60.16l23.040 21.76 64.32-95.040c7.36-10.88 22.4-13.76 33.28-6.4s13.76 22.4 6.4 33.28l-68.48 101.44z" />
<glyph unicode="&#xe918;" glyph-name="link" d="M857.901 793.904h-681.079v-35.2h620.989l-633.436-633.434 24.89-24.893 633.436 633.438v-620.993h35.2v681.082z" />
<glyph unicode="&#xe919;" glyph-name="login" d="M851.203 121.6v678.4h-531.2v-38.4h492.8v-601.6h-492.8v-38.4h531.2zM128 441.6h337.645l-127.222-127.222 27.152-27.155 173.578 173.578-173.578 173.578-27.152-27.155 127.222-127.222h-337.645v-38.4z" />
<glyph unicode="&#xe91a;" glyph-name="logout" d="M128 800v-678.4h531.2v38.4h-492.8v601.6h492.8v38.4h-531.2zM677.626 607.222l127.222-127.222h-337.645v-38.4h337.645l-127.222-127.222 27.152-27.155 173.578 173.578-173.578 173.578-27.152-27.155z" />
<glyph unicode="&#xe91b;" glyph-name="minus" d="M864 430.4h-704v35.2h704v-35.2z" />
<glyph unicode="&#xe91c;" glyph-name="notice" d="M959.862 863.761v-831.521l-309.021 122.25-19.558-51.072c-19.066-49.83-75.037-74.739-124.768-55.626l-180.576 69.363c-49.769 19.13-74.55 75.21-55.512 124.96l0.015 0.038 21 54.515-89.105 35.251h-54.338c-64.004 0-115.867 52.038-115.867 116.080s51.863 116.080 115.867 116.080h54.338l757.525 299.681zM327.152 282.544l-20.861-54.154c-11.496-30.070 3.545-63.904 33.421-75.389l180.573-69.363c29.92-11.501 63.658 3.504 75.136 33.501l19.712 51.478-287.981 113.926zM147.999 370.32h38.797v155.36h-38.797c-42.716 0-77.467-34.768-77.467-77.68s34.75-77.68 77.467-77.68zM225.197 531.827v-167.654l696.266-275.446v718.548l-696.266-275.447z" />
<glyph unicode="&#xe91d;" glyph-name="open_hours" d="M889.6 448c0 208.543-169.056 377.6-377.6 377.6s-377.6-169.057-377.6-377.6c0-208.544 169.057-377.6 377.6-377.6s377.6 169.056 377.6 377.6zM928 448c0-229.75-186.25-416-416-416s-416 186.25-416 416c0 229.75 186.25 416 416 416s416-186.25 416-416zM531.197 672h-38.4v-231.952l133.622-133.626 27.155 27.155-122.378 122.374v216.048z" />
<glyph unicode="&#xe91e;" glyph-name="plus" d="M529.597 465.6v334.4h-35.2v-334.4h-334.397v-35.2h334.397v-334.4h35.2v334.4h334.403v35.2h-334.403z" />
<glyph unicode="&#xe91f;" glyph-name="search" d="M697.6 512c0 137.85-111.75 249.6-249.6 249.6s-249.6-111.75-249.6-249.6c0-137.85 111.75-249.6 249.6-249.6s249.6 111.75 249.6 249.6zM637.619 295.226c-50.659-44.349-117.002-71.226-189.619-71.226-159.058 0-288 128.941-288 288s128.942 288 288 288c159.059 0 288-128.942 288-288 0-72.621-26.877-138.96-71.229-189.622l212.803-212.8-27.152-27.155-212.803 212.803z" />
<glyph unicode="&#xe920;" glyph-name="share" d="M630.429 810.999c-52.038-30.044-69.869-96.585-39.824-148.624s96.586-69.867 148.624-39.825c52.038 30.046 69.869 96.587 39.824 148.625s-96.586 69.868-148.624 39.824zM758.429 589.296c-64.762-37.389-146.128-19.974-190.39 37.856l-188.394-108.771c6.934-17.082 10.755-35.763 10.755-55.334 0-19.574-3.821-38.253-10.755-55.338l188.394-108.768c44.262 57.83 125.629 75.245 190.39 37.853 70.406-40.646 94.528-130.672 53.878-201.078-40.646-70.403-130.672-94.528-201.078-53.878-64.774 37.398-90.374 116.595-62.397 183.85l-188.163 108.637c-26.874-35.523-69.491-58.477-117.469-58.477-81.296 0-147.2 65.904-147.2 147.2s65.904 147.2 147.2 147.2c47.978 0 90.595-22.954 117.469-58.48l188.163 108.637c-27.978 67.257-2.378 146.453 62.397 183.851 70.406 40.648 160.432 16.526 201.078-53.879 40.65-70.404 16.528-160.43-53.878-201.079zM243.2 571.846c-60.089 0-108.8-48.714-108.8-108.8 0-60.090 48.711-108.8 108.8-108.8s108.8 48.71 108.8 108.8c0 60.086-48.711 108.8-108.8 108.8zM590.605 263.715c-30.045-52.038-12.214-118.579 39.824-148.624s118.579-12.214 148.624 39.824c30.045 52.038 12.214 118.579-39.824 148.624s-118.579 12.214-148.624-39.824z" />
<glyph unicode="&#xe921;" glyph-name="ticket" d="M704 665.6c-42.976 0-79.766 26.473-94.957 64h-538.643v-563.2h538.643c15.19 37.526 51.981 64 94.957 64s79.766-26.474 94.957-64h154.643v563.2h-154.643c-15.19-37.527-51.981-64-94.957-64zM704 704c35.347 0 64 28.654 64 64h224v-640h-224c0 35.347-28.653 64-64 64s-64-28.653-64-64h-608v640h608c0-35.346 28.653-64 64-64zM684.8 608h38.4v-64h-38.4v64zM684.8 416h38.4v64h-38.4v-64zM684.8 352h38.4v-64h-38.4v64z" />
<glyph unicode="&#xe922;" glyph-name="twitter" d="M846.090 624.707c0.342-7.744 0.342-15.136 0.342-22.88 0.339-234.787-172.16-505.827-487.613-505.827-93.038 0-184.38 27.808-262.819 79.904 13.582-1.76 27.165-2.464 40.748-2.464 77.080 0 152.123 26.752 212.904 76.384-73.344 1.408-137.861 51.040-160.272 123.552 25.806-5.28 52.292-4.224 77.42 3.168-79.797 16.192-137.183 89.056-137.522 173.888 0 0.704 0 1.408 0 2.112 23.769-13.728 50.595-21.472 77.759-22.176-75.043 52.096-98.473 155.938-52.972 237.25 87.267-111.232 215.621-178.466 353.484-185.858-13.923 61.602 5.094 126.37 49.574 170.018 68.931 67.232 177.59 63.712 242.787-7.744 38.371 7.744 75.382 22.528 108.998 43.296-12.902-41.184-39.728-76.032-75.382-98.208 33.958 4.224 67.235 13.728 98.474 27.808-23.091-35.904-52.291-66.88-85.91-92.223z" />
</font>
</defs>
</svg>
