<?xml version="1.0" encoding="UTF-8"?><svg id="Layer_1" xmlns="http://www.w3.org/2000/svg" viewBox="0 0 139 68"><defs><style>.cls-1{fill:#231f20;}</style></defs><path class="cls-1" d="m10.61,53.55h4.01v-19.7h-4.01v8.27H3.99v-8.27H0v19.7h3.99v-7.51h6.62v7.51Z"/><path class="cls-1" d="m19.93,53.55h12.01v-3.92h-8.12v-3.91h8.12v-3.86h-8.12v-4.1h8.12v-3.92h-12.01v19.7Z"/><path class="cls-1" d="m46.56,53.55h4.65l-4.11-6.86v-.18l.08-.04c2.14-.98,3.27-3.01,3.27-5.87,0-4.29-2.3-6.76-6.31-6.76h-6.89v19.7h3.91v-6.44h1.69l3.71,6.44Zm-3.3-10.27h-2.09v-5.57h2.17c1.81,0,2.98,1.09,2.98,2.78s-1.17,2.78-3.06,2.78Z"/><path class="cls-1" d="m54.89,53.55h12v-3.92h-8.12v-3.91h8.12v-3.86h-8.12v-4.1h8.12v-3.92h-12v19.7Z"/><path class="cls-1" d="m72.1,53.55h6.18c5.54,0,9.12-3.86,9.12-9.82s-3.7-9.88-9.2-9.88h-6.1v19.7Zm5.93-3.92h-1.99v-11.87h2.3c2.83,0,4.96,2.56,4.96,5.96s-2.21,5.91-5.26,5.91Z"/><path class="cls-1" d="m91.68,53.55h4.01v-19.7h-4.01v19.7Z"/><path class="cls-1" d="m100.97,33.85v11.51c0,5.31,2.73,8.47,7.3,8.47s7.35-3.17,7.35-8.47v-11.51h-3.99v11.2c0,2.78-1.35,4.64-3.36,4.64s-3.29-1.82-3.29-4.64v-11.2h-4.01Z"/><path class="cls-1" d="m135.06,53.55h3.94v-19.7h-4.04l-4.97,10.58h-.23l-5-10.58h-4.04v19.7h3.94v-11.55l3.93,7.89h2.54l3.93-7.92v11.58Z"/><polygon class="cls-1" points="84.65 0 54.35 0 46.62 8.46 46.62 28.49 66.9 28.49 66.9 18.67 72.1 18.67 72.1 28.49 92.38 28.49 92.38 8.46 84.65 0"/><path class="cls-1" d="m80.63,66.45v1.35h-4.89v-.97l2.33-2.45c.6-.64,1-1.15,1-1.75s-.41-1.01-1-1.01c-.52,0-.97.26-1.29.8l-1.06-.76c.44-.79,1.23-1.41,2.48-1.41s2.37.83,2.37,2.22c0,.85-.27,1.51-1.24,2.51l-1.41,1.46v.02h2.73Z"/><path class="cls-1" d="m81.86,64.06c0-2.28,1.1-3.82,2.9-3.82s2.91,1.41,2.91,3.82c0,2.28-1.1,3.81-2.91,3.81-1.72,0-2.9-1.4-2.9-3.81m4.3,0c0-1.51-.51-2.44-1.39-2.44s-1.4.86-1.4,2.44c0,1.5.52,2.44,1.4,2.44s1.39-.87,1.39-2.44"/><path class="cls-1" d="m93.64,66.45v1.35h-4.89v-.97l2.33-2.45c.6-.64,1-1.15,1-1.75s-.41-1.01-1-1.01c-.52,0-.97.26-1.29.8l-1.06-.76c.44-.79,1.23-1.41,2.48-1.41s2.37.83,2.37,2.22c0,.85-.27,1.51-1.24,2.51l-1.41,1.46v.02h2.73Z"/><path class="cls-1" d="m100.03,66.45v1.35h-4.89v-.97l2.33-2.45c.6-.64,1-1.15,1-1.75s-.41-1.01-1-1.01c-.52,0-.97.26-1.29.8l-1.06-.76c.43-.79,1.23-1.41,2.48-1.41s2.37.83,2.37,2.22c0,.85-.27,1.51-1.24,2.51l-1.41,1.46v.02h2.73Z"/><rect class="cls-1" x="66.95" y="58.14" width="5.08" height="9.82"/><polygon class="cls-1" points="40.91 62.19 39.66 63.12 38.95 62.02 41.21 60.41 42.4 60.41 42.4 67.79 40.91 67.79 40.91 62.19"/><path class="cls-1" d="m49.95,63.18c0,2.46-1.64,4.38-3.99,4.82l-.44-1.19c1.36-.37,2.28-1.01,2.73-2.09h-.01c-.41.22-.9.34-1.39.34-1.24,0-2.27-.87-2.27-2.39s1.16-2.49,2.67-2.49,2.69,1.21,2.69,3m-2.7.64c.51,0,.99-.29,1.29-.66v-.1c0-.93-.54-1.54-1.26-1.54-.76,0-1.25.54-1.25,1.17,0,.66.46,1.13,1.22,1.13"/><path class="cls-1" d="m56.22,66.45v1.35h-4.89v-.97l2.33-2.45c.6-.64,1-1.15,1-1.75s-.41-1.01-1-1.01c-.52,0-.97.26-1.29.8l-1.06-.76c.43-.79,1.23-1.41,2.48-1.41s2.37.83,2.37,2.22c0,.85-.27,1.51-1.24,2.51l-1.41,1.46v.02h2.73Z"/><path class="cls-1" d="m62.86,66.45v1.35h-4.89v-.97l2.32-2.45c.6-.64,1-1.15,1-1.75s-.41-1.01-1-1.01c-.52,0-.97.26-1.29.8l-1.07-.76c.43-.79,1.23-1.41,2.48-1.41s2.37.83,2.37,2.22c0,.85-.27,1.51-1.24,2.51l-1.41,1.46v.02h2.73Z"/></svg>