<?xml version="1.0" standalone="no"?>
<!DOCTYPE svg PUBLIC "-//W3C//DTD SVG 1.1//EN" "http://www.w3.org/Graphics/SVG/1.1/DTD/svg11.dtd" >
<svg xmlns="http://www.w3.org/2000/svg">
<metadata>Generated by IcoMoon</metadata>
<defs>
<font id="simsimicons" horiz-adv-x="1024">
<font-face units-per-em="1024" ascent="960" descent="-64" />
<missing-glyph horiz-adv-x="1024" />
<glyph unicode="&#x20;" horiz-adv-x="512" d="" />
<glyph unicode="&#xe900;" glyph-name="arrow-end" d="M960 448l-384.003 384-52.528-50.717 333.28-333.283-333.28-333.28 52.528-50.72 384.003 384zM587.466 448l-384 384-52.528-50.717 333.283-333.283-333.283-333.28 52.528-50.72 384 384z" />
<glyph unicode="&#xe901;" glyph-name="arrow-first" d="M64.003 448l384 384 52.528-50.717-333.283-333.283 333.283-333.28-52.528-50.72-384 384zM436.534 448l383.997 384 52.531-50.717-333.283-333.283 333.283-333.28-52.531-50.72-383.997 384z" />
<glyph unicode="&#xe902;" glyph-name="arrow-left" d="M567.125 131.541l-316.459 316.459 316.459 316.458 35.541-34.688-281.771-281.77 281.771-281.771-35.541-34.688z" />
<glyph unicode="&#xe903;" glyph-name="arrow-next" d="M768 448l-384.003 384-52.528-50.717 333.28-333.283-333.28-333.28 52.528-50.72 384.003 384z" />
<glyph unicode="&#xe904;" glyph-name="arrow-pre" d="M256.003 448l383.997 384 52.531-50.717-333.283-333.283 333.283-333.28-52.531-50.72-383.997 384z" />
<glyph unicode="&#xe905;" glyph-name="arrow-right" d="M456.875 131.541l316.459 316.459-316.459 316.458-35.541-34.688 281.771-281.77-281.771-281.771 35.541-34.688z" />
<glyph unicode="&#xe906;" glyph-name="calendar-arrow_r" d="M456.875 131.541l316.459 316.459-316.459 316.458-35.541-34.688 281.771-281.77-281.771-281.771 35.541-34.688z" />
<glyph unicode="&#xe907;" glyph-name="calendar-arrow-l" d="M609.792 131.541l-316.459 316.459 316.459 316.458 35.541-34.688-281.771-281.77 281.771-281.771-35.541-34.688z" />
<glyph unicode="&#xe908;" glyph-name="close" d="M273.065 179.2l-29.867 29.867 238.935 238.933-238.935 238.933 29.867 29.867 238.935-238.933 238.933 238.933 29.867-29.867-238.933-238.933 238.933-238.933-29.867-29.867-238.933 238.933-238.935-238.933z" />
<glyph unicode="&#xe909;" glyph-name="edit" d="M651.635 754.727c46.14 46.141 120.951 46.141 167.091 0 46.144-46.141 46.144-120.951 0-167.093l-411.785-411.784c-22.699-22.699-51.7-38.050-83.235-44.053l-132.023-25.131-21.017 21.018 25.132 132.023c6.003 31.535 21.351 60.535 44.050 83.234l411.786 411.785zM793.31 729.309c-32.102 32.103-84.156 32.103-116.258 0l-56.862-56.863 116.258-116.257 56.862 56.863c32.102 32.104 32.102 84.154 0 116.257zM711.027 530.769l-116.258 116.259-329.502-329.503c-17.6-17.6-29.501-40.090-34.156-64.542l-20.191-106.061 106.065 20.19c24.452 4.655 46.938 16.555 64.539 34.155l329.503 329.502z" />
<glyph unicode="&#xe90a;" glyph-name="expand-more" d="M512 284.979l-256 256.002 33.811 35.019 222.189-222.187 222.187 222.187 33.813-35.019-256-256.002z" />
<glyph unicode="&#xe90b;" glyph-name="logout" d="M247.465 64c-19.2 0-35.385 6.571-48.555 19.712-13.141 13.171-19.712 29.709-19.712 49.621v586.667c0 19.911 6.571 36.437 19.712 49.579 13.17 13.17 29.355 19.755 48.555 19.755h274.135v-42.667h-274.135c-6.4 0-12.259-2.674-17.579-8.021-5.347-5.319-8.021-11.534-8.021-18.645v-586.667c0-7.113 2.674-13.325 8.021-18.645 5.319-5.346 11.179-8.021 17.579-8.021h274.135v-42.667h-274.135zM694.4 275.2l-29.867 30.933 98.133 99.2h-369.069v42.667h369.069l-98.133 99.2 29.867 30.933 150.4-151.467-150.4-151.467z" />
<glyph unicode="&#xe90c;" glyph-name="more" d="M426.672 149.331c0-47.123 38.205-85.331 85.333-85.331s85.333 38.208 85.333 85.331c0 47.13-38.205 85.338-85.333 85.338s-85.333-38.208-85.333-85.338zM426.672 448c0-47.128 38.205-85.333 85.333-85.333s85.333 38.205 85.333 85.333c0 47.128-38.205 85.333-85.333 85.333s-85.333-38.205-85.333-85.333zM512.005 661.333c-47.128 0-85.333 38.205-85.333 85.334s38.205 85.333 85.333 85.333c47.128 0 85.333-38.205 85.333-85.333s-38.205-85.334-85.333-85.334z" />
<glyph unicode="&#xe90d;" glyph-name="settings" d="M432 64l-14.933 123.733c-13.511 3.554-28.259 9.771-44.245 18.645-16.014 8.905-29.355 18.334-40.021 28.288l-114.133-48-80 138.667 99.2 74.667c-1.422 7.113-2.659 14.763-3.712 22.955-1.081 8.162-1.621 16.158-1.621 23.979 0 7.113 0.541 14.763 1.621 22.955 1.053 8.162 2.29 16.866 3.712 26.112l-99.2 74.667 80 136.533 113.067-46.933c12.8 10.667 26.496 20.267 41.088 28.8 14.563 8.533 28.957 14.933 43.179 19.2l16 123.733h160l14.933-123.733c16.354-6.4 30.763-13.155 43.221-20.267 12.429-7.111 25.399-16.355 38.912-27.733l116.267 46.933 80-136.533-102.4-76.8c2.846-8.533 4.267-16.542 4.267-24.021v-21.845c0-6.4-0.171-13.342-0.512-20.821-0.371-7.454-1.621-16.512-3.755-27.179l100.267-74.667-80-138.667-114.133 49.067c-13.513-11.379-26.837-20.979-39.979-28.8-13.171-7.821-27.221-14.221-42.155-19.2l-14.933-123.733h-160zM510.933 341.333c29.867 0 55.113 10.313 75.733 30.933s30.933 45.867 30.933 75.733c0 29.867-10.313 55.113-30.933 75.733-20.621 20.622-45.867 30.933-75.733 30.933s-55.113-10.311-75.733-30.933c-20.622-20.621-30.933-45.867-30.933-75.733s10.311-55.113 30.933-75.733c20.621-20.621 45.867-30.933 75.733-30.933zM510.933 384c-17.779 0-32.883 6.229-45.312 18.688-12.459 12.429-18.688 27.533-18.688 45.312s6.229 32.883 18.688 45.312c12.429 12.459 27.533 18.688 45.312 18.688s32.896-6.229 45.355-18.688c12.429-12.429 18.645-27.533 18.645-45.312s-6.217-32.883-18.645-45.312c-12.459-12.459-27.575-18.688-45.355-18.688zM469.333 106.667h83.2l16 115.2c21.333 5.687 40.717 13.513 58.155 23.467 17.408 9.954 34.999 23.821 52.779 41.6l105.6-45.867 42.667 72.533-92.8 70.4c3.554 12.087 5.875 23.296 6.955 33.621 1.054 10.295 1.579 20.425 1.579 30.379 0 10.667-0.525 20.809-1.579 30.421-1.079 9.587-3.401 20.425-6.955 32.512l94.933 71.467-42.667 72.533-108.8-45.867c-12.8 14.222-29.683 27.563-50.645 40.021-20.992 12.43-41.088 20.779-60.288 25.045l-12.8 115.2h-85.333l-12.8-115.2c-21.333-4.267-41.074-11.549-59.221-21.845-18.119-10.325-36.067-24.377-53.845-42.155l-106.667 44.8-42.667-72.533 92.8-69.333c-3.555-9.246-6.045-19.554-7.467-30.933s-2.133-23.113-2.133-35.2c0-10.667 0.711-21.333 2.133-32s3.555-20.979 6.4-30.933l-91.733-70.4 42.667-72.533 105.6 44.8c17.067-17.067 34.489-30.579 52.267-40.533s38.046-17.779 60.8-23.467l13.867-115.2z" />
<glyph unicode="&#xe90e;" glyph-name="sound-off" d="M780.499 776.836c16.666 16.662 43.68 16.662 60.346 0 16.659-16.662 16.659-43.677 0-60.34l-72.838-72.836v-451.66c0-31.469-17.325-60.384-45.069-75.238-27.744-14.848-61.414-13.222-87.6 4.237l-170.502 113.67h-105.823l-115.503-115.507c-16.662-16.659-43.677-16.659-60.34 0-16.662 16.666-16.662 43.68 0 60.339l597.331 597.336zM444.345 320h33.409c8.424 0 16.659-2.496 23.667-7.168l181.254-120.832v102.56l-0.006 263.766-238.324-238.326zM635.338 775.002c11.485 7.658 24.413 12.27 37.654 13.78l-212.785-212.783h-161.535v-161.535l-85.333-85.334v246.868c0 47.128 38.205 85.334 85.333 85.334h166.163l170.502 113.668z" />
<glyph unicode="&#xe90f;" glyph-name="sound-on" d="M682.669 703.999c0 31.471-18.656 60.387-48.537 75.236s-66.139 13.222-94.338-4.235l-183.618-113.668h-136.278c-50.754 0-91.898-38.205-91.898-85.334v-255.999c0-47.13 41.144-85.331 91.898-85.331h136.278l183.618-113.67c28.199-17.459 64.457-19.085 94.338-4.237 29.881 14.854 48.537 43.77 48.537 75.238v511.999zM395.576 583.165l195.194 120.834v-511.999l-195.194 120.832c-7.548 4.672-16.417 7.168-25.488 7.168h-150.19v255.999h150.19c9.071 0 17.94 2.493 25.488 7.166zM844.89 601.48c-14.067 18.9-40.8 22.815-59.699 8.743-18.854-14.036-22.797-40.666-8.851-59.558l0.102-0.145c0.147-0.207 0.435-0.615 0.851-1.215 0.819-1.201 2.118-3.157 3.744-5.784 3.258-5.277 7.725-13.116 12.211-22.859 9.146-19.858 17.421-45.582 17.421-72.663s-8.275-52.806-17.421-72.664c-4.486-9.743-8.954-17.582-12.211-22.859-1.626-2.627-2.925-4.582-3.744-5.784-0.23-0.336-0.422-0.612-0.576-0.826-0.115-0.168-0.211-0.298-0.275-0.388l-0.102-0.145c-13.946-18.892-10.003-45.52 8.851-59.555 18.899-14.074 45.632-10.163 59.699 8.742l-34.221 25.478c34.221-25.478 34.246-25.446 34.253-25.44l0.038 0.051 0.083 0.109 0.211 0.288 0.602 0.832c0.474 0.672 1.101 1.562 1.862 2.669 1.51 2.208 3.539 5.28 5.92 9.133 4.742 7.674 10.938 18.581 17.12 32.002 12.186 26.469 25.242 64.746 25.242 108.356s-13.056 81.887-25.242 108.356c-6.182 13.421-12.378 24.326-17.12 32.004-2.381 3.851-4.41 6.924-5.92 9.133-0.762 1.105-1.389 1.997-1.862 2.664l-0.602 0.833-0.211 0.288-0.083 0.111-0.070 0.090zM810.669 575.999c34.221 25.48 34.214 25.491 34.221 25.48l-34.221-25.48z" />
<glyph unicode="&#xe910;" glyph-name="today" d="M274 108.937c-17.423 0-31.883 5.747-43.382 17.246-11.523 11.524-17.285 25.997-17.285 43.418v476.001c0 17.422 5.762 31.883 17.285 43.381 11.499 11.523 25.959 17.286 43.382 17.286h65.333v83.066h40.134v-83.066h267.868v83.066h37.333v-83.066h65.331c17.425 0 31.898-5.762 43.422-17.286 11.499-11.499 17.246-25.959 17.246-43.381v-476.001c0-17.421-5.747-31.893-17.246-43.418-11.524-11.499-25.997-17.246-43.422-17.246h-475.999zM274 146.27h475.999c6.225 0 11.661 2.338 16.316 7.019 4.681 4.651 7.019 10.091 7.019 16.311v326.669h-522.667v-326.669c0-6.221 2.339-11.661 7.019-16.311 4.654-4.681 10.092-7.019 16.315-7.019zM250.667 533.601h522.667v112c0 6.222-2.338 11.66-7.019 16.315-4.655 4.679-10.091 7.019-16.316 7.019h-475.999c-6.223 0-11.661-2.34-16.315-7.019-4.679-4.655-7.019-10.093-7.019-16.315v-112z" />
<glyph unicode="&#xe911;" glyph-name="trash" d="M441.724 753.403c-29.107 0-52.704-24.129-52.704-53.894v-17.965h245.963v17.965c0 29.765-23.599 53.894-52.706 53.894h-140.553zM670.118 681.544v17.965c0 49.609-39.33 89.824-87.842 89.824h-140.553c-48.513 0-87.841-40.216-87.841-89.824v-17.965h-140.549v-35.93h597.333v35.93h-140.548zM318.745 573.754v-377.262c0-29.769 23.597-53.897 52.706-53.897h281.097c29.111 0 52.706 24.128 52.706 53.897v377.262h35.136v-377.262c0-49.609-39.326-89.826-87.842-89.826h-281.097c-48.514 0-87.843 40.218-87.843 89.826v377.262h35.137zM459.294 537.824v-287.439h-35.137v287.439h35.137zM599.842 537.824v-287.439h-35.136v287.439h35.136z" />
<glyph unicode="&#xe912;" glyph-name="check" horiz-adv-x="1280" d="M426.624-29.312l-426.624 426.624 135.936 136.064 290.688-290.688 717.44 717.312 135.936-135.936-853.376-853.376z" />
<glyph unicode="&#xe913;" glyph-name="search" d="M830.933 100.267l-266.667 266.667c-21.333-17.779-45.867-31.646-73.6-41.6-27.733-9.958-55.467-14.933-83.2-14.933-68.978 0-127.104 23.65-174.379 70.955-47.303 47.275-70.955 105.045-70.955 173.311s23.651 126.051 70.955 173.355c47.275 47.275 105.045 70.912 173.312 70.912s126.221-23.637 173.867-70.912c47.646-47.303 71.467-105.088 71.467-173.355 0-29.866-5.333-58.666-16-86.399s-24.533-51.2-41.6-70.4l267.733-267.733-30.933-29.867zM407.466 353.067c56.18 0 103.821 19.371 142.934 58.112 39.113 38.767 58.667 86.596 58.667 143.487 0 56.889-19.554 104.718-58.667 143.488-39.113 38.741-86.754 58.112-142.934 58.112-56.889 0-104.889-19.371-144-58.112-39.111-38.77-58.667-86.599-58.667-143.488 0-56.891 19.555-104.72 58.667-143.487 39.111-38.741 87.111-58.112 144-58.112z" />
<glyph unicode="&#xe914;" glyph-name="dragndrop" d="M648.567 672.861l-126.929 126.929-126.93-126.929 30.17-30.17 75.436 75.434v-200.153h42.667v200.135l75.418-75.417 30.17 30.17zM810.667 426.735h-597.333v42.667h597.333v-42.667zM500.314 178.014v200.154h42.667v-200.137l75.418 75.418 30.17-30.174-126.929-126.925-126.93 126.925 30.17 30.174 75.436-75.435z" />
<glyph unicode="&#xe915;" glyph-name="download" d="M533.338 768v-481.83l192 192 30.17-30.17-228.42-228.42c-8.329-8.329-21.837-8.329-30.17 0l-228.417 228.42 30.17 30.17 192.001-192v481.83h42.667zM277.337 128h469.334v-42.667h-469.334v42.667z" />
<glyph unicode="&#xe916;" glyph-name="plus" d="M810.667 426.667h-597.333v42.667h597.333v-42.667zM533.333 746.667v-597.333h-42.667v597.333h42.667z" />
<glyph unicode="&#xe917;" glyph-name="minus" d="M810.667 426.667h-597.333v42.667h597.333v-42.667z" />
</font>
</defs>
</svg>
