<svg width="24" height="24" viewBox="0 0 24 24" fill="none" xmlns="http://www.w3.org/2000/svg">
<path d="M12.1651 6.34591C12.7355 6.29874 13.2908 6.15723 13.8161 5.93711C14.4465 5.68553 15.122 5.54403 15.7974 5.5283C16.6679 5.5283 17.5235 5.77987 18.2439 6.29874C18.6942 6.64465 19.0994 7.05346 19.4447 7.50943C18.9493 7.91824 18.5141 8.40566 18.1388 8.92453C17.6435 9.6478 17.3884 10.5126 17.3884 11.4088C17.3884 12.3679 17.6585 13.3113 18.1839 14.0975C18.6041 14.805 19.2495 15.3396 20 15.6069C19.6698 16.6761 19.1895 17.6981 18.5741 18.6258C17.5835 20.1981 16.5929 20.9843 15.6173 20.9843C15.0619 20.9528 14.5216 20.8113 14.0113 20.5912C13.4559 20.3553 12.8705 20.2296 12.2852 20.1981C11.7148 20.2138 11.1595 20.3553 10.6492 20.6069C10.1689 20.8428 9.65854 20.9843 9.13321 21.0157C7.96248 21.0157 6.80675 19.978 5.68105 17.9025C4.63039 16.0629 4.04503 13.9717 4 11.8333C3.93996 10.2296 4.39024 8.64151 5.29081 7.3522C6.04128 6.25157 7.25704 5.60692 8.54784 5.62264C9.23827 5.63836 9.9137 5.76415 10.5741 5.98428C11.0844 6.15723 11.6248 6.28302 12.1651 6.33019V6.34591ZM15.6773 1.50314C15.6773 2.06918 15.5572 2.6195 15.3471 3.13836C15.1069 3.7673 14.7467 4.31761 14.2814 4.78931C13.9362 5.16667 13.5159 5.46541 13.0356 5.65409C12.6454 5.76415 12.2552 5.82704 11.8499 5.85849C11.8499 4.75786 12.1501 3.68868 12.7355 2.77673C13.4409 1.81761 14.4615 1.18868 15.6023 1C15.6323 1.09434 15.6473 1.17296 15.6623 1.2673C15.6623 1.34591 15.6623 1.42453 15.6623 1.50314H15.6773Z" fill="white"/>
</svg>
