<svg width="24" height="24" viewBox="0 0 24 24" fill="none" xmlns="http://www.w3.org/2000/svg">
<g clip-path="url(#clip0_2795_10227)">
<path fill-rule="evenodd" clip-rule="evenodd" d="M22 12.2282C22 11.5366 21.9399 10.8596 21.8197 10.1826H12.2029V14.0531H17.6875C17.4621 15.2893 16.7258 16.3783 15.6589 17.07V19.5719H18.9497C20.9782 17.6587 22.0902 14.995 22 12.2282Z" fill="#4285F4"/>
<path fill-rule="evenodd" clip-rule="evenodd" d="M12.2029 21.9853C14.6822 22.0589 17.1014 21.1906 18.9497 19.557L15.6589 17.0552C12.7889 18.8506 8.98724 18.0412 7.15404 15.2303C6.88356 14.8183 6.65817 14.362 6.49288 13.8911H3.08191V16.4813C4.80993 19.8514 8.34111 21.9853 12.2029 21.9853Z" fill="#34A853"/>
<path fill-rule="evenodd" clip-rule="evenodd" d="M6.49286 13.891C6.07213 12.6548 6.07213 11.3302 6.49286 10.094V7.50391H3.08189C1.63937 10.3295 1.63937 13.6555 3.08189 16.4811L6.49286 13.891Z" fill="#FBBC05"/>
<path fill-rule="evenodd" clip-rule="evenodd" d="M12.2029 5.9737C13.6604 5.94427 15.0579 6.48879 16.1097 7.47481L19.0248 4.60505C17.1916 2.89791 14.7423 1.97076 12.2029 2.00019C8.34111 2.00019 4.82496 4.13411 3.08191 7.50424L6.49288 10.0944C7.28927 7.66612 9.58829 6.00313 12.2029 5.9737Z" fill="#EA4335"/>
</g>
<defs>
<clipPath id="clip0_2795_10227">
<rect width="20" height="20" fill="white" transform="translate(2 2)"/>
</clipPath>
</defs>
</svg>
