<svg width="16" height="20" viewBox="0 0 16 20" fill="none" xmlns="http://www.w3.org/2000/svg">
<path d="M8.1651 5.34591C8.73546 5.29874 9.29081 5.15723 9.81613 4.93711C10.4465 4.68553 11.122 4.54403 11.7974 4.5283C12.6679 4.5283 13.5235 4.77987 14.2439 5.29874C14.6942 5.64465 15.0994 6.05346 15.4447 6.50943C14.9493 6.91824 14.5141 7.40566 14.1388 7.92453C13.6435 8.6478 13.3884 9.51258 13.3884 10.4088C13.3884 11.3679 13.6585 12.3113 14.1839 13.0975C14.6041 13.805 15.2495 14.3396 16 14.6069C15.6698 15.6761 15.1895 16.6981 14.5741 17.6258C13.5835 19.1981 12.5929 19.9843 11.6173 19.9843C11.0619 19.9528 10.5216 19.8113 10.0113 19.5912C9.45591 19.3553 8.87054 19.2296 8.28518 19.1981C7.71482 19.2138 7.15947 19.3553 6.64916 19.6069C6.16885 19.8428 5.65854 19.9843 5.13321 20.0157C3.96248 20.0157 2.80675 18.978 1.68105 16.9025C0.630394 15.0629 0.0450278 12.9717 -3.45986e-07 10.8333C-0.0600379 9.22956 0.390244 7.64151 1.29081 6.3522C2.04128 5.25157 3.25704 4.60692 4.54784 4.62264C5.23827 4.63836 5.9137 4.76415 6.57411 4.98428C7.08443 5.15723 7.62476 5.28302 8.1651 5.33019V5.34591ZM11.6773 0.503145C11.6773 1.06918 11.5572 1.6195 11.3471 2.13836C11.1069 2.7673 10.7467 3.31761 10.2814 3.78931C9.93621 4.16667 9.51595 4.46541 9.03565 4.65409C8.6454 4.76415 8.25516 4.82704 7.84991 4.85849C7.84991 3.75786 8.15009 2.68868 8.73546 1.77673C9.4409 0.81761 10.4615 0.188679 11.6023 0C11.6323 0.0943396 11.6473 0.172956 11.6623 0.267296C11.6623 0.345912 11.6623 0.424528 11.6623 0.503145H11.6773Z" fill="white"/>
</svg>
