<svg width="20" height="20" viewBox="0 0 20 20" fill="none" xmlns="http://www.w3.org/2000/svg">
<g clip-path="url(#clip0_2378_17102)">
<path fill-rule="evenodd" clip-rule="evenodd" d="M20 10.2282C20 9.53655 19.9399 8.85959 19.8197 8.18262H10.2029V12.0531H15.6874C15.4621 13.2893 14.7258 14.3783 13.6589 15.07V17.5719H16.9497C18.9782 15.6587 20.0902 12.995 20 10.2282Z" fill="#4285F4"/>
<path fill-rule="evenodd" clip-rule="evenodd" d="M10.2028 19.9848C12.6822 20.0584 15.1014 19.1901 16.9496 17.5566L13.6589 15.0547C10.7889 16.8502 6.98721 16.0407 5.154 13.2298C4.88353 12.8178 4.65814 12.3616 4.49285 11.8906H1.08188V14.4808C2.8099 17.8509 6.34108 19.9848 10.2028 19.9848Z" fill="#34A853"/>
<path fill-rule="evenodd" clip-rule="evenodd" d="M4.49286 11.891C4.07213 10.6548 4.07213 9.33025 4.49286 8.09405V5.50391H1.08189C-0.360631 8.32951 -0.360631 11.6555 1.08189 14.4811L4.49286 11.891Z" fill="#FBBC05"/>
<path fill-rule="evenodd" clip-rule="evenodd" d="M10.2028 3.97321C11.6604 3.94378 13.0578 4.4883 14.1097 5.47432L17.0248 2.60456C15.1916 0.897422 12.7423 -0.0297301 10.2028 -0.000296686C6.34108 -0.000296686 2.82493 2.13363 1.08188 5.50375L4.49285 8.09389C5.28924 5.66563 7.58826 4.00265 10.2028 3.97321Z" fill="#EA4335"/>
</g>
<defs>
<clipPath id="clip0_2378_17102">
<rect width="20" height="20" fill="white"/>
</clipPath>
</defs>
</svg>
