<svg width="32" height="32" viewBox="0 0 32 32" fill="none" xmlns="http://www.w3.org/2000/svg">
<path fill-rule="evenodd" clip-rule="evenodd" d="M12 6H6V12H12V6ZM4 4V14H14V4H4Z" fill="#A5B195"/>
<path fill-rule="evenodd" clip-rule="evenodd" d="M12 20H6V26H12V20ZM4 18V28H14V18H4Z" fill="#A5B195"/>
<path fill-rule="evenodd" clip-rule="evenodd" d="M26 6H20V12H26V6ZM18 4V14H28V4H18Z" fill="#A5B195"/>
<path fill-rule="evenodd" clip-rule="evenodd" d="M18 18H22V21H24V18H28V22H25V24H28V28H24V25H22V28H18V24H21V22H18V18Z" fill="#A5B195"/>
</svg>
