<svg width="66" height="19" viewBox="0 0 66 19" fill="none" xmlns="http://www.w3.org/2000/svg">
<path d="M6.972 4.62C6.58 3.836 5.88 3.388 5.292 2.996C4.9 2.996 4.284 2.8 3.892 3.192L4.088 3.388C3.472 3.388 3.668 4.2 3.108 4.004C2.716 4.396 1.4 5.264 1.4 5.908C1.596 6.104 1.792 6.104 1.792 6.272V6.468C1.596 6.272 1.4 6.468 1.204 6.272C1.204 6.664 0.812 6.888 0.616 7.28C0.616 7.504 0.812 7.56 0.812 7.756C0.812 8.148 0.392 8.54 0.392 8.932C0.392 8.932 0.392 8.932 0.616 8.736L0.812 8.932L0.392 9.156C0.616 9.156 0.616 9.352 0.616 9.352C0.392 9.352 0.392 9.744 0.196 9.548V9.744C0.196 10.164 0.196 10.164 0.392 10.528C0.392 10.724 0.196 10.528 0 10.724C0.616 11.368 -0.196 11.564 0.196 12.152C1.204 12.152 0 12.964 0.812 12.964L0.616 13.16L1.008 13.356C1.204 13.748 0.812 13.748 0.812 13.944C1.008 13.944 1.204 14.224 1.4 14.448L1.008 14.672C1.204 15.036 1.596 14.672 1.792 15.036H1.4L1.988 15.232C2.436 15.428 2.968 15.344 3.276 15.428L3.108 15.232H3.276C3.668 15.82 4.508 15.624 5.292 15.624C5.88 15.82 6.3 15.428 7.112 15.232C7.476 14.672 8.316 15.036 8.904 14.672H8.512C8.316 14.224 9.268 14.672 9.268 14.028C9.688 14.028 10.136 13.384 10.5 13.076C10.192 12.768 9.492 12.348 9.1 12.348C7.28 12.768 5.992 13.748 4.004 13.972C3.22 13.328 3.5 12.74 2.66 11.956C2.66 11.564 3.108 11.144 2.66 10.724C3.108 10.528 2.66 10.164 2.884 9.744C2.884 9.548 3.304 9.156 2.884 9.156C3.108 8.736 2.884 8.708 3.108 8.512C3.5 8.12 2.884 7.448 3.444 6.832C3.444 5.852 4.508 5.264 5.096 4.676C5.488 4.508 6.16 5.208 6.58 4.62C6.58 4.62 6.972 4.816 6.972 4.62Z" fill="#111111"/>
<path d="M17.3298 6.496C16.6018 6.496 15.5938 5.516 14.8938 5.348C13.8298 6.048 13.2978 7.672 12.5978 8.736C12.4018 8.904 12.7658 9.072 12.4018 9.268C12.4018 9.604 12.0658 10.136 12.4018 10.332L12.2338 10.5C12.0658 10.5 12.4018 11.032 11.8698 11.2C12.4018 11.2 12.0658 11.732 12.0658 11.9C12.0658 12.096 12.2338 12.096 12.4018 12.264L11.8698 12.6C12.0658 12.964 12.0658 13.552 12.4018 13.552C12.4018 13.72 12.2338 13.72 12.2338 13.916H12.4018L12.5418 14.084L12.4018 14.252H12.7658C13.1298 14.952 14.0818 14.252 14.6138 14.616C15.3698 14.308 16.2098 13.72 16.7418 13.384L16.7698 13.048C16.6858 13.048 16.5458 13.048 16.4618 12.964C16.6578 12.432 17.1618 12.6 17.5258 12.6C17.5258 12.264 17.3578 12.432 17.1618 12.264C17.1618 12.096 17.3578 12.264 17.5258 12.264C17.5258 11.9 17.5258 11.9 17.6938 11.732C17.6938 11.2 18.4218 11.368 18.4218 11.032C18.4218 10.836 18.0578 11.032 18.0578 10.836C18.2258 10.668 18.4218 10.668 18.5898 10.668C18.4218 10.332 18.7578 10.332 18.7578 10.136C18.7578 9.8 18.4218 9.968 18.4218 9.604C18.5898 9.604 18.7578 9.604 18.7578 9.436C18.9258 8.904 18.2258 9.072 18.2258 8.568H18.5898C18.5898 8.204 18.2258 8.036 18.4218 7.84C18.2258 7.672 18.0578 7.672 17.8898 7.504L18.0578 7.308L17.3298 6.496ZM16.4058 8.232C16.5738 8.596 17.1058 9.1 16.7698 9.464C16.5738 9.632 16.7698 9.828 16.7698 9.828C16.0978 10.948 15.1178 12.012 13.8858 12.376C13.8858 12.376 13.8858 12.012 13.8858 11.844L14.0538 11.676C13.7178 11.508 13.8858 11.34 13.8858 11.004C14.0538 10.808 14.0538 10.64 14.0538 10.472C14.5858 10.472 13.8858 9.996 14.2218 9.632C14.2218 9.464 14.3898 9.38 14.1938 9.212C14.5578 9.212 14.5298 8.708 14.6978 8.512C14.5298 8.344 14.6978 8.008 14.8938 7.812C15.0618 7.812 15.2298 8.008 15.2298 7.812V7.644C15.3978 7.644 15.3418 7.98 15.8738 7.98L16.4058 8.232Z" fill="#111111"/>
<path d="M27.3026 0C27.1346 0 26.3226 0.532 26.8266 0.867999C26.8266 1.064 26.6586 0.867999 26.4906 1.064L26.3226 1.232C26.3226 1.232 26.4906 1.232 26.4906 1.4L26.6586 1.064C27.0226 1.596 28.1706 1.596 28.7026 1.596L28.6746 1.764C29.1506 1.848 29.0946 2.464 29.6826 2.464L29.5146 2.632C29.6826 2.828 29.9626 3.136 30.2986 3.052C30.5226 1.848 29.4586 1.568 29.0666 0.504C28.8986 0.14 27.6666 0.364 27.3026 0ZM27.3586 1.596C27.0226 1.596 26.8826 1.428 26.5186 1.428C26.4346 1.68 26.3226 1.764 26.3226 1.932C26.4906 1.932 26.4906 1.764 26.6586 1.764C26.8266 1.932 27.1906 1.596 27.1906 1.932L26.8266 2.128C26.6586 2.464 26.1266 1.932 25.9586 2.296L26.0986 2.464L25.9866 2.492C25.7906 2.632 25.7906 3.052 25.7906 3.164V3.36C25.9586 3.528 25.7906 3.696 25.5946 3.696C25.4266 4.06 25.9586 3.892 25.9586 4.06C25.9586 4.228 25.7906 4.06 25.7906 4.06C25.4266 4.228 25.2586 4.592 25.4266 4.928H25.7906C25.5946 5.124 25.5946 5.124 25.4266 5.124C25.2586 5.46 25.2586 5.824 25.2586 5.992L25.0626 6.16C25.2586 6.16 25.2586 6.16 25.2586 6.16C25.2586 6.524 24.8946 6.356 25.0626 6.692C25.2586 7.056 24.7266 7.224 25.0626 7.42C24.5586 7.756 24.8946 8.344 24.7266 8.708C24.8946 8.708 24.8946 8.876 24.8946 8.876C24.8946 8.876 25.0626 8.876 25.0626 9.044C25.0626 9.24 24.8946 9.044 24.8946 9.24C24.7266 9.408 24.7266 9.408 24.8946 9.576C24.7266 9.94 24.3626 10.108 24.0266 10.108C22.9626 10.808 21.5346 11.34 20.8346 12.572C20.6666 12.768 20.8346 13.412 20.4986 13.58C20.4986 13.748 20.6666 13.748 20.8346 13.944C20.6666 14.112 20.6666 13.944 20.4986 14.112C20.6666 14.112 20.6666 14.28 20.6666 14.28C20.8346 14.476 21.1986 14.588 21.3666 14.588L21.6466 14.56L21.7306 14.504L21.9546 14.532C22.2346 14.364 22.4026 13.888 22.7946 13.888L22.7106 13.748L22.9626 13.692C23.2986 12.992 23.8306 12.992 24.3626 12.628C24.7266 12.46 25.0626 12.628 25.2586 12.992C24.8946 13.524 25.2586 14.056 25.2586 14.392H25.0626C25.0626 14.756 25.5946 15.288 25.0626 15.456L25.4266 15.82C25.2586 16.52 25.5946 17.052 25.5946 17.752L25.4266 17.92C25.5946 17.92 25.4266 18.116 25.4266 18.116C25.7906 18.284 26.5186 18.452 26.8826 18.116C26.6866 17.752 27.5266 17.92 27.6946 17.584C27.3306 17.416 27.6946 16.884 27.3306 16.688C27.3306 16.52 27.5266 16.688 27.5266 16.688C27.6946 16.52 27.3306 16.156 27.5266 15.988C27.3306 15.988 27.3306 15.988 27.3306 15.82C27.5266 15.82 27.5266 15.82 27.5266 15.82C27.6946 15.456 27.3306 15.652 27.1626 15.456H27.3306C27.5266 15.288 27.5266 15.288 27.5266 15.12C27.1626 14.924 27.8626 14.224 27.1626 14.056C27.3306 14.056 27.3306 13.888 27.5266 13.888V13.692H27.3306C27.3306 13.524 27.3306 12.992 27.5266 12.824C27.1626 12.824 27.3026 12.572 27.2746 12.432L27.3306 11.928C28.0586 11.592 28.7586 11.06 29.4586 10.696C29.6266 11.06 29.9906 10.528 30.1586 10.36C30.5226 10.164 30.8306 10.752 31.1946 10.22L31.2226 10.164C31.3906 9.996 31.3906 9.996 31.5866 9.996C31.5866 9.464 32.3146 9.688 32.3146 9.184L32.0346 8.176C31.1666 7.812 30.3266 8.288 29.4586 8.456C28.7586 8.456 27.8626 9.184 27.3306 8.652C27.6946 8.288 26.9946 7.644 27.3306 7.28C27.3306 7.28 27.3306 7.28 27.1626 7.28C27.8626 6.944 26.9946 6.748 27.1626 6.412C27.3306 6.412 27.3306 6.244 27.5266 6.244C27.6946 5.88 27.3306 5.348 27.6946 5.348L27.5266 4.984C27.8626 4.648 27.6946 4.396 27.5266 4.06C27.6946 3.696 27.8626 4.228 27.8626 3.892C27.8626 3.892 27.8626 3.696 27.6946 3.696L27.8626 3.528C27.8626 2.996 28.1706 2.576 28.3386 2.044C28.3386 2.044 27.5546 1.932 27.1906 1.764L27.3586 1.596Z" fill="#111111"/>
<path d="M40.1268 0C39.9588 0 39.1468 0.532 39.6508 0.867999C39.6508 1.064 39.4828 0.867999 39.3148 1.064L39.1468 1.232C39.1468 1.232 39.3148 1.232 39.3148 1.4L39.4828 1.064C39.8468 1.596 40.9948 1.596 41.5268 1.596L41.4988 1.764C41.9748 1.848 41.9188 2.464 42.5068 2.464L42.3388 2.632C42.5068 2.828 42.7868 3.136 43.1228 3.052C43.3468 1.848 42.2828 1.568 41.8908 0.504C41.7228 0.14 40.4908 0.364 40.1268 0ZM40.1828 1.596C39.8468 1.596 39.7068 1.428 39.3428 1.428C39.2588 1.68 39.1468 1.764 39.1468 1.932C39.3148 1.932 39.3148 1.764 39.4828 1.764C39.6508 1.932 40.0148 1.596 40.0148 1.932L39.6508 2.128C39.4828 2.464 38.9508 1.932 38.7828 2.296L38.9228 2.464L38.8108 2.492C38.6148 2.632 38.6148 3.052 38.6148 3.164V3.36C38.7828 3.528 38.6148 3.696 38.4188 3.696C38.2508 4.06 38.7828 3.892 38.7828 4.06C38.7828 4.228 38.6148 4.06 38.6148 4.06C38.2508 4.228 38.0828 4.592 38.2508 4.928H38.6148C38.4188 5.124 38.4188 5.124 38.2508 5.124C38.0828 5.46 38.0828 5.824 38.0828 5.992L37.8868 6.16C38.0828 6.16 38.0828 6.16 38.0828 6.16C38.0828 6.524 37.7188 6.356 37.8868 6.692C38.0828 7.056 37.5508 7.224 37.8868 7.42C37.3828 7.756 37.7188 8.344 37.5508 8.708C37.7188 8.708 37.7188 8.876 37.7188 8.876C37.7188 8.876 37.8868 8.876 37.8868 9.044C37.8868 9.24 37.7188 9.044 37.7188 9.24C37.5508 9.408 37.5508 9.408 37.7188 9.576C37.5508 9.94 37.1868 10.108 36.8508 10.108C35.7868 10.808 34.3588 11.34 33.6588 12.572C33.4908 12.768 33.6588 13.412 33.3228 13.58C33.3228 13.748 33.4908 13.748 33.6588 13.944C33.4908 14.112 33.4908 13.944 33.3228 14.112C33.4908 14.112 33.4908 14.28 33.4908 14.28C33.6588 14.476 34.0228 14.588 34.1908 14.588L34.4708 14.56L34.5548 14.504L34.7788 14.532C35.0588 14.364 35.2268 13.888 35.6188 13.888L35.5348 13.748L35.7868 13.692C36.1228 12.992 36.6548 12.992 37.1868 12.628C37.5508 12.46 37.8868 12.628 38.0828 12.992C37.7188 13.524 38.0828 14.056 38.0828 14.392H37.8868C37.8868 14.756 38.4188 15.288 37.8868 15.456L38.2508 15.82C38.0828 16.52 38.4188 17.052 38.4188 17.752L38.2508 17.92C38.4188 17.92 38.2508 18.116 38.2508 18.116C38.6148 18.284 39.3428 18.452 39.7068 18.116C39.5108 17.752 40.3508 17.92 40.5188 17.584C40.1548 17.416 40.5188 16.884 40.1548 16.688C40.1548 16.52 40.3508 16.688 40.3508 16.688C40.5188 16.52 40.1548 16.156 40.3508 15.988C40.1548 15.988 40.1548 15.988 40.1548 15.82C40.3508 15.82 40.3508 15.82 40.3508 15.82C40.5188 15.456 40.1548 15.652 39.9868 15.456H40.1548C40.3508 15.288 40.3508 15.288 40.3508 15.12C39.9868 14.924 40.6868 14.224 39.9868 14.056C40.1548 14.056 40.1548 13.888 40.3508 13.888V13.692H40.1548C40.1548 13.524 40.1548 12.992 40.3508 12.824C39.9868 12.824 40.1268 12.572 40.0988 12.432L40.1548 11.928C40.8828 11.592 41.5828 11.06 42.2828 10.696C42.4508 11.06 42.8148 10.528 42.9828 10.36C43.3468 10.164 43.6548 10.752 44.0188 10.22L44.0468 10.164C44.2148 9.996 44.2148 9.996 44.4108 9.996C44.4108 9.464 45.1388 9.688 45.1388 9.184L44.8588 8.176C43.9908 7.812 43.1508 8.288 42.2828 8.456C41.5828 8.456 40.6868 9.184 40.1548 8.652C40.5188 8.288 39.8188 7.644 40.1548 7.28C40.1548 7.28 40.1548 7.28 39.9868 7.28C40.6868 6.944 39.8188 6.748 39.9868 6.412C40.1548 6.412 40.1548 6.244 40.3508 6.244C40.5188 5.88 40.1548 5.348 40.5188 5.348L40.3508 4.984C40.6868 4.648 40.5188 4.396 40.3508 4.06C40.5188 3.696 40.6868 4.228 40.6868 3.892C40.6868 3.892 40.6868 3.696 40.5188 3.696L40.6868 3.528C40.6868 2.996 40.9948 2.576 41.1628 2.044C41.1628 2.044 40.3788 1.932 40.0148 1.764L40.1828 1.596Z" fill="#111111"/>
<path d="M54.1831 6.944C53.3151 5.516 50.8231 4.676 49.3951 5.74C48.6951 6.076 47.9671 7.252 47.6031 7.784C47.7711 7.784 47.9671 7.784 48.1351 7.98L47.7711 8.148C47.4351 8.316 47.2671 8.484 47.0711 8.848C47.2671 8.848 47.4351 9.016 47.4351 9.212H47.6031L47.7711 9.38C47.6031 9.38 47.1551 9.212 46.9871 9.548C47.1551 9.548 47.1551 9.548 47.1551 9.548L46.9871 9.744L47.1551 9.912C46.9871 10.08 46.8191 10.08 46.6511 10.248H46.9871L46.4551 10.612C46.6511 10.612 46.8191 10.444 46.9871 10.612C46.9871 10.78 46.6511 10.612 46.6511 10.78C46.6511 10.78 46.8191 10.78 46.8191 10.976H46.6511L46.9871 11.312C46.9871 11.676 46.4551 11.508 46.4551 12.012C46.8191 12.012 46.9871 11.844 47.1551 11.844C47.1551 12.012 46.8191 12.012 46.8191 12.208L47.1551 12.376L46.9871 12.544C46.9871 12.544 46.9871 12.74 47.1551 12.908C46.8191 13.076 47.3511 13.272 46.9871 13.608H47.1551C47.3511 13.608 47.3511 13.916 47.3511 14.084L47.8831 14.252L47.6871 14.448L47.8831 14.616L47.9391 14.756C48.1071 14.756 48.3031 14.784 48.4151 14.952C48.4151 15.316 49.4791 15.764 49.6751 16.1C50.0111 16.1 50.5431 16.632 50.9071 16.296L51.0751 16.464C51.2431 16.632 51.9711 16.464 51.9711 16.632C52.1391 16.632 52.1391 16.464 52.3071 16.632C53.0071 16.828 53.7351 16.632 54.4351 16.464C54.6031 16.1 55.1351 16.464 54.9671 16.1C55.1351 16.1 55.4991 15.708 55.4991 15.512C55.1351 14.896 53.5391 15.428 52.6711 15.428C51.2431 15.092 50.0391 14.224 49.6191 12.908C49.0871 12.74 49.5911 12.32 49.0591 12.152L49.3951 11.956V11.788C49.2271 11.62 49.2271 11.62 49.3951 11.256C49.2271 11.256 49.2271 11.256 49.0591 11.088H49.2271C49.3951 10.724 49.3951 10.724 49.3951 10.388C49.7591 10.724 49.9271 10.024 50.2911 10.556C50.6271 10.192 50.6831 10.024 51.2151 9.856C51.5791 9.856 51.5791 9.66 51.7471 9.492C52.8111 9.324 53.1751 8.624 53.8751 8.092C53.7071 8.092 53.7071 8.092 53.5111 7.896C54.0711 7.784 54.1271 7.336 54.1831 6.944ZM51.3831 6.44C51.3831 6.608 51.3831 6.608 51.5511 6.608C51.8871 6.608 51.7191 6.972 52.0831 7.14C51.7751 8.316 50.4591 8.764 49.2271 9.1C49.2271 8.932 49.3951 9.016 49.3951 8.848C49.3951 8.848 49.3951 8.848 49.3951 8.68L49.5911 8.484L49.4231 8.288L49.2271 8.316L49.6471 7.868L49.7591 7.784L50.2071 7.336C49.8431 7.168 50.2071 7.168 50.2071 7L50.2351 6.86L50.2071 6.636C50.3751 7 50.8511 6.44 51.3831 6.44Z" fill="#111111"/>
<path d="M63.8081 6.944C62.9401 5.516 60.4481 4.676 59.0201 5.74C58.3201 6.076 57.5921 7.252 57.2281 7.784C57.3961 7.784 57.5921 7.784 57.7601 7.98L57.3961 8.148C57.0601 8.316 56.8921 8.484 56.6961 8.848C56.8921 8.848 57.0601 9.016 57.0601 9.212H57.2281L57.3961 9.38C57.2281 9.38 56.7801 9.212 56.6121 9.548C56.7801 9.548 56.7801 9.548 56.7801 9.548L56.6121 9.744L56.7801 9.912C56.6121 10.08 56.4441 10.08 56.2761 10.248H56.6121L56.0801 10.612C56.2761 10.612 56.4441 10.444 56.6121 10.612C56.6121 10.78 56.2761 10.612 56.2761 10.78C56.2761 10.78 56.4441 10.78 56.4441 10.976H56.2761L56.6121 11.312C56.6121 11.676 56.0801 11.508 56.0801 12.012C56.4441 12.012 56.6121 11.844 56.7801 11.844C56.7801 12.012 56.4441 12.012 56.4441 12.208L56.7801 12.376L56.6121 12.544C56.6121 12.544 56.6121 12.74 56.7801 12.908C56.4441 13.076 56.9761 13.272 56.6121 13.608H56.7801C56.9761 13.608 56.9761 13.916 56.9761 14.084L57.5081 14.252L57.3121 14.448L57.5081 14.616L57.5641 14.756C57.7321 14.756 57.9281 14.784 58.0401 14.952C58.0401 15.316 59.1041 15.764 59.3001 16.1C59.6361 16.1 60.1681 16.632 60.5321 16.296L60.7001 16.464C60.8681 16.632 61.5961 16.464 61.5961 16.632C61.7641 16.632 61.7641 16.464 61.9321 16.632C62.6321 16.828 63.3601 16.632 64.0601 16.464C64.2281 16.1 64.7601 16.464 64.5921 16.1C64.7601 16.1 65.1241 15.708 65.1241 15.512C64.7601 14.896 63.1641 15.428 62.2961 15.428C60.8681 15.092 59.6641 14.224 59.2441 12.908C58.7121 12.74 59.2161 12.32 58.6841 12.152L59.0201 11.956V11.788C58.8521 11.62 58.8521 11.62 59.0201 11.256C58.8521 11.256 58.8521 11.256 58.6841 11.088H58.8521C59.0201 10.724 59.0201 10.724 59.0201 10.388C59.3841 10.724 59.5521 10.024 59.9161 10.556C60.2521 10.192 60.3081 10.024 60.8401 9.856C61.2041 9.856 61.2041 9.66 61.3721 9.492C62.4361 9.324 62.8001 8.624 63.5001 8.092C63.3321 8.092 63.3321 8.092 63.1361 7.896C63.6961 7.784 63.7521 7.336 63.8081 6.944ZM61.0081 6.44C61.0081 6.608 61.0081 6.608 61.1761 6.608C61.5121 6.608 61.3441 6.972 61.7081 7.14C61.4001 8.316 60.0841 8.764 58.8521 9.1C58.8521 8.932 59.0201 9.016 59.0201 8.848C59.0201 8.848 59.0201 8.848 59.0201 8.68L59.2161 8.484L59.0481 8.288L58.8521 8.316L59.2721 7.868L59.3841 7.784L59.8321 7.336C59.4681 7.168 59.8321 7.168 59.8321 7L59.8601 6.86L59.8321 6.636C60.0001 7 60.4761 6.44 61.0081 6.44Z" fill="#111111"/>
</svg>
