<svg width="66" height="19" viewBox="0 0 66 19" fill="none" xmlns="http://www.w3.org/2000/svg">
<path d="M7.4095 4.96473C7.0175 4.18073 6.3175 3.73273 5.7295 3.34073C5.3375 3.34073 4.7215 3.14473 4.3295 3.53673L4.5255 3.73273C3.9095 3.73273 4.1055 4.54473 3.5455 4.34873C3.1535 4.74073 1.8375 5.60873 1.8375 6.25273C2.0335 6.44873 2.2295 6.44873 2.2295 6.61673V6.81273C2.0335 6.61673 1.8375 6.81273 1.6415 6.61673C1.6415 7.00873 1.2495 7.23273 1.0535 7.62473C1.0535 7.84873 1.2495 7.90473 1.2495 8.10073C1.2495 8.49273 0.8295 8.88473 0.8295 9.27673C0.8295 9.27673 0.8295 9.27673 1.0535 9.08073L1.2495 9.27673L0.8295 9.50073C1.0535 9.50073 1.0535 9.69673 1.0535 9.69673C0.8295 9.69673 0.8295 10.0887 0.6335 9.89273V10.0887C0.6335 10.5087 0.6335 10.5087 0.8295 10.8727C0.8295 11.0687 0.6335 10.8727 0.4375 11.0687C1.0535 11.7127 0.2415 11.9087 0.6335 12.4967C1.6415 12.4967 0.4375 13.3087 1.2495 13.3087L1.0535 13.5047L1.4455 13.7007C1.6415 14.0927 1.2495 14.0927 1.2495 14.2887C1.4455 14.2887 1.6415 14.5687 1.8375 14.7927L1.4455 15.0167C1.6415 15.3807 2.0335 15.0167 2.2295 15.3807H1.8375L2.4255 15.5767C2.8735 15.7727 3.4055 15.6887 3.7135 15.7727L3.5455 15.5767H3.7135C4.1055 16.1647 4.9455 15.9687 5.7295 15.9687C6.3175 16.1647 6.7375 15.7727 7.5495 15.5767C7.9135 15.0167 8.7535 15.3807 9.3415 15.0167H8.9495C8.7535 14.5687 9.7055 15.0167 9.7055 14.3727C10.1255 14.3727 10.5735 13.7287 10.9375 13.4207C10.6295 13.1127 9.9295 12.6927 9.5375 12.6927C7.7175 13.1127 6.4295 14.0927 4.4415 14.3167C3.6575 13.6727 3.9375 13.0847 3.0975 12.3007C3.0975 11.9087 3.5455 11.4887 3.0975 11.0687C3.5455 10.8727 3.0975 10.5087 3.3215 10.0887C3.3215 9.89273 3.7415 9.50073 3.3215 9.50073C3.5455 9.08073 3.3215 9.05273 3.5455 8.85673C3.9375 8.46473 3.3215 7.79273 3.8815 7.17673C3.8815 6.19673 4.9455 5.60873 5.5335 5.02073C5.9255 4.85273 6.5975 5.55273 7.0175 4.96473C7.0175 4.96473 7.4095 5.16073 7.4095 4.96473Z" fill="#111111"/>
<path d="M17.7673 6.84073C17.0393 6.84073 16.0313 5.86073 15.3313 5.69273C14.2673 6.39273 13.7353 8.01673 13.0353 9.08073C12.8393 9.24873 13.2033 9.41673 12.8393 9.61273C12.8393 9.94873 12.5033 10.4807 12.8393 10.6767L12.6713 10.8447C12.5033 10.8447 12.8393 11.3767 12.3073 11.5447C12.8393 11.5447 12.5033 12.0767 12.5033 12.2447C12.5033 12.4407 12.6713 12.4407 12.8393 12.6087L12.3073 12.9447C12.5033 13.3087 12.5033 13.8967 12.8393 13.8967C12.8393 14.0647 12.6713 14.0647 12.6713 14.2607H12.8393L12.9793 14.4287L12.8393 14.5967H13.2033C13.5673 15.2967 14.5193 14.5967 15.0513 14.9607C15.8073 14.6527 16.6473 14.0647 17.1793 13.7287L17.2073 13.3927C17.1233 13.3927 16.9833 13.3927 16.8993 13.3087C17.0953 12.7767 17.5993 12.9447 17.9633 12.9447C17.9633 12.6087 17.7953 12.7767 17.5993 12.6087C17.5993 12.4407 17.7953 12.6087 17.9633 12.6087C17.9633 12.2447 17.9633 12.2447 18.1313 12.0767C18.1313 11.5447 18.8593 11.7127 18.8593 11.3767C18.8593 11.1807 18.4953 11.3767 18.4953 11.1807C18.6633 11.0127 18.8593 11.0127 19.0273 11.0127C18.8593 10.6767 19.1953 10.6767 19.1953 10.4807C19.1953 10.1447 18.8593 10.3127 18.8593 9.94873C19.0273 9.94873 19.1953 9.94873 19.1953 9.78073C19.3633 9.24873 18.6633 9.41673 18.6633 8.91273H19.0273C19.0273 8.54873 18.6633 8.38073 18.8593 8.18473C18.6633 8.01673 18.4953 8.01673 18.3273 7.84873L18.4953 7.65273L17.7673 6.84073ZM16.8433 8.57673C17.0113 8.94073 17.5433 9.44473 17.2073 9.80873C17.0113 9.97673 17.2073 10.1727 17.2073 10.1727C16.5353 11.2927 15.5553 12.3567 14.3233 12.7207C14.3233 12.7207 14.3233 12.3567 14.3233 12.1887L14.4913 12.0207C14.1553 11.8527 14.3233 11.6847 14.3233 11.3487C14.4913 11.1527 14.4913 10.9847 14.4913 10.8167C15.0233 10.8167 14.3233 10.3407 14.6593 9.97673C14.6593 9.80873 14.8273 9.72473 14.6313 9.55673C14.9953 9.55673 14.9673 9.05273 15.1353 8.85673C14.9673 8.68873 15.1353 8.35273 15.3313 8.15673C15.4993 8.15673 15.6673 8.35273 15.6673 8.15673V7.98873C15.8353 7.98873 15.7793 8.32473 16.3113 8.32473L16.8433 8.57673Z" fill="#111111"/>
<path d="M27.7401 0.344727C27.5721 0.344727 26.7601 0.876726 27.2641 1.21273C27.2641 1.40873 27.0961 1.21273 26.9281 1.40873L26.7601 1.57673C26.7601 1.57673 26.9281 1.57673 26.9281 1.74473L27.0961 1.40873C27.4601 1.94073 28.6081 1.94073 29.1401 1.94073L29.1121 2.10873C29.5881 2.19273 29.5321 2.80873 30.1201 2.80873L29.9521 2.97673C30.1201 3.17273 30.4001 3.48073 30.7361 3.39673C30.9601 2.19273 29.8961 1.91273 29.5041 0.848727C29.3361 0.484726 28.1041 0.708727 27.7401 0.344727ZM27.7961 1.94073C27.4601 1.94073 27.3201 1.77273 26.9561 1.77273C26.8721 2.02473 26.7601 2.10873 26.7601 2.27673C26.9281 2.27673 26.9281 2.10873 27.0961 2.10873C27.2641 2.27673 27.6281 1.94073 27.6281 2.27673L27.2641 2.47273C27.0961 2.80873 26.5641 2.27673 26.3961 2.64073L26.5361 2.80873L26.4241 2.83673C26.2281 2.97673 26.2281 3.39673 26.2281 3.50873V3.70473C26.3961 3.87273 26.2281 4.04073 26.0321 4.04073C25.8641 4.40473 26.3961 4.23673 26.3961 4.40473C26.3961 4.57273 26.2281 4.40473 26.2281 4.40473C25.8641 4.57273 25.6961 4.93673 25.8641 5.27273H26.2281C26.0321 5.46873 26.0321 5.46873 25.8641 5.46873C25.6961 5.80473 25.6961 6.16873 25.6961 6.33673L25.5001 6.50473C25.6961 6.50473 25.6961 6.50473 25.6961 6.50473C25.6961 6.86873 25.3321 6.70073 25.5001 7.03673C25.6961 7.40073 25.1641 7.56873 25.5001 7.76473C24.9961 8.10073 25.3321 8.68873 25.1641 9.05273C25.3321 9.05273 25.3321 9.22073 25.3321 9.22073C25.3321 9.22073 25.5001 9.22073 25.5001 9.38873C25.5001 9.58473 25.3321 9.38873 25.3321 9.58473C25.1641 9.75273 25.1641 9.75273 25.3321 9.92073C25.1641 10.2847 24.8001 10.4527 24.4641 10.4527C23.4001 11.1527 21.9721 11.6847 21.2721 12.9167C21.1041 13.1127 21.2721 13.7567 20.9361 13.9247C20.9361 14.0927 21.1041 14.0927 21.2721 14.2887C21.1041 14.4567 21.1041 14.2887 20.9361 14.4567C21.1041 14.4567 21.1041 14.6247 21.1041 14.6247C21.2721 14.8207 21.6361 14.9327 21.8041 14.9327L22.0841 14.9047L22.1681 14.8487L22.3921 14.8767C22.6721 14.7087 22.8401 14.2327 23.2321 14.2327L23.1481 14.0927L23.4001 14.0367C23.7361 13.3367 24.2681 13.3367 24.8001 12.9727C25.1641 12.8047 25.5001 12.9727 25.6961 13.3367C25.3321 13.8687 25.6961 14.4007 25.6961 14.7367H25.5001C25.5001 15.1007 26.0321 15.6327 25.5001 15.8007L25.8641 16.1647C25.6961 16.8647 26.0321 17.3967 26.0321 18.0967L25.8641 18.2647C26.0321 18.2647 25.8641 18.4607 25.8641 18.4607C26.2281 18.6287 26.9561 18.7967 27.3201 18.4607C27.1241 18.0967 27.9641 18.2647 28.1321 17.9287C27.7681 17.7607 28.1321 17.2287 27.7681 17.0327C27.7681 16.8647 27.9641 17.0327 27.9641 17.0327C28.1321 16.8647 27.7681 16.5007 27.9641 16.3327C27.7681 16.3327 27.7681 16.3327 27.7681 16.1647C27.9641 16.1647 27.9641 16.1647 27.9641 16.1647C28.1321 15.8007 27.7681 15.9967 27.6001 15.8007H27.7681C27.9641 15.6327 27.9641 15.6327 27.9641 15.4647C27.6001 15.2687 28.3001 14.5687 27.6001 14.4007C27.7681 14.4007 27.7681 14.2327 27.9641 14.2327V14.0367H27.7681C27.7681 13.8687 27.7681 13.3367 27.9641 13.1687C27.6001 13.1687 27.7401 12.9167 27.7121 12.7767L27.7681 12.2727C28.4961 11.9367 29.1961 11.4047 29.8961 11.0407C30.0641 11.4047 30.4281 10.8727 30.5961 10.7047C30.9601 10.5087 31.2681 11.0967 31.6321 10.5647L31.6601 10.5087C31.8281 10.3407 31.8281 10.3407 32.0241 10.3407C32.0241 9.80873 32.7521 10.0327 32.7521 9.52873L32.4721 8.52073C31.6041 8.15673 30.7641 8.63273 29.8961 8.80073C29.1961 8.80073 28.3001 9.52873 27.7681 8.99673C28.1321 8.63273 27.4321 7.98873 27.7681 7.62473C27.7681 7.62473 27.7681 7.62473 27.6001 7.62473C28.3001 7.28873 27.4321 7.09273 27.6001 6.75673C27.7681 6.75673 27.7681 6.58873 27.9641 6.58873C28.1321 6.22473 27.7681 5.69273 28.1321 5.69273L27.9641 5.32873C28.3001 4.99273 28.1321 4.74073 27.9641 4.40473C28.1321 4.04073 28.3001 4.57273 28.3001 4.23673C28.3001 4.23673 28.3001 4.04073 28.1321 4.04073L28.3001 3.87273C28.3001 3.34073 28.6081 2.92073 28.7761 2.38873C28.7761 2.38873 27.9921 2.27673 27.6281 2.10873L27.7961 1.94073Z" fill="#111111"/>
<path d="M40.5643 0.344727C40.3963 0.344727 39.5843 0.876726 40.0883 1.21273C40.0883 1.40873 39.9203 1.21273 39.7523 1.40873L39.5843 1.57673C39.5843 1.57673 39.7523 1.57673 39.7523 1.74473L39.9203 1.40873C40.2843 1.94073 41.4323 1.94073 41.9643 1.94073L41.9363 2.10873C42.4123 2.19273 42.3563 2.80873 42.9443 2.80873L42.7763 2.97673C42.9443 3.17273 43.2243 3.48073 43.5603 3.39673C43.7843 2.19273 42.7203 1.91273 42.3283 0.848727C42.1603 0.484726 40.9283 0.708727 40.5643 0.344727ZM40.6203 1.94073C40.2843 1.94073 40.1443 1.77273 39.7803 1.77273C39.6963 2.02473 39.5843 2.10873 39.5843 2.27673C39.7523 2.27673 39.7523 2.10873 39.9203 2.10873C40.0883 2.27673 40.4523 1.94073 40.4523 2.27673L40.0883 2.47273C39.9203 2.80873 39.3883 2.27673 39.2203 2.64073L39.3603 2.80873L39.2483 2.83673C39.0523 2.97673 39.0523 3.39673 39.0523 3.50873V3.70473C39.2203 3.87273 39.0523 4.04073 38.8563 4.04073C38.6883 4.40473 39.2203 4.23673 39.2203 4.40473C39.2203 4.57273 39.0523 4.40473 39.0523 4.40473C38.6883 4.57273 38.5203 4.93673 38.6883 5.27273H39.0523C38.8563 5.46873 38.8563 5.46873 38.6883 5.46873C38.5203 5.80473 38.5203 6.16873 38.5203 6.33673L38.3243 6.50473C38.5203 6.50473 38.5203 6.50473 38.5203 6.50473C38.5203 6.86873 38.1563 6.70073 38.3243 7.03673C38.5203 7.40073 37.9883 7.56873 38.3243 7.76473C37.8203 8.10073 38.1563 8.68873 37.9883 9.05273C38.1563 9.05273 38.1563 9.22073 38.1563 9.22073C38.1563 9.22073 38.3243 9.22073 38.3243 9.38873C38.3243 9.58473 38.1563 9.38873 38.1563 9.58473C37.9883 9.75273 37.9883 9.75273 38.1563 9.92073C37.9883 10.2847 37.6243 10.4527 37.2883 10.4527C36.2243 11.1527 34.7963 11.6847 34.0963 12.9167C33.9283 13.1127 34.0963 13.7567 33.7603 13.9247C33.7603 14.0927 33.9283 14.0927 34.0963 14.2887C33.9283 14.4567 33.9283 14.2887 33.7603 14.4567C33.9283 14.4567 33.9283 14.6247 33.9283 14.6247C34.0963 14.8207 34.4603 14.9327 34.6283 14.9327L34.9083 14.9047L34.9923 14.8487L35.2163 14.8767C35.4963 14.7087 35.6643 14.2327 36.0563 14.2327L35.9723 14.0927L36.2243 14.0367C36.5603 13.3367 37.0923 13.3367 37.6243 12.9727C37.9883 12.8047 38.3243 12.9727 38.5203 13.3367C38.1563 13.8687 38.5203 14.4007 38.5203 14.7367H38.3243C38.3243 15.1007 38.8563 15.6327 38.3243 15.8007L38.6883 16.1647C38.5203 16.8647 38.8563 17.3967 38.8563 18.0967L38.6883 18.2647C38.8563 18.2647 38.6883 18.4607 38.6883 18.4607C39.0523 18.6287 39.7803 18.7967 40.1443 18.4607C39.9483 18.0967 40.7883 18.2647 40.9563 17.9287C40.5923 17.7607 40.9563 17.2287 40.5923 17.0327C40.5923 16.8647 40.7883 17.0327 40.7883 17.0327C40.9563 16.8647 40.5923 16.5007 40.7883 16.3327C40.5923 16.3327 40.5923 16.3327 40.5923 16.1647C40.7883 16.1647 40.7883 16.1647 40.7883 16.1647C40.9563 15.8007 40.5923 15.9967 40.4243 15.8007H40.5923C40.7883 15.6327 40.7883 15.6327 40.7883 15.4647C40.4243 15.2687 41.1243 14.5687 40.4243 14.4007C40.5923 14.4007 40.5923 14.2327 40.7883 14.2327V14.0367H40.5923C40.5923 13.8687 40.5923 13.3367 40.7883 13.1687C40.4243 13.1687 40.5643 12.9167 40.5363 12.7767L40.5923 12.2727C41.3203 11.9367 42.0203 11.4047 42.7203 11.0407C42.8883 11.4047 43.2523 10.8727 43.4203 10.7047C43.7843 10.5087 44.0923 11.0967 44.4563 10.5647L44.4843 10.5087C44.6523 10.3407 44.6523 10.3407 44.8483 10.3407C44.8483 9.80873 45.5763 10.0327 45.5763 9.52873L45.2963 8.52073C44.4283 8.15673 43.5883 8.63273 42.7203 8.80073C42.0203 8.80073 41.1243 9.52873 40.5923 8.99673C40.9563 8.63273 40.2563 7.98873 40.5923 7.62473C40.5923 7.62473 40.5923 7.62473 40.4243 7.62473C41.1243 7.28873 40.2563 7.09273 40.4243 6.75673C40.5923 6.75673 40.5923 6.58873 40.7883 6.58873C40.9563 6.22473 40.5923 5.69273 40.9563 5.69273L40.7883 5.32873C41.1243 4.99273 40.9563 4.74073 40.7883 4.40473C40.9563 4.04073 41.1243 4.57273 41.1243 4.23673C41.1243 4.23673 41.1243 4.04073 40.9563 4.04073L41.1243 3.87273C41.1243 3.34073 41.4323 2.92073 41.6003 2.38873C41.6003 2.38873 40.8163 2.27673 40.4523 2.10873L40.6203 1.94073Z" fill="#111111"/>
<path d="M54.6206 7.28873C53.7526 5.86073 51.2606 5.02073 49.8326 6.08473C49.1326 6.42073 48.4046 7.59673 48.0406 8.12873C48.2086 8.12873 48.4046 8.12873 48.5726 8.32473L48.2086 8.49273C47.8726 8.66073 47.7046 8.82873 47.5086 9.19273C47.7046 9.19273 47.8726 9.36073 47.8726 9.55673H48.0406L48.2086 9.72473C48.0406 9.72473 47.5926 9.55673 47.4246 9.89273C47.5926 9.89273 47.5926 9.89273 47.5926 9.89273L47.4246 10.0887L47.5926 10.2567C47.4246 10.4247 47.2566 10.4247 47.0886 10.5927H47.4246L46.8926 10.9567C47.0886 10.9567 47.2566 10.7887 47.4246 10.9567C47.4246 11.1247 47.0886 10.9567 47.0886 11.1247C47.0886 11.1247 47.2566 11.1247 47.2566 11.3207H47.0886L47.4246 11.6567C47.4246 12.0207 46.8926 11.8527 46.8926 12.3567C47.2566 12.3567 47.4246 12.1887 47.5926 12.1887C47.5926 12.3567 47.2566 12.3567 47.2566 12.5527L47.5926 12.7207L47.4246 12.8887C47.4246 12.8887 47.4246 13.0847 47.5926 13.2527C47.2566 13.4207 47.7886 13.6167 47.4246 13.9527H47.5926C47.7886 13.9527 47.7886 14.2607 47.7886 14.4287L48.3206 14.5967L48.1246 14.7927L48.3206 14.9607L48.3766 15.1007C48.5446 15.1007 48.7406 15.1287 48.8526 15.2967C48.8526 15.6607 49.9166 16.1087 50.1126 16.4447C50.4486 16.4447 50.9806 16.9767 51.3446 16.6407L51.5126 16.8087C51.6806 16.9767 52.4086 16.8087 52.4086 16.9767C52.5766 16.9767 52.5766 16.8087 52.7446 16.9767C53.4446 17.1727 54.1726 16.9767 54.8726 16.8087C55.0406 16.4447 55.5726 16.8087 55.4046 16.4447C55.5726 16.4447 55.9366 16.0527 55.9366 15.8567C55.5726 15.2407 53.9766 15.7727 53.1086 15.7727C51.6806 15.4367 50.4766 14.5687 50.0566 13.2527C49.5246 13.0847 50.0286 12.6647 49.4966 12.4967L49.8326 12.3007V12.1327C49.6646 11.9647 49.6646 11.9647 49.8326 11.6007C49.6646 11.6007 49.6646 11.6007 49.4966 11.4327H49.6646C49.8326 11.0687 49.8326 11.0687 49.8326 10.7327C50.1966 11.0687 50.3646 10.3687 50.7286 10.9007C51.0646 10.5367 51.1206 10.3687 51.6526 10.2007C52.0166 10.2007 52.0166 10.0047 52.1846 9.83673C53.2486 9.66873 53.6126 8.96873 54.3126 8.43673C54.1446 8.43673 54.1446 8.43673 53.9486 8.24073C54.5086 8.12873 54.5646 7.68073 54.6206 7.28873ZM51.8206 6.78473C51.8206 6.95273 51.8206 6.95273 51.9886 6.95273C52.3246 6.95273 52.1566 7.31673 52.5206 7.48473C52.2126 8.66073 50.8966 9.10873 49.6646 9.44473C49.6646 9.27673 49.8326 9.36073 49.8326 9.19273C49.8326 9.19273 49.8326 9.19273 49.8326 9.02473L50.0286 8.82873L49.8606 8.63273L49.6646 8.66073L50.0846 8.21273L50.1966 8.12873L50.6446 7.68073C50.2806 7.51273 50.6446 7.51273 50.6446 7.34473L50.6726 7.20473L50.6446 6.98073C50.8126 7.34473 51.2886 6.78473 51.8206 6.78473Z" fill="#111111"/>
<path d="M64.2456 7.28873C63.3776 5.86073 60.8856 5.02073 59.4576 6.08473C58.7576 6.42073 58.0296 7.59673 57.6656 8.12873C57.8336 8.12873 58.0296 8.12873 58.1976 8.32473L57.8336 8.49273C57.4976 8.66073 57.3296 8.82873 57.1336 9.19273C57.3296 9.19273 57.4976 9.36073 57.4976 9.55673H57.6656L57.8336 9.72473C57.6656 9.72473 57.2176 9.55673 57.0496 9.89273C57.2176 9.89273 57.2176 9.89273 57.2176 9.89273L57.0496 10.0887L57.2176 10.2567C57.0496 10.4247 56.8816 10.4247 56.7136 10.5927H57.0496L56.5176 10.9567C56.7136 10.9567 56.8816 10.7887 57.0496 10.9567C57.0496 11.1247 56.7136 10.9567 56.7136 11.1247C56.7136 11.1247 56.8816 11.1247 56.8816 11.3207H56.7136L57.0496 11.6567C57.0496 12.0207 56.5176 11.8527 56.5176 12.3567C56.8816 12.3567 57.0496 12.1887 57.2176 12.1887C57.2176 12.3567 56.8816 12.3567 56.8816 12.5527L57.2176 12.7207L57.0496 12.8887C57.0496 12.8887 57.0496 13.0847 57.2176 13.2527C56.8816 13.4207 57.4136 13.6167 57.0496 13.9527H57.2176C57.4136 13.9527 57.4136 14.2607 57.4136 14.4287L57.9456 14.5967L57.7496 14.7927L57.9456 14.9607L58.0016 15.1007C58.1696 15.1007 58.3656 15.1287 58.4776 15.2967C58.4776 15.6607 59.5416 16.1087 59.7376 16.4447C60.0736 16.4447 60.6056 16.9767 60.9696 16.6407L61.1376 16.8087C61.3056 16.9767 62.0336 16.8087 62.0336 16.9767C62.2016 16.9767 62.2016 16.8087 62.3696 16.9767C63.0696 17.1727 63.7976 16.9767 64.4976 16.8087C64.6656 16.4447 65.1976 16.8087 65.0296 16.4447C65.1976 16.4447 65.5616 16.0527 65.5616 15.8567C65.1976 15.2407 63.6016 15.7727 62.7336 15.7727C61.3056 15.4367 60.1016 14.5687 59.6816 13.2527C59.1496 13.0847 59.6536 12.6647 59.1216 12.4967L59.4576 12.3007V12.1327C59.2896 11.9647 59.2896 11.9647 59.4576 11.6007C59.2896 11.6007 59.2896 11.6007 59.1216 11.4327H59.2896C59.4576 11.0687 59.4576 11.0687 59.4576 10.7327C59.8216 11.0687 59.9896 10.3687 60.3536 10.9007C60.6896 10.5367 60.7456 10.3687 61.2776 10.2007C61.6416 10.2007 61.6416 10.0047 61.8096 9.83673C62.8736 9.66873 63.2376 8.96873 63.9376 8.43673C63.7696 8.43673 63.7696 8.43673 63.5736 8.24073C64.1336 8.12873 64.1896 7.68073 64.2456 7.28873ZM61.4456 6.78473C61.4456 6.95273 61.4456 6.95273 61.6136 6.95273C61.9496 6.95273 61.7816 7.31673 62.1456 7.48473C61.8376 8.66073 60.5216 9.10873 59.2896 9.44473C59.2896 9.27673 59.4576 9.36073 59.4576 9.19273C59.4576 9.19273 59.4576 9.19273 59.4576 9.02473L59.6536 8.82873L59.4856 8.63273L59.2896 8.66073L59.7096 8.21273L59.8216 8.12873L60.2696 7.68073C59.9056 7.51273 60.2696 7.51273 60.2696 7.34473L60.2976 7.20473L60.2696 6.98073C60.4376 7.34473 60.9136 6.78473 61.4456 6.78473Z" fill="#111111"/>
</svg>
