<svg width="20" height="20" viewBox="0 0 20 20" fill="none" xmlns="http://www.w3.org/2000/svg">
<g clip-path="url(#clip0_2645_7437)">
<path d="M13.0798 2.57971V1.875H6.9244V2.57971H3.125V18.125H4.7302V16.4028H15.2698V18.125H16.875V2.57971H13.0798ZM5.66346 14.2804C5.14913 14.2804 4.7302 13.8592 4.7302 13.3422C4.7302 12.8251 5.14913 12.4039 5.66346 12.4039C6.17779 12.4039 6.59672 12.8251 6.59672 13.3422C6.59672 13.8592 6.17779 14.2804 5.66346 14.2804ZM14.3365 14.2804C13.8222 14.2804 13.4033 13.8592 13.4033 13.3422C13.4033 12.8251 13.8222 12.4039 14.3365 12.4039C14.8509 12.4039 15.2698 12.8251 15.2698 13.3422C15.2698 13.8592 14.8509 14.2804 14.3365 14.2804ZM15.2698 9.9312H4.7302V4.97322H15.2698V9.9312Z" fill="#404040"/>
</g>
<defs>
<clipPath id="clip0_2645_7437">
<rect width="13.75" height="16.25" fill="white" transform="translate(3.125 1.875)"/>
</clipPath>
</defs>
</svg>
