<svg width="20" height="20" viewBox="0 0 20 20" fill="none" xmlns="http://www.w3.org/2000/svg">
<g clip-path="url(#clip0_2645_7385)">
<path d="M10.8691 5.0625C11.7493 5.0625 12.4629 4.34895 12.4629 3.46875C12.4629 2.58855 11.7493 1.875 10.8691 1.875C9.98894 1.875 9.27539 2.58855 9.27539 3.46875C9.27539 4.34895 9.98894 5.0625 10.8691 5.0625Z" fill="#404040"/>
<path d="M11.4062 10.1438L11.9125 10.5813L14.8812 11.6501L15.5125 9.8876L12.8875 8.9376L11.275 5.95635L10.1625 5.50635L6.70625 6.6126L6.13125 7.13135L4.84375 10.1001L6.5625 10.8501L7.68125 8.26885L8.33125 8.0626L7.625 11.5188L7.01875 13.8251L3.75 16.9126L5.175 18.1251L8.75 14.6876L9.16875 13.2251L11.0875 14.4501V18.1251H12.9625V13.4188L10.5 11.8501L11 9.39385L11.4062 10.1438Z" fill="#404040"/>
</g>
<defs>
<clipPath id="clip0_2645_7385">
<rect width="11.875" height="16.25" fill="white" transform="translate(3.75 1.875)"/>
</clipPath>
</defs>
</svg>
