<svg width="105" height="52" viewBox="0 0 105 52" fill="none" xmlns="http://www.w3.org/2000/svg">
<g clip-path="url(#clip0_955_7285)">
<path d="M8.03121 40.8718H11.0678V25.8358H8.03121V32.149H3.01628V25.8358H0V40.8718H3.01628V35.1374H8.02714V40.8718H8.03121Z" fill="white"/>
<path d="M15.0855 40.8718H24.171V37.8835H18.0245V34.9034H24.171V31.9561H18.0245V28.8241H24.171V25.8358H15.0855V40.8718Z" fill="white"/>
<path d="M35.2388 40.8718H38.7598L35.6499 35.6381V35.4986L35.711 35.4698C37.331 34.7187 38.1859 33.1711 38.1859 30.9915C38.1859 27.7158 36.4477 25.8358 33.4111 25.8358H28.1967V40.8718H31.156V35.9542H32.4342L35.2388 40.8718ZM32.7395 33.0316H31.156V28.7831H32.8005C34.1723 28.7831 35.0556 29.6164 35.0556 30.9094C35.0556 32.2024 34.1682 33.0316 32.7435 33.0316H32.7395Z" fill="white"/>
<path d="M41.5685 40.8718H50.654V37.8835H44.5075V34.9034H50.654V31.9561H44.5075V28.8241H50.654V25.8358H41.5685V40.8718Z" fill="white"/>
<path d="M54.5902 40.8718H59.2673C63.4641 40.8718 66.171 37.9286 66.171 33.3764C66.171 28.8241 63.3704 25.8358 59.2063 25.8358H54.5862V40.8718H54.5902ZM59.0557 37.8835H57.5495V28.8241H59.2877C61.4288 28.8241 63.0407 30.7821 63.0407 33.3764C63.0407 35.9706 61.3637 37.8835 59.0557 37.8835Z" fill="white"/>
<path d="M69.3012 40.8718H72.3378V25.8358H69.3012V40.8718Z" fill="white"/>
<path d="M76.2293 25.8358V34.6201C76.2293 38.6675 78.2931 41.0853 81.7531 41.0853C85.213 41.0853 87.3134 38.6675 87.3134 34.6201V25.8358H84.2971V34.3862C84.2971 36.5043 83.2754 37.9286 81.7531 37.9286C80.2307 37.9286 79.2659 36.5371 79.2659 34.3862V25.8358H76.2293Z" fill="white"/>
<path d="M102.024 40.8718H105.004V25.8358H101.947L98.1818 33.91H98.0108L94.2293 25.8358H91.1723V40.8718H94.152V32.0546L97.1275 38.0805H99.0529L102.028 32.0341V40.8718H102.024Z" fill="white"/>
<path d="M64.0665 0H41.137L35.2836 6.45279V21.7433H50.6336V14.252H54.5699V21.7433H69.9199V6.45279L64.0665 0Z" fill="white"/>
<path d="M59.5034 51.1134V51.8481H56.8738L56.8616 51.3227L58.1194 49.9845C58.441 49.6356 58.6608 49.3565 58.6608 49.0322C58.6608 48.7079 58.4369 48.4822 58.1194 48.4822C57.8386 48.4822 57.5984 48.6258 57.4193 48.9214L56.8453 48.5068C57.0814 48.0758 57.5088 47.7351 58.1846 47.7351C58.8603 47.7351 59.4668 48.1866 59.4668 48.9419C59.4668 49.4057 59.3202 49.767 58.7951 50.3088L58.0299 51.101V51.1134H59.5034Z" fill="white"/>
<path d="M60.1669 49.8203C60.1669 48.5766 60.7612 47.7351 61.7341 47.7351C62.707 47.7351 63.3094 48.5068 63.3094 49.8203C63.3094 51.0641 62.7151 51.8974 61.7341 51.8974C60.806 51.8974 60.1669 51.1339 60.1669 49.8203ZM62.4912 49.8203C62.4912 48.9953 62.2144 48.4863 61.7382 48.4863C61.2619 48.4863 60.981 48.9542 60.981 49.8203C60.981 50.6372 61.2619 51.1544 61.7382 51.1544C62.2144 51.1544 62.4912 50.6782 62.4912 49.8203Z" fill="white"/>
<path d="M66.5333 51.1134V51.8481H63.9037L63.8915 51.3227L65.1493 49.9845C65.4708 49.6356 65.6907 49.3565 65.6907 49.0322C65.6907 48.7079 65.4668 48.4822 65.1493 48.4822C64.8684 48.4822 64.6282 48.6258 64.4491 48.9214L63.8752 48.5068C64.1113 48.0758 64.5387 47.7351 65.2144 47.7351C65.8901 47.7351 66.4966 48.1866 66.4966 48.9419C66.4966 49.4057 66.3501 49.767 65.825 50.3088L65.0597 51.101V51.1134H66.5333Z" fill="white"/>
<path d="M69.9891 51.1134V51.8481H67.3595L67.3473 51.3227L68.6051 49.9845C68.9267 49.6356 69.1465 49.3565 69.1465 49.0322C69.1465 48.7079 68.9226 48.4822 68.6051 48.4822C68.3243 48.4822 68.0841 48.6258 67.905 48.9214L67.3311 48.5068C67.5671 48.0758 67.9946 47.7351 68.6703 47.7351C69.346 47.7351 69.9525 48.1866 69.9525 48.9419C69.9525 49.4057 69.806 49.767 69.2849 50.3088L68.5197 51.101V51.1134H69.9932H69.9891Z" fill="white"/>
<path d="M54.5658 44.3732H50.6296V51.8645H54.5658V44.3732Z" fill="white"/>
<path d="M36.692 48.7531L36.0163 49.2621L35.6337 48.6628L36.8548 47.7802H37.4939V51.8481H36.692V48.7531Z" fill="white"/>
<path d="M41.4057 49.3688C41.4057 50.707 40.5183 51.7537 39.2524 52L39.0163 51.3473C39.749 51.1462 40.2497 50.7973 40.4899 50.2103H40.4858C40.2619 50.3293 39.9973 50.395 39.7327 50.395C39.0611 50.395 38.5034 49.923 38.5034 49.0938C38.5034 48.2646 39.1303 47.7392 39.9485 47.7392C40.7666 47.7392 41.4057 48.396 41.4057 49.3729M39.9444 49.7218C40.2212 49.7218 40.4776 49.5617 40.6445 49.3606V49.3072C40.6445 48.7982 40.3515 48.4657 39.9647 48.4657C39.5536 48.4657 39.289 48.7613 39.289 49.1061C39.289 49.4673 39.5333 49.7218 39.9485 49.7218" fill="white"/>
<path d="M44.7029 51.1134V51.8481H42.0733L42.0611 51.3227L43.3189 49.9845C43.6405 49.6356 43.8603 49.3565 43.8603 49.0322C43.8603 48.7079 43.6364 48.4822 43.3189 48.4822C43.038 48.4822 42.7979 48.6258 42.6187 48.9214L42.0448 48.5068C42.2809 48.0758 42.7083 47.7351 43.384 47.7351C44.0597 47.7351 44.6662 48.1866 44.6662 48.9419C44.6662 49.4057 44.5197 49.767 43.9987 50.3088L43.2334 51.101V51.1134H44.7069H44.7029Z" fill="white"/>
<path d="M48.1587 51.1134V51.8481H45.5292L45.517 51.3227L46.7748 49.9845C47.0963 49.6356 47.3161 49.3565 47.3161 49.0322C47.3161 48.7079 47.0923 48.4822 46.7748 48.4822C46.4939 48.4822 46.2537 48.6258 46.0746 48.9214L45.5007 48.5068C45.7368 48.0758 46.1642 47.7351 46.8399 47.7351C47.5156 47.7351 48.1221 48.1866 48.1221 48.9419C48.1221 49.4057 47.9756 49.767 47.4545 50.3088L46.6893 51.101V51.1134H48.1628H48.1587Z" fill="white"/>
</g>
<defs>
<clipPath id="clip0_955_7285">
<rect width="105" height="52" fill="white"/>
</clipPath>
</defs>
</svg>
