<svg width="64" height="64" viewBox="0 0 64 64" fill="none" xmlns="http://www.w3.org/2000/svg">
<path d="M20.4858 19.6209C17.4552 18.1841 15.3594 15.0968 15.3594 11.5201C15.3594 6.57159 19.3709 2.56006 24.3194 2.56006C29.2678 2.56006 33.2794 6.57159 33.2794 11.5201C33.2794 15.0968 31.1835 18.1841 28.153 19.6209" stroke="#A5B195" stroke-width="2" stroke-miterlimit="10" stroke-linecap="round" stroke-linejoin="round"/>
<path d="M20.4798 32.0002C20.4798 29.8792 18.7608 28.1602 16.6398 28.1602C14.5188 28.1602 12.7998 29.8792 12.7998 32.0002V40.9602C12.7998 51.5637 21.3963 60.1602 31.9998 60.1602C42.6033 60.1602 51.1998 51.5637 51.1998 40.9602V32.0002C51.1998 29.8792 49.4808 28.1602 47.3598 28.1602C45.2389 28.1602 43.5198 29.8792 43.5198 32.0002V29.4402C43.5198 27.3192 41.8008 25.6002 39.6798 25.6002C37.5589 25.6002 35.8398 27.3192 35.8398 29.4402V26.8802C35.8398 24.7592 34.1208 23.0402 31.9998 23.0402C29.8789 23.0402 28.1598 24.7592 28.1598 26.8802V11.5202C28.1598 9.39922 26.4408 7.68018 24.3198 7.68018C22.1988 7.68018 20.4798 9.39922 20.4798 11.5202V39.6802V32.0002Z" stroke="white" stroke-width="2" stroke-miterlimit="10" stroke-linecap="round"/>
</svg>
