<svg width="90" height="48" viewBox="0 0 90 48" fill="none" xmlns="http://www.w3.org/2000/svg">
<path fill-rule="evenodd" clip-rule="evenodd" d="M0 0H61.1852C62.0015 2.23658 64.1476 3.83333 66.6667 3.83333C69.1857 3.83333 71.3318 2.23658 72.1481 0H90V48L72.4999 48C72.4999 44.7783 69.8882 42.1667 66.6666 42.1667C63.4449 42.1667 60.8333 44.7783 60.8333 48L0 48V0Z" fill="#111111"/>
<rect x="66" y="10" width="1" height="4" fill="white"/>
<rect x="66" y="18" width="1" height="4" fill="white"/>
<rect x="66" y="26" width="1" height="4" fill="white"/>
<rect x="66" y="34" width="1" height="4" fill="white"/>
<path d="M9.01705 20.875V19.3636H18.0227V20.875H14.392V31H12.642V20.875H9.01705ZM19.8764 31V22.2727H21.5753V31H19.8764ZM20.7344 20.9261C20.4389 20.9261 20.1851 20.8277 19.973 20.6307C19.7647 20.4299 19.6605 20.1913 19.6605 19.9148C19.6605 19.6345 19.7647 19.3958 19.973 19.1989C20.1851 18.9981 20.4389 18.8977 20.7344 18.8977C21.0298 18.8977 21.2817 18.9981 21.4901 19.1989C21.7022 19.3958 21.8082 19.6345 21.8082 19.9148C21.8082 20.1913 21.7022 20.4299 21.4901 20.6307C21.2817 20.8277 21.0298 20.9261 20.7344 20.9261ZM27.5369 31.1761C26.6922 31.1761 25.965 30.9848 25.3551 30.6023C24.7491 30.2159 24.2831 29.6837 23.9574 29.0057C23.6316 28.3277 23.4688 27.5511 23.4688 26.6761C23.4688 25.7898 23.6354 25.0076 23.9688 24.3295C24.3021 23.6477 24.7718 23.1155 25.3778 22.733C25.9839 22.3504 26.6979 22.1591 27.5199 22.1591C28.1828 22.1591 28.7737 22.2822 29.2926 22.5284C29.8116 22.7708 30.2301 23.1117 30.5483 23.5511C30.8703 23.9905 31.0616 24.5038 31.1222 25.0909H29.4688C29.3778 24.6818 29.1695 24.3295 28.8438 24.0341C28.5218 23.7386 28.09 23.5909 27.5483 23.5909C27.0748 23.5909 26.66 23.7159 26.304 23.9659C25.9517 24.2121 25.6771 24.5644 25.4801 25.0227C25.2831 25.4773 25.1847 26.0152 25.1847 26.6364C25.1847 27.2727 25.2813 27.822 25.4744 28.2841C25.6676 28.7462 25.9403 29.1042 26.2926 29.358C26.6487 29.6117 27.0672 29.7386 27.5483 29.7386C27.8703 29.7386 28.1619 29.6799 28.4233 29.5625C28.6884 29.4413 28.91 29.2689 29.0881 29.0455C29.2699 28.822 29.3968 28.553 29.4688 28.2386H31.1222C31.0616 28.803 30.8778 29.3068 30.571 29.75C30.2642 30.1932 29.8532 30.5417 29.3381 30.7955C28.8267 31.0492 28.2263 31.1761 27.5369 31.1761ZM34.5014 28.0398L34.4901 25.9659H34.7855L38.2628 22.2727H40.2969L36.331 26.4773H36.0639L34.5014 28.0398ZM32.9389 31V19.3636H34.6378V31H32.9389ZM38.4503 31L35.3253 26.8523L36.4957 25.6648L40.5355 31H38.4503ZM45.2472 31.1761C44.3873 31.1761 43.6468 30.9924 43.0256 30.625C42.4081 30.2538 41.9309 29.733 41.5938 29.0625C41.2604 28.3883 41.0938 27.5985 41.0938 26.6932C41.0938 25.7992 41.2604 25.0114 41.5938 24.3295C41.9309 23.6477 42.4006 23.1155 43.0028 22.733C43.6089 22.3504 44.3172 22.1591 45.1278 22.1591C45.6203 22.1591 46.0975 22.2405 46.5597 22.4034C47.0218 22.5663 47.4366 22.822 47.804 23.1705C48.1714 23.5189 48.4612 23.9716 48.6733 24.5284C48.8854 25.0814 48.9915 25.7538 48.9915 26.5455V27.1477H42.054V25.875H47.3267C47.3267 25.428 47.2358 25.0322 47.054 24.6875C46.8722 24.339 46.6165 24.0644 46.2869 23.8636C45.9612 23.6629 45.5786 23.5625 45.1392 23.5625C44.6619 23.5625 44.2453 23.6799 43.8892 23.9148C43.5369 24.1458 43.2642 24.4489 43.071 24.8239C42.8816 25.1951 42.7869 25.5985 42.7869 26.0341V27.0284C42.7869 27.6117 42.8892 28.108 43.0938 28.517C43.3021 28.9261 43.5919 29.2386 43.9631 29.4545C44.3343 29.6667 44.768 29.7727 45.2642 29.7727C45.5862 29.7727 45.8797 29.7273 46.1449 29.6364C46.41 29.5417 46.6392 29.4015 46.8324 29.2159C47.0256 29.0303 47.1733 28.8011 47.2756 28.5284L48.8835 28.8182C48.7547 29.2917 48.5237 29.7064 48.1903 30.0625C47.8608 30.4148 47.446 30.6894 46.946 30.8864C46.4498 31.0795 45.8835 31.1761 45.2472 31.1761ZM54.9503 22.2727V23.6364H50.1832V22.2727H54.9503ZM51.4616 20.1818H53.1605V28.4375C53.1605 28.767 53.2098 29.0152 53.3082 29.1818C53.4067 29.3447 53.5336 29.4564 53.6889 29.517C53.848 29.5739 54.0204 29.6023 54.206 29.6023C54.3423 29.6023 54.4616 29.5928 54.5639 29.5739C54.6662 29.5549 54.7457 29.5398 54.8026 29.5284L55.1094 30.9318C55.0109 30.9697 54.8707 31.0076 54.6889 31.0455C54.5071 31.0871 54.2798 31.1098 54.0071 31.1136C53.5601 31.1212 53.1435 31.0417 52.7571 30.875C52.3707 30.7083 52.0582 30.4508 51.8196 30.1023C51.581 29.7538 51.4616 29.3163 51.4616 28.7898V20.1818Z" fill="white"/>
</svg>
